<?xml version="1.0" encoding="UTF-8"?>
<!DOCTYPE xmeml>
<xmeml version="4">
	<sequence id="sequence-2" TL.SQAudioVisibleBase="0" TL.SQVideoVisibleBase="0" TL.SQVisibleBaseTime="148892763079234" TL.SQAVDividerPosition="0.995000004768" TL.SQHideShyTracks="0" TL.SQHeaderWidth="236" TL.SQDataTrackViewControlState="0" Monitor.ProgramZoomOut="152417923257600" Monitor.ProgramZoomIn="0" TL.SQTimePerPixel="0.02038841041014083" MZ.EditLine="124117670476800" MZ.Sequence.PreviewFrameSizeHeight="480" MZ.Sequence.PreviewFrameSizeWidth="720" MZ.Sequence.AudioTimeDisplayFormat="200" MZ.Sequence.PreviewRenderingClassID="1297106761" MZ.Sequence.PreviewRenderingPresetCodec="1297107278" MZ.Sequence.PreviewRenderingPresetPath="EncoderPresets\SequencePreview\9678af98-a7b7-4bdb-b477-7ac9c8df4a4e\I-Frame Only MPEG.epr" MZ.Sequence.PreviewUseMaxRenderQuality="false" MZ.Sequence.PreviewUseMaxBitDepth="false" MZ.Sequence.EditingModeGUID="9678af98-a7b7-4bdb-b477-7ac9c8df4a4e" MZ.Sequence.VideoTimeDisplayFormat="109" MZ.WorkOutPoint="165250082340000" MZ.WorkInPoint="0" explodedTracks="true">
		<uuid>05660db5-7468-4e42-bd55-111f2a91c864</uuid>
		<duration>17983</duration>
		<rate>
			<timebase>30</timebase>
			<ntsc>TRUE</ntsc>
		</rate>
		<name>VT1.0001</name>
		<media>
			<video>
				<format>
					<samplecharacteristics>
						<rate>
							<timebase>30</timebase>
							<ntsc>TRUE</ntsc>
						</rate>
						<codec>
							<name>Apple ProRes 422</name>
							<appspecificdata>
								<appname>Final Cut Pro</appname>
								<appmanufacturer>Apple Inc.</appmanufacturer>
								<appversion>7.0</appversion>
								<data>
									<qtcodec>
										<codecname>Apple ProRes 422</codecname>
										<codectypename>Apple ProRes 422</codectypename>
										<codectypecode>apcn</codectypecode>
										<codecvendorcode>appl</codecvendorcode>
										<spatialquality>1024</spatialquality>
										<temporalquality>0</temporalquality>
										<keyframerate>0</keyframerate>
										<datarate>0</datarate>
									</qtcodec>
								</data>
							</appspecificdata>
						</codec>
						<width>720</width>
						<height>480</height>
						<anamorphic>FALSE</anamorphic>
						<pixelaspectratio>NTSC-601</pixelaspectratio>
						<fielddominance>upper</fielddominance>
						<colordepth>24</colordepth>
					</samplecharacteristics>
				</format>
				<track TL.SQTrackShy="0" TL.SQTrackExpandedHeight="25" TL.SQTrackExpanded="0" MZ.TrackTargeted="1">
					<clipitem id="clipitem-96">
						<masterclipid>masterclip-2</masterclipid>
						<name>VT1.0001.mpg</name>
						<enabled>TRUE</enabled>
						<duration>19497</duration>
						<rate>
							<timebase>30</timebase>
							<ntsc>TRUE</ntsc>
						</rate>
						<start>0</start>
						<end>526</end>
						<in>0</in>
						<out>526</out>
						<pproTicksIn>0</pproTicksIn>
						<pproTicksOut>4458200947200</pproTicksOut>
						<alphatype>none</alphatype>
						<pixelaspectratio>NTSC-601</pixelaspectratio>
						<anamorphic>FALSE</anamorphic>
						<file id="file-2">
							<name>VT1.0001.mpg</name>
							<pathurl>file://localhost/F%3a/Dual%20interaction%20-%20sorted/2021-08-05_13-54-55_01WT_02WT/VT1.0001.mpg</pathurl>
							<rate>
								<timebase>30</timebase>
								<ntsc>TRUE</ntsc>
							</rate>
							<duration>19497</duration>
							<timecode>
								<rate>
									<timebase>30</timebase>
									<ntsc>TRUE</ntsc>
								</rate>
								<string>00:00:00:00</string>
								<frame>0</frame>
								<displayformat>NDF</displayformat>
							</timecode>
							<media>
								<video>
									<samplecharacteristics>
										<rate>
											<timebase>30</timebase>
											<ntsc>TRUE</ntsc>
										</rate>
										<width>720</width>
										<height>480</height>
										<anamorphic>FALSE</anamorphic>
										<pixelaspectratio>NTSC-601</pixelaspectratio>
										<fielddominance>upper</fielddominance>
									</samplecharacteristics>
								</video>
								<audio>
									<samplecharacteristics>
										<depth>16</depth>
										<samplerate>48000</samplerate>
									</samplecharacteristics>
									<channelcount>2</channelcount>
								</audio>
							</media>
						</file>
						<logginginfo>
							<description></description>
							<scene></scene>
							<shottake></shottake>
							<lognote></lognote>
							<good></good>
							<originalvideofilename></originalvideofilename>
							<originalaudiofilename></originalaudiofilename>
						</logginginfo>
						<colorinfo>
							<lut></lut>
							<lut1></lut1>
							<asc_sop></asc_sop>
							<asc_sat></asc_sat>
							<lut2></lut2>
						</colorinfo>
						<labels>
							<label2>Iris</label2>
						</labels>
					</clipitem>
					<clipitem id="clipitem-97">
						<masterclipid>masterclip-2</masterclipid>
						<name>VT1.0001.mpg</name>
						<enabled>TRUE</enabled>
						<duration>19497</duration>
						<rate>
							<timebase>30</timebase>
							<ntsc>TRUE</ntsc>
						</rate>
						<start>526</start>
						<end>554</end>
						<in>526</in>
						<out>554</out>
						<pproTicksIn>4458200947200</pproTicksIn>
						<pproTicksOut>4695519628800</pproTicksOut>
						<alphatype>none</alphatype>
						<file id="file-2"/>
						<logginginfo>
							<description></description>
							<scene></scene>
							<shottake></shottake>
							<lognote></lognote>
							<good></good>
							<originalvideofilename></originalvideofilename>
							<originalaudiofilename></originalaudiofilename>
						</logginginfo>
						<colorinfo>
							<lut></lut>
							<lut1></lut1>
							<asc_sop></asc_sop>
							<asc_sat></asc_sat>
							<lut2></lut2>
						</colorinfo>
						<labels>
							<label2>Iris</label2>
						</labels>
					</clipitem>
					<clipitem id="clipitem-98">
						<masterclipid>masterclip-2</masterclipid>
						<name>VT1.0001.mpg</name>
						<enabled>TRUE</enabled>
						<duration>19497</duration>
						<rate>
							<timebase>30</timebase>
							<ntsc>TRUE</ntsc>
						</rate>
						<start>686</start>
						<end>883</end>
						<in>686</in>
						<out>883</out>
						<pproTicksIn>5814307699200</pproTicksIn>
						<pproTicksOut>7484014137600</pproTicksOut>
						<alphatype>none</alphatype>
						<file id="file-2"/>
						<logginginfo>
							<description></description>
							<scene></scene>
							<shottake></shottake>
							<lognote></lognote>
							<good></good>
							<originalvideofilename></originalvideofilename>
							<originalaudiofilename></originalaudiofilename>
						</logginginfo>
						<colorinfo>
							<lut></lut>
							<lut1></lut1>
							<asc_sop></asc_sop>
							<asc_sat></asc_sat>
							<lut2></lut2>
						</colorinfo>
						<labels>
							<label2>Iris</label2>
						</labels>
					</clipitem>
					<clipitem id="clipitem-99">
						<masterclipid>masterclip-2</masterclipid>
						<name>VT1.0001.mpg</name>
						<enabled>TRUE</enabled>
						<duration>19497</duration>
						<rate>
							<timebase>30</timebase>
							<ntsc>TRUE</ntsc>
						</rate>
						<start>912</start>
						<end>1402</end>
						<in>912</in>
						<out>1402</out>
						<pproTicksIn>7729808486400</pproTicksIn>
						<pproTicksOut>11882885414400</pproTicksOut>
						<alphatype>none</alphatype>
						<file id="file-2"/>
						<logginginfo>
							<description></description>
							<scene></scene>
							<shottake></shottake>
							<lognote></lognote>
							<good></good>
							<originalvideofilename></originalvideofilename>
							<originalaudiofilename></originalaudiofilename>
						</logginginfo>
						<colorinfo>
							<lut></lut>
							<lut1></lut1>
							<asc_sop></asc_sop>
							<asc_sat></asc_sat>
							<lut2></lut2>
						</colorinfo>
						<labels>
							<label2>Iris</label2>
						</labels>
					</clipitem>
					<clipitem id="clipitem-100">
						<masterclipid>masterclip-2</masterclipid>
						<name>VT1.0001.mpg</name>
						<enabled>TRUE</enabled>
						<duration>19497</duration>
						<rate>
							<timebase>30</timebase>
							<ntsc>TRUE</ntsc>
						</rate>
						<start>1402</start>
						<end>1423</end>
						<in>1402</in>
						<out>1423</out>
						<pproTicksIn>11882885414400</pproTicksIn>
						<pproTicksOut>12060874425600</pproTicksOut>
						<alphatype>none</alphatype>
						<file id="file-2"/>
						<logginginfo>
							<description></description>
							<scene></scene>
							<shottake></shottake>
							<lognote></lognote>
							<good></good>
							<originalvideofilename></originalvideofilename>
							<originalaudiofilename></originalaudiofilename>
						</logginginfo>
						<colorinfo>
							<lut></lut>
							<lut1></lut1>
							<asc_sop></asc_sop>
							<asc_sat></asc_sat>
							<lut2></lut2>
						</colorinfo>
						<labels>
							<label2>Iris</label2>
						</labels>
					</clipitem>
					<clipitem id="clipitem-101">
						<masterclipid>masterclip-2</masterclipid>
						<name>VT1.0001.mpg</name>
						<enabled>TRUE</enabled>
						<duration>19497</duration>
						<rate>
							<timebase>30</timebase>
							<ntsc>TRUE</ntsc>
						</rate>
						<start>1452</start>
						<end>2181</end>
						<in>1452</in>
						<out>2181</out>
						<pproTicksIn>12306668774400</pproTicksIn>
						<pproTicksOut>18485430163200</pproTicksOut>
						<alphatype>none</alphatype>
						<file id="file-2"/>
						<logginginfo>
							<description></description>
							<scene></scene>
							<shottake></shottake>
							<lognote></lognote>
							<good></good>
							<originalvideofilename></originalvideofilename>
							<originalaudiofilename></originalaudiofilename>
						</logginginfo>
						<colorinfo>
							<lut></lut>
							<lut1></lut1>
							<asc_sop></asc_sop>
							<asc_sat></asc_sat>
							<lut2></lut2>
						</colorinfo>
						<labels>
							<label2>Iris</label2>
						</labels>
					</clipitem>
					<clipitem id="clipitem-102">
						<masterclipid>masterclip-2</masterclipid>
						<name>VT1.0001.mpg</name>
						<enabled>TRUE</enabled>
						<duration>19497</duration>
						<rate>
							<timebase>30</timebase>
							<ntsc>TRUE</ntsc>
						</rate>
						<start>2310</start>
						<end>2360</end>
						<in>2310</in>
						<out>2360</out>
						<pproTicksIn>19578791232000</pproTicksIn>
						<pproTicksOut>20002574592000</pproTicksOut>
						<alphatype>none</alphatype>
						<file id="file-2"/>
						<logginginfo>
							<description></description>
							<scene></scene>
							<shottake></shottake>
							<lognote></lognote>
							<good></good>
							<originalvideofilename></originalvideofilename>
							<originalaudiofilename></originalaudiofilename>
						</logginginfo>
						<colorinfo>
							<lut></lut>
							<lut1></lut1>
							<asc_sop></asc_sop>
							<asc_sat></asc_sat>
							<lut2></lut2>
						</colorinfo>
						<labels>
							<label2>Iris</label2>
						</labels>
					</clipitem>
					<clipitem id="clipitem-103">
						<masterclipid>masterclip-2</masterclipid>
						<name>VT1.0001.mpg</name>
						<enabled>TRUE</enabled>
						<duration>19497</duration>
						<rate>
							<timebase>30</timebase>
							<ntsc>TRUE</ntsc>
						</rate>
						<start>2378</start>
						<end>2472</end>
						<in>2378</in>
						<out>2472</out>
						<pproTicksIn>20155136601600</pproTicksIn>
						<pproTicksOut>20951849318400</pproTicksOut>
						<alphatype>none</alphatype>
						<file id="file-2"/>
						<logginginfo>
							<description></description>
							<scene></scene>
							<shottake></shottake>
							<lognote></lognote>
							<good></good>
							<originalvideofilename></originalvideofilename>
							<originalaudiofilename></originalaudiofilename>
						</logginginfo>
						<colorinfo>
							<lut></lut>
							<lut1></lut1>
							<asc_sop></asc_sop>
							<asc_sat></asc_sat>
							<lut2></lut2>
						</colorinfo>
						<labels>
							<label2>Iris</label2>
						</labels>
					</clipitem>
					<clipitem id="clipitem-104">
						<masterclipid>masterclip-2</masterclipid>
						<name>VT1.0001.mpg</name>
						<enabled>TRUE</enabled>
						<duration>19497</duration>
						<rate>
							<timebase>30</timebase>
							<ntsc>TRUE</ntsc>
						</rate>
						<start>2472</start>
						<end>2492</end>
						<in>2472</in>
						<out>2492</out>
						<pproTicksIn>20951849318400</pproTicksIn>
						<pproTicksOut>21121362662400</pproTicksOut>
						<alphatype>none</alphatype>
						<file id="file-2"/>
						<logginginfo>
							<description></description>
							<scene></scene>
							<shottake></shottake>
							<lognote></lognote>
							<good></good>
							<originalvideofilename></originalvideofilename>
							<originalaudiofilename></originalaudiofilename>
						</logginginfo>
						<colorinfo>
							<lut></lut>
							<lut1></lut1>
							<asc_sop></asc_sop>
							<asc_sat></asc_sat>
							<lut2></lut2>
						</colorinfo>
						<labels>
							<label2>Iris</label2>
						</labels>
					</clipitem>
					<clipitem id="clipitem-105">
						<masterclipid>masterclip-2</masterclipid>
						<name>VT1.0001.mpg</name>
						<enabled>TRUE</enabled>
						<duration>19497</duration>
						<rate>
							<timebase>30</timebase>
							<ntsc>TRUE</ntsc>
						</rate>
						<start>2515</start>
						<end>2579</end>
						<in>2515</in>
						<out>2579</out>
						<pproTicksIn>21316303008000</pproTicksIn>
						<pproTicksOut>21858745708800</pproTicksOut>
						<alphatype>none</alphatype>
						<file id="file-2"/>
						<logginginfo>
							<description></description>
							<scene></scene>
							<shottake></shottake>
							<lognote></lognote>
							<good></good>
							<originalvideofilename></originalvideofilename>
							<originalaudiofilename></originalaudiofilename>
						</logginginfo>
						<colorinfo>
							<lut></lut>
							<lut1></lut1>
							<asc_sop></asc_sop>
							<asc_sat></asc_sat>
							<lut2></lut2>
						</colorinfo>
						<labels>
							<label2>Iris</label2>
						</labels>
					</clipitem>
					<clipitem id="clipitem-106">
						<masterclipid>masterclip-2</masterclipid>
						<name>VT1.0001.mpg</name>
						<enabled>TRUE</enabled>
						<duration>19497</duration>
						<rate>
							<timebase>30</timebase>
							<ntsc>TRUE</ntsc>
						</rate>
						<start>2579</start>
						<end>2597</end>
						<in>2579</in>
						<out>2597</out>
						<pproTicksIn>21858745708800</pproTicksIn>
						<pproTicksOut>22011307718400</pproTicksOut>
						<alphatype>none</alphatype>
						<file id="file-2"/>
						<logginginfo>
							<description></description>
							<scene></scene>
							<shottake></shottake>
							<lognote></lognote>
							<good></good>
							<originalvideofilename></originalvideofilename>
							<originalaudiofilename></originalaudiofilename>
						</logginginfo>
						<colorinfo>
							<lut></lut>
							<lut1></lut1>
							<asc_sop></asc_sop>
							<asc_sat></asc_sat>
							<lut2></lut2>
						</colorinfo>
						<labels>
							<label2>Iris</label2>
						</labels>
					</clipitem>
					<clipitem id="clipitem-107">
						<masterclipid>masterclip-2</masterclipid>
						<name>VT1.0001.mpg</name>
						<enabled>TRUE</enabled>
						<duration>19497</duration>
						<rate>
							<timebase>30</timebase>
							<ntsc>TRUE</ntsc>
						</rate>
						<start>2608</start>
						<end>2671</end>
						<in>2608</in>
						<out>2671</out>
						<pproTicksIn>22104540057600</pproTicksIn>
						<pproTicksOut>22638507091200</pproTicksOut>
						<alphatype>none</alphatype>
						<file id="file-2"/>
						<logginginfo>
							<description></description>
							<scene></scene>
							<shottake></shottake>
							<lognote></lognote>
							<good></good>
							<originalvideofilename></originalvideofilename>
							<originalaudiofilename></originalaudiofilename>
						</logginginfo>
						<colorinfo>
							<lut></lut>
							<lut1></lut1>
							<asc_sop></asc_sop>
							<asc_sat></asc_sat>
							<lut2></lut2>
						</colorinfo>
						<labels>
							<label2>Iris</label2>
						</labels>
					</clipitem>
					<clipitem id="clipitem-108">
						<masterclipid>masterclip-2</masterclipid>
						<name>VT1.0001.mpg</name>
						<enabled>TRUE</enabled>
						<duration>19497</duration>
						<rate>
							<timebase>30</timebase>
							<ntsc>TRUE</ntsc>
						</rate>
						<start>2834</start>
						<end>2936</end>
						<in>2834</in>
						<out>2936</out>
						<pproTicksIn>24020040844800</pproTicksIn>
						<pproTicksOut>24884558899200</pproTicksOut>
						<alphatype>none</alphatype>
						<file id="file-2"/>
						<logginginfo>
							<description></description>
							<scene></scene>
							<shottake></shottake>
							<lognote></lognote>
							<good></good>
							<originalvideofilename></originalvideofilename>
							<originalaudiofilename></originalaudiofilename>
						</logginginfo>
						<colorinfo>
							<lut></lut>
							<lut1></lut1>
							<asc_sop></asc_sop>
							<asc_sat></asc_sat>
							<lut2></lut2>
						</colorinfo>
						<labels>
							<label2>Iris</label2>
						</labels>
					</clipitem>
					<clipitem id="clipitem-109">
						<masterclipid>masterclip-2</masterclipid>
						<name>VT1.0001.mpg</name>
						<enabled>TRUE</enabled>
						<duration>19497</duration>
						<rate>
							<timebase>30</timebase>
							<ntsc>TRUE</ntsc>
						</rate>
						<start>2940</start>
						<end>4356</end>
						<in>2940</in>
						<out>4356</out>
						<pproTicksIn>24918461568000</pproTicksIn>
						<pproTicksOut>36920006323200</pproTicksOut>
						<alphatype>none</alphatype>
						<file id="file-2"/>
						<logginginfo>
							<description></description>
							<scene></scene>
							<shottake></shottake>
							<lognote></lognote>
							<good></good>
							<originalvideofilename></originalvideofilename>
							<originalaudiofilename></originalaudiofilename>
						</logginginfo>
						<colorinfo>
							<lut></lut>
							<lut1></lut1>
							<asc_sop></asc_sop>
							<asc_sat></asc_sat>
							<lut2></lut2>
						</colorinfo>
						<labels>
							<label2>Iris</label2>
						</labels>
					</clipitem>
					<clipitem id="clipitem-110">
						<masterclipid>masterclip-2</masterclipid>
						<name>VT1.0001.mpg</name>
						<enabled>TRUE</enabled>
						<duration>19497</duration>
						<rate>
							<timebase>30</timebase>
							<ntsc>TRUE</ntsc>
						</rate>
						<start>4546</start>
						<end>5144</end>
						<in>4546</in>
						<out>5144</out>
						<pproTicksIn>38530383091200</pproTicksIn>
						<pproTicksOut>43598832076800</pproTicksOut>
						<alphatype>none</alphatype>
						<file id="file-2"/>
						<logginginfo>
							<description></description>
							<scene></scene>
							<shottake></shottake>
							<lognote></lognote>
							<good></good>
							<originalvideofilename></originalvideofilename>
							<originalaudiofilename></originalaudiofilename>
						</logginginfo>
						<colorinfo>
							<lut></lut>
							<lut1></lut1>
							<asc_sop></asc_sop>
							<asc_sat></asc_sat>
							<lut2></lut2>
						</colorinfo>
						<labels>
							<label2>Iris</label2>
						</labels>
					</clipitem>
					<clipitem id="clipitem-111">
						<masterclipid>masterclip-2</masterclipid>
						<name>VT1.0001.mpg</name>
						<enabled>TRUE</enabled>
						<duration>19497</duration>
						<rate>
							<timebase>30</timebase>
							<ntsc>TRUE</ntsc>
						</rate>
						<start>5144</start>
						<end>5169</end>
						<in>5144</in>
						<out>5169</out>
						<pproTicksIn>43598832076800</pproTicksIn>
						<pproTicksOut>43810723756800</pproTicksOut>
						<alphatype>none</alphatype>
						<file id="file-2"/>
						<logginginfo>
							<description></description>
							<scene></scene>
							<shottake></shottake>
							<lognote></lognote>
							<good></good>
							<originalvideofilename></originalvideofilename>
							<originalaudiofilename></originalaudiofilename>
						</logginginfo>
						<colorinfo>
							<lut></lut>
							<lut1></lut1>
							<asc_sop></asc_sop>
							<asc_sat></asc_sat>
							<lut2></lut2>
						</colorinfo>
						<labels>
							<label2>Iris</label2>
						</labels>
					</clipitem>
					<clipitem id="clipitem-112">
						<masterclipid>masterclip-2</masterclipid>
						<name>VT1.0001.mpg</name>
						<enabled>TRUE</enabled>
						<duration>19497</duration>
						<rate>
							<timebase>30</timebase>
							<ntsc>TRUE</ntsc>
						</rate>
						<start>5247</start>
						<end>6073</end>
						<in>5247</in>
						<out>6073</out>
						<pproTicksIn>44471825798400</pproTicksIn>
						<pproTicksOut>51472726905600</pproTicksOut>
						<alphatype>none</alphatype>
						<file id="file-2"/>
						<logginginfo>
							<description></description>
							<scene></scene>
							<shottake></shottake>
							<lognote></lognote>
							<good></good>
							<originalvideofilename></originalvideofilename>
							<originalaudiofilename></originalaudiofilename>
						</logginginfo>
						<colorinfo>
							<lut></lut>
							<lut1></lut1>
							<asc_sop></asc_sop>
							<asc_sat></asc_sat>
							<lut2></lut2>
						</colorinfo>
						<labels>
							<label2>Iris</label2>
						</labels>
					</clipitem>
					<clipitem id="clipitem-113">
						<masterclipid>masterclip-2</masterclipid>
						<name>VT1.0001.mpg</name>
						<enabled>TRUE</enabled>
						<duration>19497</duration>
						<rate>
							<timebase>30</timebase>
							<ntsc>TRUE</ntsc>
						</rate>
						<start>6073</start>
						<end>6084</end>
						<in>6073</in>
						<out>6084</out>
						<pproTicksIn>51472726905600</pproTicksIn>
						<pproTicksOut>51565959244800</pproTicksOut>
						<alphatype>none</alphatype>
						<file id="file-2"/>
						<logginginfo>
							<description></description>
							<scene></scene>
							<shottake></shottake>
							<lognote></lognote>
							<good></good>
							<originalvideofilename></originalvideofilename>
							<originalaudiofilename></originalaudiofilename>
						</logginginfo>
						<colorinfo>
							<lut></lut>
							<lut1></lut1>
							<asc_sop></asc_sop>
							<asc_sat></asc_sat>
							<lut2></lut2>
						</colorinfo>
						<labels>
							<label2>Iris</label2>
						</labels>
					</clipitem>
					<clipitem id="clipitem-114">
						<masterclipid>masterclip-2</masterclipid>
						<name>VT1.0001.mpg</name>
						<enabled>TRUE</enabled>
						<duration>19497</duration>
						<rate>
							<timebase>30</timebase>
							<ntsc>TRUE</ntsc>
						</rate>
						<start>6134</start>
						<end>6727</end>
						<in>6134</in>
						<out>6727</out>
						<pproTicksIn>51989742604800</pproTicksIn>
						<pproTicksOut>57015813254400</pproTicksOut>
						<alphatype>none</alphatype>
						<file id="file-2"/>
						<logginginfo>
							<description></description>
							<scene></scene>
							<shottake></shottake>
							<lognote></lognote>
							<good></good>
							<originalvideofilename></originalvideofilename>
							<originalaudiofilename></originalaudiofilename>
						</logginginfo>
						<colorinfo>
							<lut></lut>
							<lut1></lut1>
							<asc_sop></asc_sop>
							<asc_sat></asc_sat>
							<lut2></lut2>
						</colorinfo>
						<labels>
							<label2>Iris</label2>
						</labels>
					</clipitem>
					<clipitem id="clipitem-115">
						<masterclipid>masterclip-2</masterclipid>
						<name>VT1.0001.mpg</name>
						<enabled>TRUE</enabled>
						<duration>19497</duration>
						<rate>
							<timebase>30</timebase>
							<ntsc>TRUE</ntsc>
						</rate>
						<start>6751</start>
						<end>6938</end>
						<in>6751</in>
						<out>6938</out>
						<pproTicksIn>57219229267200</pproTicksIn>
						<pproTicksOut>58804179033600</pproTicksOut>
						<alphatype>none</alphatype>
						<file id="file-2"/>
						<logginginfo>
							<description></description>
							<scene></scene>
							<shottake></shottake>
							<lognote></lognote>
							<good></good>
							<originalvideofilename></originalvideofilename>
							<originalaudiofilename></originalaudiofilename>
						</logginginfo>
						<colorinfo>
							<lut></lut>
							<lut1></lut1>
							<asc_sop></asc_sop>
							<asc_sat></asc_sat>
							<lut2></lut2>
						</colorinfo>
						<labels>
							<label2>Iris</label2>
						</labels>
					</clipitem>
					<clipitem id="clipitem-116">
						<masterclipid>masterclip-2</masterclipid>
						<name>VT1.0001.mpg</name>
						<enabled>TRUE</enabled>
						<duration>19497</duration>
						<rate>
							<timebase>30</timebase>
							<ntsc>TRUE</ntsc>
						</rate>
						<start>6938</start>
						<end>6963</end>
						<in>6938</in>
						<out>6963</out>
						<pproTicksIn>58804179033600</pproTicksIn>
						<pproTicksOut>59016070713600</pproTicksOut>
						<alphatype>none</alphatype>
						<file id="file-2"/>
						<logginginfo>
							<description></description>
							<scene></scene>
							<shottake></shottake>
							<lognote></lognote>
							<good></good>
							<originalvideofilename></originalvideofilename>
							<originalaudiofilename></originalaudiofilename>
						</logginginfo>
						<colorinfo>
							<lut></lut>
							<lut1></lut1>
							<asc_sop></asc_sop>
							<asc_sat></asc_sat>
							<lut2></lut2>
						</colorinfo>
						<labels>
							<label2>Iris</label2>
						</labels>
					</clipitem>
					<clipitem id="clipitem-117">
						<masterclipid>masterclip-2</masterclipid>
						<name>VT1.0001.mpg</name>
						<enabled>TRUE</enabled>
						<duration>19497</duration>
						<rate>
							<timebase>30</timebase>
							<ntsc>TRUE</ntsc>
						</rate>
						<start>6970</start>
						<end>7593</end>
						<in>6970</in>
						<out>7593</out>
						<pproTicksIn>59075400384000</pproTicksIn>
						<pproTicksOut>64355741049600</pproTicksOut>
						<alphatype>none</alphatype>
						<file id="file-2"/>
						<logginginfo>
							<description></description>
							<scene></scene>
							<shottake></shottake>
							<lognote></lognote>
							<good></good>
							<originalvideofilename></originalvideofilename>
							<originalaudiofilename></originalaudiofilename>
						</logginginfo>
						<colorinfo>
							<lut></lut>
							<lut1></lut1>
							<asc_sop></asc_sop>
							<asc_sat></asc_sat>
							<lut2></lut2>
						</colorinfo>
						<labels>
							<label2>Iris</label2>
						</labels>
					</clipitem>
					<clipitem id="clipitem-118">
						<masterclipid>masterclip-2</masterclipid>
						<name>VT1.0001.mpg</name>
						<enabled>TRUE</enabled>
						<duration>19497</duration>
						<rate>
							<timebase>30</timebase>
							<ntsc>TRUE</ntsc>
						</rate>
						<start>7593</start>
						<end>7639</end>
						<in>7593</in>
						<out>7639</out>
						<pproTicksIn>64355741049600</pproTicksIn>
						<pproTicksOut>64745621740800</pproTicksOut>
						<alphatype>none</alphatype>
						<file id="file-2"/>
						<logginginfo>
							<description></description>
							<scene></scene>
							<shottake></shottake>
							<lognote></lognote>
							<good></good>
							<originalvideofilename></originalvideofilename>
							<originalaudiofilename></originalaudiofilename>
						</logginginfo>
						<colorinfo>
							<lut></lut>
							<lut1></lut1>
							<asc_sop></asc_sop>
							<asc_sat></asc_sat>
							<lut2></lut2>
						</colorinfo>
						<labels>
							<label2>Iris</label2>
						</labels>
					</clipitem>
					<clipitem id="clipitem-119">
						<masterclipid>masterclip-2</masterclipid>
						<name>VT1.0001.mpg</name>
						<enabled>TRUE</enabled>
						<duration>19497</duration>
						<rate>
							<timebase>30</timebase>
							<ntsc>TRUE</ntsc>
						</rate>
						<start>7736</start>
						<end>7754</end>
						<in>7736</in>
						<out>7754</out>
						<pproTicksIn>65567761459200</pproTicksIn>
						<pproTicksOut>65720323468800</pproTicksOut>
						<alphatype>none</alphatype>
						<file id="file-2"/>
						<logginginfo>
							<description></description>
							<scene></scene>
							<shottake></shottake>
							<lognote></lognote>
							<good></good>
							<originalvideofilename></originalvideofilename>
							<originalaudiofilename></originalaudiofilename>
						</logginginfo>
						<colorinfo>
							<lut></lut>
							<lut1></lut1>
							<asc_sop></asc_sop>
							<asc_sat></asc_sat>
							<lut2></lut2>
						</colorinfo>
						<labels>
							<label2>Iris</label2>
						</labels>
					</clipitem>
					<clipitem id="clipitem-120">
						<masterclipid>masterclip-2</masterclipid>
						<name>VT1.0001.mpg</name>
						<enabled>TRUE</enabled>
						<duration>19497</duration>
						<rate>
							<timebase>30</timebase>
							<ntsc>TRUE</ntsc>
						</rate>
						<start>7815</start>
						<end>8059</end>
						<in>7815</in>
						<out>8059</out>
						<pproTicksIn>66237339168000</pproTicksIn>
						<pproTicksOut>68305401964800</pproTicksOut>
						<alphatype>none</alphatype>
						<file id="file-2"/>
						<logginginfo>
							<description></description>
							<scene></scene>
							<shottake></shottake>
							<lognote></lognote>
							<good></good>
							<originalvideofilename></originalvideofilename>
							<originalaudiofilename></originalaudiofilename>
						</logginginfo>
						<colorinfo>
							<lut></lut>
							<lut1></lut1>
							<asc_sop></asc_sop>
							<asc_sat></asc_sat>
							<lut2></lut2>
						</colorinfo>
						<labels>
							<label2>Iris</label2>
						</labels>
					</clipitem>
					<clipitem id="clipitem-121">
						<masterclipid>masterclip-2</masterclipid>
						<name>VT1.0001.mpg</name>
						<enabled>TRUE</enabled>
						<duration>19497</duration>
						<rate>
							<timebase>30</timebase>
							<ntsc>TRUE</ntsc>
						</rate>
						<start>8059</start>
						<end>8088</end>
						<in>8059</in>
						<out>8088</out>
						<pproTicksIn>68305401964800</pproTicksIn>
						<pproTicksOut>68551196313600</pproTicksOut>
						<alphatype>none</alphatype>
						<file id="file-2"/>
						<logginginfo>
							<description></description>
							<scene></scene>
							<shottake></shottake>
							<lognote></lognote>
							<good></good>
							<originalvideofilename></originalvideofilename>
							<originalaudiofilename></originalaudiofilename>
						</logginginfo>
						<colorinfo>
							<lut></lut>
							<lut1></lut1>
							<asc_sop></asc_sop>
							<asc_sat></asc_sat>
							<lut2></lut2>
						</colorinfo>
						<labels>
							<label2>Iris</label2>
						</labels>
					</clipitem>
					<clipitem id="clipitem-122">
						<masterclipid>masterclip-2</masterclipid>
						<name>VT1.0001.mpg</name>
						<enabled>TRUE</enabled>
						<duration>19497</duration>
						<rate>
							<timebase>30</timebase>
							<ntsc>TRUE</ntsc>
						</rate>
						<start>8097</start>
						<end>9284</end>
						<in>8097</in>
						<out>9284</out>
						<pproTicksIn>68627477318400</pproTicksIn>
						<pproTicksOut>78688094284800</pproTicksOut>
						<alphatype>none</alphatype>
						<file id="file-2"/>
						<logginginfo>
							<description></description>
							<scene></scene>
							<shottake></shottake>
							<lognote></lognote>
							<good></good>
							<originalvideofilename></originalvideofilename>
							<originalaudiofilename></originalaudiofilename>
						</logginginfo>
						<colorinfo>
							<lut></lut>
							<lut1></lut1>
							<asc_sop></asc_sop>
							<asc_sat></asc_sat>
							<lut2></lut2>
						</colorinfo>
						<labels>
							<label2>Iris</label2>
						</labels>
					</clipitem>
					<clipitem id="clipitem-123">
						<masterclipid>masterclip-2</masterclipid>
						<name>VT1.0001.mpg</name>
						<enabled>TRUE</enabled>
						<duration>19497</duration>
						<rate>
							<timebase>30</timebase>
							<ntsc>TRUE</ntsc>
						</rate>
						<start>9284</start>
						<end>9306</end>
						<in>9284</in>
						<out>9306</out>
						<pproTicksIn>78688094284800</pproTicksIn>
						<pproTicksOut>78874558963200</pproTicksOut>
						<alphatype>none</alphatype>
						<file id="file-2"/>
						<logginginfo>
							<description></description>
							<scene></scene>
							<shottake></shottake>
							<lognote></lognote>
							<good></good>
							<originalvideofilename></originalvideofilename>
							<originalaudiofilename></originalaudiofilename>
						</logginginfo>
						<colorinfo>
							<lut></lut>
							<lut1></lut1>
							<asc_sop></asc_sop>
							<asc_sat></asc_sat>
							<lut2></lut2>
						</colorinfo>
						<labels>
							<label2>Iris</label2>
						</labels>
					</clipitem>
					<clipitem id="clipitem-124">
						<masterclipid>masterclip-2</masterclipid>
						<name>VT1.0001.mpg</name>
						<enabled>TRUE</enabled>
						<duration>19497</duration>
						<rate>
							<timebase>30</timebase>
							<ntsc>TRUE</ntsc>
						</rate>
						<start>9379</start>
						<end>9468</end>
						<in>9379</in>
						<out>9468</out>
						<pproTicksIn>79493282668800</pproTicksIn>
						<pproTicksOut>80247617049600</pproTicksOut>
						<alphatype>none</alphatype>
						<file id="file-2"/>
						<logginginfo>
							<description></description>
							<scene></scene>
							<shottake></shottake>
							<lognote></lognote>
							<good></good>
							<originalvideofilename></originalvideofilename>
							<originalaudiofilename></originalaudiofilename>
						</logginginfo>
						<colorinfo>
							<lut></lut>
							<lut1></lut1>
							<asc_sop></asc_sop>
							<asc_sat></asc_sat>
							<lut2></lut2>
						</colorinfo>
						<labels>
							<label2>Iris</label2>
						</labels>
					</clipitem>
					<clipitem id="clipitem-125">
						<masterclipid>masterclip-2</masterclipid>
						<name>VT1.0001.mpg</name>
						<enabled>TRUE</enabled>
						<duration>19497</duration>
						<rate>
							<timebase>30</timebase>
							<ntsc>TRUE</ntsc>
						</rate>
						<start>9468</start>
						<end>9470</end>
						<in>9468</in>
						<out>9470</out>
						<pproTicksIn>80247617049600</pproTicksIn>
						<pproTicksOut>80264568384000</pproTicksOut>
						<alphatype>none</alphatype>
						<file id="file-2"/>
						<logginginfo>
							<description></description>
							<scene></scene>
							<shottake></shottake>
							<lognote></lognote>
							<good></good>
							<originalvideofilename></originalvideofilename>
							<originalaudiofilename></originalaudiofilename>
						</logginginfo>
						<colorinfo>
							<lut></lut>
							<lut1></lut1>
							<asc_sop></asc_sop>
							<asc_sat></asc_sat>
							<lut2></lut2>
						</colorinfo>
						<labels>
							<label2>Iris</label2>
						</labels>
					</clipitem>
					<clipitem id="clipitem-126">
						<masterclipid>masterclip-2</masterclipid>
						<name>VT1.0001.mpg</name>
						<enabled>TRUE</enabled>
						<duration>19497</duration>
						<rate>
							<timebase>30</timebase>
							<ntsc>TRUE</ntsc>
						</rate>
						<start>9528</start>
						<end>9692</end>
						<in>9528</in>
						<out>9692</out>
						<pproTicksIn>80756157081600</pproTicksIn>
						<pproTicksOut>82146166502400</pproTicksOut>
						<alphatype>none</alphatype>
						<file id="file-2"/>
						<logginginfo>
							<description></description>
							<scene></scene>
							<shottake></shottake>
							<lognote></lognote>
							<good></good>
							<originalvideofilename></originalvideofilename>
							<originalaudiofilename></originalaudiofilename>
						</logginginfo>
						<colorinfo>
							<lut></lut>
							<lut1></lut1>
							<asc_sop></asc_sop>
							<asc_sat></asc_sat>
							<lut2></lut2>
						</colorinfo>
						<labels>
							<label2>Iris</label2>
						</labels>
					</clipitem>
					<clipitem id="clipitem-127">
						<masterclipid>masterclip-2</masterclipid>
						<name>VT1.0001.mpg</name>
						<enabled>TRUE</enabled>
						<duration>19497</duration>
						<rate>
							<timebase>30</timebase>
							<ntsc>TRUE</ntsc>
						</rate>
						<start>9692</start>
						<end>9714</end>
						<in>9692</in>
						<out>9714</out>
						<pproTicksIn>82146166502400</pproTicksIn>
						<pproTicksOut>82332631180800</pproTicksOut>
						<alphatype>none</alphatype>
						<file id="file-2"/>
						<logginginfo>
							<description></description>
							<scene></scene>
							<shottake></shottake>
							<lognote></lognote>
							<good></good>
							<originalvideofilename></originalvideofilename>
							<originalaudiofilename></originalaudiofilename>
						</logginginfo>
						<colorinfo>
							<lut></lut>
							<lut1></lut1>
							<asc_sop></asc_sop>
							<asc_sat></asc_sat>
							<lut2></lut2>
						</colorinfo>
						<labels>
							<label2>Iris</label2>
						</labels>
					</clipitem>
					<clipitem id="clipitem-128">
						<masterclipid>masterclip-2</masterclipid>
						<name>VT1.0001.mpg</name>
						<enabled>TRUE</enabled>
						<duration>19497</duration>
						<rate>
							<timebase>30</timebase>
							<ntsc>TRUE</ntsc>
						</rate>
						<start>9770</start>
						<end>10007</end>
						<in>9770</in>
						<out>10007</out>
						<pproTicksIn>82807268544000</pproTicksIn>
						<pproTicksOut>84816001670400</pproTicksOut>
						<alphatype>none</alphatype>
						<file id="file-2"/>
						<logginginfo>
							<description></description>
							<scene></scene>
							<shottake></shottake>
							<lognote></lognote>
							<good></good>
							<originalvideofilename></originalvideofilename>
							<originalaudiofilename></originalaudiofilename>
						</logginginfo>
						<colorinfo>
							<lut></lut>
							<lut1></lut1>
							<asc_sop></asc_sop>
							<asc_sat></asc_sat>
							<lut2></lut2>
						</colorinfo>
						<labels>
							<label2>Iris</label2>
						</labels>
					</clipitem>
					<clipitem id="clipitem-129">
						<masterclipid>masterclip-2</masterclipid>
						<name>VT1.0001.mpg</name>
						<enabled>TRUE</enabled>
						<duration>19497</duration>
						<rate>
							<timebase>30</timebase>
							<ntsc>TRUE</ntsc>
						</rate>
						<start>10042</start>
						<end>10533</end>
						<in>10042</in>
						<out>10533</out>
						<pproTicksIn>85112650022400</pproTicksIn>
						<pproTicksOut>89274202617600</pproTicksOut>
						<alphatype>none</alphatype>
						<file id="file-2"/>
						<logginginfo>
							<description></description>
							<scene></scene>
							<shottake></shottake>
							<lognote></lognote>
							<good></good>
							<originalvideofilename></originalvideofilename>
							<originalaudiofilename></originalaudiofilename>
						</logginginfo>
						<colorinfo>
							<lut></lut>
							<lut1></lut1>
							<asc_sop></asc_sop>
							<asc_sat></asc_sat>
							<lut2></lut2>
						</colorinfo>
						<labels>
							<label2>Iris</label2>
						</labels>
					</clipitem>
					<clipitem id="clipitem-130">
						<masterclipid>masterclip-2</masterclipid>
						<name>VT1.0001.mpg</name>
						<enabled>TRUE</enabled>
						<duration>19497</duration>
						<rate>
							<timebase>30</timebase>
							<ntsc>TRUE</ntsc>
						</rate>
						<start>10559</start>
						<end>11417</end>
						<in>10559</in>
						<out>11417</out>
						<pproTicksIn>89494569964800</pproTicksIn>
						<pproTicksOut>96766692422400</pproTicksOut>
						<alphatype>none</alphatype>
						<file id="file-2"/>
						<logginginfo>
							<description></description>
							<scene></scene>
							<shottake></shottake>
							<lognote></lognote>
							<good></good>
							<originalvideofilename></originalvideofilename>
							<originalaudiofilename></originalaudiofilename>
						</logginginfo>
						<colorinfo>
							<lut></lut>
							<lut1></lut1>
							<asc_sop></asc_sop>
							<asc_sat></asc_sat>
							<lut2></lut2>
						</colorinfo>
						<labels>
							<label2>Iris</label2>
						</labels>
					</clipitem>
					<clipitem id="clipitem-131">
						<masterclipid>masterclip-2</masterclipid>
						<name>VT1.0001.mpg</name>
						<enabled>TRUE</enabled>
						<duration>19497</duration>
						<rate>
							<timebase>30</timebase>
							<ntsc>TRUE</ntsc>
						</rate>
						<start>11417</start>
						<end>11453</end>
						<in>11417</in>
						<out>11453</out>
						<pproTicksIn>96766692422400</pproTicksIn>
						<pproTicksOut>97071816441600</pproTicksOut>
						<alphatype>none</alphatype>
						<file id="file-2"/>
						<logginginfo>
							<description></description>
							<scene></scene>
							<shottake></shottake>
							<lognote></lognote>
							<good></good>
							<originalvideofilename></originalvideofilename>
							<originalaudiofilename></originalaudiofilename>
						</logginginfo>
						<colorinfo>
							<lut></lut>
							<lut1></lut1>
							<asc_sop></asc_sop>
							<asc_sat></asc_sat>
							<lut2></lut2>
						</colorinfo>
						<labels>
							<label2>Iris</label2>
						</labels>
					</clipitem>
					<clipitem id="clipitem-132">
						<masterclipid>masterclip-2</masterclipid>
						<name>VT1.0001.mpg</name>
						<enabled>TRUE</enabled>
						<duration>19497</duration>
						<rate>
							<timebase>30</timebase>
							<ntsc>TRUE</ntsc>
						</rate>
						<start>11465</start>
						<end>11734</end>
						<in>11465</in>
						<out>11734</out>
						<pproTicksIn>97173524448000</pproTicksIn>
						<pproTicksOut>99453478924800</pproTicksOut>
						<alphatype>none</alphatype>
						<file id="file-2"/>
						<logginginfo>
							<description></description>
							<scene></scene>
							<shottake></shottake>
							<lognote></lognote>
							<good></good>
							<originalvideofilename></originalvideofilename>
							<originalaudiofilename></originalaudiofilename>
						</logginginfo>
						<colorinfo>
							<lut></lut>
							<lut1></lut1>
							<asc_sop></asc_sop>
							<asc_sat></asc_sat>
							<lut2></lut2>
						</colorinfo>
						<labels>
							<label2>Iris</label2>
						</labels>
					</clipitem>
					<clipitem id="clipitem-133">
						<masterclipid>masterclip-2</masterclipid>
						<name>VT1.0001.mpg</name>
						<enabled>TRUE</enabled>
						<duration>19497</duration>
						<rate>
							<timebase>30</timebase>
							<ntsc>TRUE</ntsc>
						</rate>
						<start>11734</start>
						<end>11757</end>
						<in>11734</in>
						<out>11757</out>
						<pproTicksIn>99453478924800</pproTicksIn>
						<pproTicksOut>99648419270400</pproTicksOut>
						<alphatype>none</alphatype>
						<file id="file-2"/>
						<logginginfo>
							<description></description>
							<scene></scene>
							<shottake></shottake>
							<lognote></lognote>
							<good></good>
							<originalvideofilename></originalvideofilename>
							<originalaudiofilename></originalaudiofilename>
						</logginginfo>
						<colorinfo>
							<lut></lut>
							<lut1></lut1>
							<asc_sop></asc_sop>
							<asc_sat></asc_sat>
							<lut2></lut2>
						</colorinfo>
						<labels>
							<label2>Iris</label2>
						</labels>
					</clipitem>
					<clipitem id="clipitem-134">
						<masterclipid>masterclip-2</masterclipid>
						<name>VT1.0001.mpg</name>
						<enabled>TRUE</enabled>
						<duration>19497</duration>
						<rate>
							<timebase>30</timebase>
							<ntsc>TRUE</ntsc>
						</rate>
						<start>11773</start>
						<end>11930</end>
						<in>11773</in>
						<out>11930</out>
						<pproTicksIn>99784029945600</pproTicksIn>
						<pproTicksOut>101114709696000</pproTicksOut>
						<alphatype>none</alphatype>
						<file id="file-2"/>
						<logginginfo>
							<description></description>
							<scene></scene>
							<shottake></shottake>
							<lognote></lognote>
							<good></good>
							<originalvideofilename></originalvideofilename>
							<originalaudiofilename></originalaudiofilename>
						</logginginfo>
						<colorinfo>
							<lut></lut>
							<lut1></lut1>
							<asc_sop></asc_sop>
							<asc_sat></asc_sat>
							<lut2></lut2>
						</colorinfo>
						<labels>
							<label2>Iris</label2>
						</labels>
					</clipitem>
					<clipitem id="clipitem-135">
						<masterclipid>masterclip-2</masterclipid>
						<name>VT1.0001.mpg</name>
						<enabled>TRUE</enabled>
						<duration>19497</duration>
						<rate>
							<timebase>30</timebase>
							<ntsc>TRUE</ntsc>
						</rate>
						<start>11949</start>
						<end>12331</end>
						<in>11949</in>
						<out>12331</out>
						<pproTicksIn>101275747372800</pproTicksIn>
						<pproTicksOut>104513452243200</pproTicksOut>
						<alphatype>none</alphatype>
						<file id="file-2"/>
						<logginginfo>
							<description></description>
							<scene></scene>
							<shottake></shottake>
							<lognote></lognote>
							<good></good>
							<originalvideofilename></originalvideofilename>
							<originalaudiofilename></originalaudiofilename>
						</logginginfo>
						<colorinfo>
							<lut></lut>
							<lut1></lut1>
							<asc_sop></asc_sop>
							<asc_sat></asc_sat>
							<lut2></lut2>
						</colorinfo>
						<labels>
							<label2>Iris</label2>
						</labels>
					</clipitem>
					<clipitem id="clipitem-136">
						<masterclipid>masterclip-2</masterclipid>
						<name>VT1.0001.mpg</name>
						<enabled>TRUE</enabled>
						<duration>19497</duration>
						<rate>
							<timebase>30</timebase>
							<ntsc>TRUE</ntsc>
						</rate>
						<start>12331</start>
						<end>12350</end>
						<in>12331</in>
						<out>12350</out>
						<pproTicksIn>104513452243200</pproTicksIn>
						<pproTicksOut>104674489920000</pproTicksOut>
						<alphatype>none</alphatype>
						<file id="file-2"/>
						<logginginfo>
							<description></description>
							<scene></scene>
							<shottake></shottake>
							<lognote></lognote>
							<good></good>
							<originalvideofilename></originalvideofilename>
							<originalaudiofilename></originalaudiofilename>
						</logginginfo>
						<colorinfo>
							<lut></lut>
							<lut1></lut1>
							<asc_sop></asc_sop>
							<asc_sat></asc_sat>
							<lut2></lut2>
						</colorinfo>
						<labels>
							<label2>Iris</label2>
						</labels>
					</clipitem>
					<clipitem id="clipitem-137">
						<masterclipid>masterclip-2</masterclipid>
						<name>VT1.0001.mpg</name>
						<enabled>TRUE</enabled>
						<duration>19497</duration>
						<rate>
							<timebase>30</timebase>
							<ntsc>TRUE</ntsc>
						</rate>
						<start>12383</start>
						<end>12428</end>
						<in>12383</in>
						<out>12428</out>
						<pproTicksIn>104954186937600</pproTicksIn>
						<pproTicksOut>105335591961600</pproTicksOut>
						<alphatype>none</alphatype>
						<file id="file-2"/>
						<logginginfo>
							<description></description>
							<scene></scene>
							<shottake></shottake>
							<lognote></lognote>
							<good></good>
							<originalvideofilename></originalvideofilename>
							<originalaudiofilename></originalaudiofilename>
						</logginginfo>
						<colorinfo>
							<lut></lut>
							<lut1></lut1>
							<asc_sop></asc_sop>
							<asc_sat></asc_sat>
							<lut2></lut2>
						</colorinfo>
						<labels>
							<label2>Iris</label2>
						</labels>
					</clipitem>
					<clipitem id="clipitem-138">
						<masterclipid>masterclip-2</masterclipid>
						<name>VT1.0001.mpg</name>
						<enabled>TRUE</enabled>
						<duration>19497</duration>
						<rate>
							<timebase>30</timebase>
							<ntsc>TRUE</ntsc>
						</rate>
						<start>12428</start>
						<end>12440</end>
						<in>12428</in>
						<out>12440</out>
						<pproTicksIn>105335591961600</pproTicksIn>
						<pproTicksOut>105437299968000</pproTicksOut>
						<alphatype>none</alphatype>
						<file id="file-2"/>
						<logginginfo>
							<description></description>
							<scene></scene>
							<shottake></shottake>
							<lognote></lognote>
							<good></good>
							<originalvideofilename></originalvideofilename>
							<originalaudiofilename></originalaudiofilename>
						</logginginfo>
						<colorinfo>
							<lut></lut>
							<lut1></lut1>
							<asc_sop></asc_sop>
							<asc_sat></asc_sat>
							<lut2></lut2>
						</colorinfo>
						<labels>
							<label2>Iris</label2>
						</labels>
					</clipitem>
					<clipitem id="clipitem-139">
						<masterclipid>masterclip-2</masterclipid>
						<name>VT1.0001.mpg</name>
						<enabled>TRUE</enabled>
						<duration>19497</duration>
						<rate>
							<timebase>30</timebase>
							<ntsc>TRUE</ntsc>
						</rate>
						<start>12451</start>
						<end>14097</end>
						<in>12451</in>
						<out>14097</out>
						<pproTicksIn>105530532307200</pproTicksIn>
						<pproTicksOut>119481480518400</pproTicksOut>
						<alphatype>none</alphatype>
						<file id="file-2"/>
						<logginginfo>
							<description></description>
							<scene></scene>
							<shottake></shottake>
							<lognote></lognote>
							<good></good>
							<originalvideofilename></originalvideofilename>
							<originalaudiofilename></originalaudiofilename>
						</logginginfo>
						<colorinfo>
							<lut></lut>
							<lut1></lut1>
							<asc_sop></asc_sop>
							<asc_sat></asc_sat>
							<lut2></lut2>
						</colorinfo>
						<labels>
							<label2>Iris</label2>
						</labels>
					</clipitem>
					<clipitem id="clipitem-140">
						<masterclipid>masterclip-2</masterclipid>
						<name>VT1.0001.mpg</name>
						<enabled>TRUE</enabled>
						<duration>19497</duration>
						<rate>
							<timebase>30</timebase>
							<ntsc>TRUE</ntsc>
						</rate>
						<start>14097</start>
						<end>14111</end>
						<in>14097</in>
						<out>14111</out>
						<pproTicksIn>119481480518400</pproTicksIn>
						<pproTicksOut>119600139859200</pproTicksOut>
						<alphatype>none</alphatype>
						<file id="file-2"/>
						<logginginfo>
							<description></description>
							<scene></scene>
							<shottake></shottake>
							<lognote></lognote>
							<good></good>
							<originalvideofilename></originalvideofilename>
							<originalaudiofilename></originalaudiofilename>
						</logginginfo>
						<colorinfo>
							<lut></lut>
							<lut1></lut1>
							<asc_sop></asc_sop>
							<asc_sat></asc_sat>
							<lut2></lut2>
						</colorinfo>
						<labels>
							<label2>Iris</label2>
						</labels>
					</clipitem>
					<clipitem id="clipitem-141">
						<masterclipid>masterclip-2</masterclipid>
						<name>VT1.0001.mpg</name>
						<enabled>TRUE</enabled>
						<duration>19497</duration>
						<rate>
							<timebase>30</timebase>
							<ntsc>TRUE</ntsc>
						</rate>
						<start>14180</start>
						<end>14330</end>
						<in>14180</in>
						<out>14330</out>
						<pproTicksIn>120184960896000</pproTicksIn>
						<pproTicksOut>121456310976000</pproTicksOut>
						<alphatype>none</alphatype>
						<file id="file-2"/>
						<logginginfo>
							<description></description>
							<scene></scene>
							<shottake></shottake>
							<lognote></lognote>
							<good></good>
							<originalvideofilename></originalvideofilename>
							<originalaudiofilename></originalaudiofilename>
						</logginginfo>
						<colorinfo>
							<lut></lut>
							<lut1></lut1>
							<asc_sop></asc_sop>
							<asc_sat></asc_sat>
							<lut2></lut2>
						</colorinfo>
						<labels>
							<label2>Iris</label2>
						</labels>
					</clipitem>
					<clipitem id="clipitem-142">
						<masterclipid>masterclip-2</masterclipid>
						<name>VT1.0001.mpg</name>
						<enabled>TRUE</enabled>
						<duration>19497</duration>
						<rate>
							<timebase>30</timebase>
							<ntsc>TRUE</ntsc>
						</rate>
						<start>14330</start>
						<end>14340</end>
						<in>14330</in>
						<out>14340</out>
						<pproTicksIn>121456310976000</pproTicksIn>
						<pproTicksOut>121541067648000</pproTicksOut>
						<alphatype>none</alphatype>
						<file id="file-2"/>
						<logginginfo>
							<description></description>
							<scene></scene>
							<shottake></shottake>
							<lognote></lognote>
							<good></good>
							<originalvideofilename></originalvideofilename>
							<originalaudiofilename></originalaudiofilename>
						</logginginfo>
						<colorinfo>
							<lut></lut>
							<lut1></lut1>
							<asc_sop></asc_sop>
							<asc_sat></asc_sat>
							<lut2></lut2>
						</colorinfo>
						<labels>
							<label2>Iris</label2>
						</labels>
					</clipitem>
					<clipitem id="clipitem-143">
						<masterclipid>masterclip-2</masterclipid>
						<name>VT1.0001.mpg</name>
						<enabled>TRUE</enabled>
						<duration>19497</duration>
						<rate>
							<timebase>30</timebase>
							<ntsc>TRUE</ntsc>
						</rate>
						<start>14356</start>
						<end>14461</end>
						<in>14356</in>
						<out>14461</out>
						<pproTicksIn>121676678323200</pproTicksIn>
						<pproTicksOut>122566623379200</pproTicksOut>
						<alphatype>none</alphatype>
						<file id="file-2"/>
						<logginginfo>
							<description></description>
							<scene></scene>
							<shottake></shottake>
							<lognote></lognote>
							<good></good>
							<originalvideofilename></originalvideofilename>
							<originalaudiofilename></originalaudiofilename>
						</logginginfo>
						<colorinfo>
							<lut></lut>
							<lut1></lut1>
							<asc_sop></asc_sop>
							<asc_sat></asc_sat>
							<lut2></lut2>
						</colorinfo>
						<labels>
							<label2>Iris</label2>
						</labels>
					</clipitem>
					<clipitem id="clipitem-144">
						<masterclipid>masterclip-2</masterclipid>
						<name>VT1.0001.mpg</name>
						<enabled>TRUE</enabled>
						<duration>19497</duration>
						<rate>
							<timebase>30</timebase>
							<ntsc>TRUE</ntsc>
						</rate>
						<start>14491</start>
						<end>17983</end>
						<in>14491</in>
						<out>17983</out>
						<pproTicksIn>122820893395200</pproTicksIn>
						<pproTicksOut>152417923257600</pproTicksOut>
						<alphatype>none</alphatype>
						<file id="file-2"/>
						<logginginfo>
							<description></description>
							<scene></scene>
							<shottake></shottake>
							<lognote></lognote>
							<good></good>
							<originalvideofilename></originalvideofilename>
							<originalaudiofilename></originalaudiofilename>
						</logginginfo>
						<colorinfo>
							<lut></lut>
							<lut1></lut1>
							<asc_sop></asc_sop>
							<asc_sat></asc_sat>
							<lut2></lut2>
						</colorinfo>
						<labels>
							<label2>Iris</label2>
						</labels>
					</clipitem>
					<enabled>TRUE</enabled>
					<locked>FALSE</locked>
				</track>
				<track TL.SQTrackShy="0" TL.SQTrackExpandedHeight="25" TL.SQTrackExpanded="0" MZ.TrackTargeted="0">
					<clipitem id="clipitem-145">
						<masterclipid>masterclip-2</masterclipid>
						<name>VT1.0001.mpg</name>
						<enabled>TRUE</enabled>
						<duration>19497</duration>
						<rate>
							<timebase>30</timebase>
							<ntsc>TRUE</ntsc>
						</rate>
						<start>883</start>
						<end>908</end>
						<in>883</in>
						<out>908</out>
						<pproTicksIn>7484014137600</pproTicksIn>
						<pproTicksOut>7695905817600</pproTicksOut>
						<alphatype>none</alphatype>
						<file id="file-2"/>
						<logginginfo>
							<description></description>
							<scene></scene>
							<shottake></shottake>
							<lognote></lognote>
							<good></good>
							<originalvideofilename></originalvideofilename>
							<originalaudiofilename></originalaudiofilename>
						</logginginfo>
						<colorinfo>
							<lut></lut>
							<lut1></lut1>
							<asc_sop></asc_sop>
							<asc_sat></asc_sat>
							<lut2></lut2>
						</colorinfo>
						<labels>
							<label2>Iris</label2>
						</labels>
					</clipitem>
					<clipitem id="clipitem-146">
						<masterclipid>masterclip-2</masterclipid>
						<name>VT1.0001.mpg</name>
						<enabled>TRUE</enabled>
						<duration>19497</duration>
						<rate>
							<timebase>30</timebase>
							<ntsc>TRUE</ntsc>
						</rate>
						<start>1423</start>
						<end>1441</end>
						<in>1423</in>
						<out>1441</out>
						<pproTicksIn>12060874425600</pproTicksIn>
						<pproTicksOut>12213436435200</pproTicksOut>
						<alphatype>none</alphatype>
						<file id="file-2"/>
						<logginginfo>
							<description></description>
							<scene></scene>
							<shottake></shottake>
							<lognote></lognote>
							<good></good>
							<originalvideofilename></originalvideofilename>
							<originalaudiofilename></originalaudiofilename>
						</logginginfo>
						<colorinfo>
							<lut></lut>
							<lut1></lut1>
							<asc_sop></asc_sop>
							<asc_sat></asc_sat>
							<lut2></lut2>
						</colorinfo>
						<labels>
							<label2>Iris</label2>
						</labels>
					</clipitem>
					<clipitem id="clipitem-147">
						<masterclipid>masterclip-2</masterclipid>
						<name>VT1.0001.mpg</name>
						<enabled>TRUE</enabled>
						<duration>19497</duration>
						<rate>
							<timebase>30</timebase>
							<ntsc>TRUE</ntsc>
						</rate>
						<start>2257</start>
						<end>2266</end>
						<in>2257</in>
						<out>2266</out>
						<pproTicksIn>19129580870400</pproTicksIn>
						<pproTicksOut>19205861875200</pproTicksOut>
						<alphatype>none</alphatype>
						<file id="file-2"/>
						<logginginfo>
							<description></description>
							<scene></scene>
							<shottake></shottake>
							<lognote></lognote>
							<good></good>
							<originalvideofilename></originalvideofilename>
							<originalaudiofilename></originalaudiofilename>
						</logginginfo>
						<colorinfo>
							<lut></lut>
							<lut1></lut1>
							<asc_sop></asc_sop>
							<asc_sat></asc_sat>
							<lut2></lut2>
						</colorinfo>
						<labels>
							<label2>Iris</label2>
						</labels>
					</clipitem>
					<clipitem id="clipitem-148">
						<masterclipid>masterclip-2</masterclipid>
						<name>VT1.0001.mpg</name>
						<enabled>TRUE</enabled>
						<duration>19497</duration>
						<rate>
							<timebase>30</timebase>
							<ntsc>TRUE</ntsc>
						</rate>
						<start>2360</start>
						<end>2372</end>
						<in>2360</in>
						<out>2372</out>
						<pproTicksIn>20002574592000</pproTicksIn>
						<pproTicksOut>20104282598400</pproTicksOut>
						<alphatype>none</alphatype>
						<file id="file-2"/>
						<logginginfo>
							<description></description>
							<scene></scene>
							<shottake></shottake>
							<lognote></lognote>
							<good></good>
							<originalvideofilename></originalvideofilename>
							<originalaudiofilename></originalaudiofilename>
						</logginginfo>
						<colorinfo>
							<lut></lut>
							<lut1></lut1>
							<asc_sop></asc_sop>
							<asc_sat></asc_sat>
							<lut2></lut2>
						</colorinfo>
						<labels>
							<label2>Iris</label2>
						</labels>
					</clipitem>
					<clipitem id="clipitem-149">
						<masterclipid>masterclip-2</masterclipid>
						<name>VT1.0001.mpg</name>
						<enabled>TRUE</enabled>
						<duration>19497</duration>
						<rate>
							<timebase>30</timebase>
							<ntsc>TRUE</ntsc>
						</rate>
						<start>2597</start>
						<end>2608</end>
						<in>2597</in>
						<out>2608</out>
						<pproTicksIn>22011307718400</pproTicksIn>
						<pproTicksOut>22104540057600</pproTicksOut>
						<alphatype>none</alphatype>
						<file id="file-2"/>
						<logginginfo>
							<description></description>
							<scene></scene>
							<shottake></shottake>
							<lognote></lognote>
							<good></good>
							<originalvideofilename></originalvideofilename>
							<originalaudiofilename></originalaudiofilename>
						</logginginfo>
						<colorinfo>
							<lut></lut>
							<lut1></lut1>
							<asc_sop></asc_sop>
							<asc_sat></asc_sat>
							<lut2></lut2>
						</colorinfo>
						<labels>
							<label2>Iris</label2>
						</labels>
					</clipitem>
					<clipitem id="clipitem-150">
						<masterclipid>masterclip-2</masterclipid>
						<name>VT1.0001.mpg</name>
						<enabled>TRUE</enabled>
						<duration>19497</duration>
						<rate>
							<timebase>30</timebase>
							<ntsc>TRUE</ntsc>
						</rate>
						<start>4356</start>
						<end>4380</end>
						<in>4356</in>
						<out>4380</out>
						<pproTicksIn>36920006323200</pproTicksIn>
						<pproTicksOut>37123422336000</pproTicksOut>
						<alphatype>none</alphatype>
						<file id="file-2"/>
						<logginginfo>
							<description></description>
							<scene></scene>
							<shottake></shottake>
							<lognote></lognote>
							<good></good>
							<originalvideofilename></originalvideofilename>
							<originalaudiofilename></originalaudiofilename>
						</logginginfo>
						<colorinfo>
							<lut></lut>
							<lut1></lut1>
							<asc_sop></asc_sop>
							<asc_sat></asc_sat>
							<lut2></lut2>
						</colorinfo>
						<labels>
							<label2>Iris</label2>
						</labels>
					</clipitem>
					<clipitem id="clipitem-151">
						<masterclipid>masterclip-2</masterclipid>
						<name>VT1.0001.mpg</name>
						<enabled>TRUE</enabled>
						<duration>19497</duration>
						<rate>
							<timebase>30</timebase>
							<ntsc>TRUE</ntsc>
						</rate>
						<start>4390</start>
						<end>4413</end>
						<in>4390</in>
						<out>4413</out>
						<pproTicksIn>37208179008000</pproTicksIn>
						<pproTicksOut>37403119353600</pproTicksOut>
						<alphatype>none</alphatype>
						<file id="file-2"/>
						<logginginfo>
							<description></description>
							<scene></scene>
							<shottake></shottake>
							<lognote></lognote>
							<good></good>
							<originalvideofilename></originalvideofilename>
							<originalaudiofilename></originalaudiofilename>
						</logginginfo>
						<colorinfo>
							<lut></lut>
							<lut1></lut1>
							<asc_sop></asc_sop>
							<asc_sat></asc_sat>
							<lut2></lut2>
						</colorinfo>
						<labels>
							<label2>Iris</label2>
						</labels>
					</clipitem>
					<clipitem id="clipitem-152">
						<masterclipid>masterclip-2</masterclipid>
						<name>VT1.0001.mpg</name>
						<enabled>TRUE</enabled>
						<duration>19497</duration>
						<rate>
							<timebase>30</timebase>
							<ntsc>TRUE</ntsc>
						</rate>
						<start>4413</start>
						<end>4546</end>
						<in>4413</in>
						<out>4546</out>
						<pproTicksIn>37403119353600</pproTicksIn>
						<pproTicksOut>38530383091200</pproTicksOut>
						<alphatype>none</alphatype>
						<file id="file-2"/>
						<logginginfo>
							<description></description>
							<scene></scene>
							<shottake></shottake>
							<lognote></lognote>
							<good></good>
							<originalvideofilename></originalvideofilename>
							<originalaudiofilename></originalaudiofilename>
						</logginginfo>
						<colorinfo>
							<lut></lut>
							<lut1></lut1>
							<asc_sop></asc_sop>
							<asc_sat></asc_sat>
							<lut2></lut2>
						</colorinfo>
						<labels>
							<label2>Iris</label2>
						</labels>
					</clipitem>
					<clipitem id="clipitem-153">
						<masterclipid>masterclip-2</masterclipid>
						<name>VT1.0001.mpg</name>
						<enabled>TRUE</enabled>
						<duration>19497</duration>
						<rate>
							<timebase>30</timebase>
							<ntsc>TRUE</ntsc>
						</rate>
						<start>6084</start>
						<end>6134</end>
						<in>6084</in>
						<out>6134</out>
						<pproTicksIn>51565959244800</pproTicksIn>
						<pproTicksOut>51989742604800</pproTicksOut>
						<alphatype>none</alphatype>
						<file id="file-2"/>
						<logginginfo>
							<description></description>
							<scene></scene>
							<shottake></shottake>
							<lognote></lognote>
							<good></good>
							<originalvideofilename></originalvideofilename>
							<originalaudiofilename></originalaudiofilename>
						</logginginfo>
						<colorinfo>
							<lut></lut>
							<lut1></lut1>
							<asc_sop></asc_sop>
							<asc_sat></asc_sat>
							<lut2></lut2>
						</colorinfo>
						<labels>
							<label2>Iris</label2>
						</labels>
					</clipitem>
					<clipitem id="clipitem-154">
						<masterclipid>masterclip-2</masterclipid>
						<name>VT1.0001.mpg</name>
						<enabled>TRUE</enabled>
						<duration>19497</duration>
						<rate>
							<timebase>30</timebase>
							<ntsc>TRUE</ntsc>
						</rate>
						<start>6727</start>
						<end>6742</end>
						<in>6727</in>
						<out>6742</out>
						<pproTicksIn>57015813254400</pproTicksIn>
						<pproTicksOut>57142948262400</pproTicksOut>
						<alphatype>none</alphatype>
						<file id="file-2"/>
						<logginginfo>
							<description></description>
							<scene></scene>
							<shottake></shottake>
							<lognote></lognote>
							<good></good>
							<originalvideofilename></originalvideofilename>
							<originalaudiofilename></originalaudiofilename>
						</logginginfo>
						<colorinfo>
							<lut></lut>
							<lut1></lut1>
							<asc_sop></asc_sop>
							<asc_sat></asc_sat>
							<lut2></lut2>
						</colorinfo>
						<labels>
							<label2>Iris</label2>
						</labels>
					</clipitem>
					<clipitem id="clipitem-155">
						<masterclipid>masterclip-2</masterclipid>
						<name>VT1.0001.mpg</name>
						<enabled>TRUE</enabled>
						<duration>19497</duration>
						<rate>
							<timebase>30</timebase>
							<ntsc>TRUE</ntsc>
						</rate>
						<start>7639</start>
						<end>7660</end>
						<in>7639</in>
						<out>7660</out>
						<pproTicksIn>64745621740800</pproTicksIn>
						<pproTicksOut>64923610752000</pproTicksOut>
						<alphatype>none</alphatype>
						<file id="file-2"/>
						<logginginfo>
							<description></description>
							<scene></scene>
							<shottake></shottake>
							<lognote></lognote>
							<good></good>
							<originalvideofilename></originalvideofilename>
							<originalaudiofilename></originalaudiofilename>
						</logginginfo>
						<colorinfo>
							<lut></lut>
							<lut1></lut1>
							<asc_sop></asc_sop>
							<asc_sat></asc_sat>
							<lut2></lut2>
						</colorinfo>
						<labels>
							<label2>Iris</label2>
						</labels>
					</clipitem>
					<clipitem id="clipitem-156">
						<masterclipid>masterclip-2</masterclipid>
						<name>VT1.0001.mpg</name>
						<enabled>TRUE</enabled>
						<duration>19497</duration>
						<rate>
							<timebase>30</timebase>
							<ntsc>TRUE</ntsc>
						</rate>
						<start>7754</start>
						<end>7815</end>
						<in>7754</in>
						<out>7815</out>
						<pproTicksIn>65720323468800</pproTicksIn>
						<pproTicksOut>66237339168000</pproTicksOut>
						<alphatype>none</alphatype>
						<file id="file-2"/>
						<logginginfo>
							<description></description>
							<scene></scene>
							<shottake></shottake>
							<lognote></lognote>
							<good></good>
							<originalvideofilename></originalvideofilename>
							<originalaudiofilename></originalaudiofilename>
						</logginginfo>
						<colorinfo>
							<lut></lut>
							<lut1></lut1>
							<asc_sop></asc_sop>
							<asc_sat></asc_sat>
							<lut2></lut2>
						</colorinfo>
						<labels>
							<label2>Iris</label2>
						</labels>
					</clipitem>
					<clipitem id="clipitem-157">
						<masterclipid>masterclip-2</masterclipid>
						<name>VT1.0001.mpg</name>
						<enabled>TRUE</enabled>
						<duration>19497</duration>
						<rate>
							<timebase>30</timebase>
							<ntsc>TRUE</ntsc>
						</rate>
						<start>9714</start>
						<end>9759</end>
						<in>9714</in>
						<out>9759</out>
						<pproTicksIn>82332631180800</pproTicksIn>
						<pproTicksOut>82714036204800</pproTicksOut>
						<alphatype>none</alphatype>
						<file id="file-2"/>
						<logginginfo>
							<description></description>
							<scene></scene>
							<shottake></shottake>
							<lognote></lognote>
							<good></good>
							<originalvideofilename></originalvideofilename>
							<originalaudiofilename></originalaudiofilename>
						</logginginfo>
						<colorinfo>
							<lut></lut>
							<lut1></lut1>
							<asc_sop></asc_sop>
							<asc_sat></asc_sat>
							<lut2></lut2>
						</colorinfo>
						<labels>
							<label2>Iris</label2>
						</labels>
					</clipitem>
					<clipitem id="clipitem-158">
						<masterclipid>masterclip-2</masterclipid>
						<name>VT1.0001.mpg</name>
						<enabled>TRUE</enabled>
						<duration>19497</duration>
						<rate>
							<timebase>30</timebase>
							<ntsc>TRUE</ntsc>
						</rate>
						<start>11930</start>
						<end>11949</end>
						<in>11930</in>
						<out>11949</out>
						<pproTicksIn>101114709696000</pproTicksIn>
						<pproTicksOut>101275747372800</pproTicksOut>
						<alphatype>none</alphatype>
						<file id="file-2"/>
						<logginginfo>
							<description></description>
							<scene></scene>
							<shottake></shottake>
							<lognote></lognote>
							<good></good>
							<originalvideofilename></originalvideofilename>
							<originalaudiofilename></originalaudiofilename>
						</logginginfo>
						<colorinfo>
							<lut></lut>
							<lut1></lut1>
							<asc_sop></asc_sop>
							<asc_sat></asc_sat>
							<lut2></lut2>
						</colorinfo>
						<labels>
							<label2>Iris</label2>
						</labels>
					</clipitem>
					<enabled>TRUE</enabled>
					<locked>FALSE</locked>
				</track>
				<track TL.SQTrackShy="0" TL.SQTrackExpandedHeight="25" TL.SQTrackExpanded="0" MZ.TrackTargeted="0">
					<clipitem id="clipitem-159">
						<masterclipid>masterclip-2</masterclipid>
						<name>VT1.0001.mpg</name>
						<enabled>TRUE</enabled>
						<duration>19497</duration>
						<rate>
							<timebase>30</timebase>
							<ntsc>TRUE</ntsc>
						</rate>
						<start>9487</start>
						<end>9528</end>
						<in>9487</in>
						<out>9528</out>
						<pproTicksIn>80408654726400</pproTicksIn>
						<pproTicksOut>80756157081600</pproTicksOut>
						<alphatype>none</alphatype>
						<file id="file-2"/>
						<logginginfo>
							<description></description>
							<scene></scene>
							<shottake></shottake>
							<lognote></lognote>
							<good></good>
							<originalvideofilename></originalvideofilename>
							<originalaudiofilename></originalaudiofilename>
						</logginginfo>
						<colorinfo>
							<lut></lut>
							<lut1></lut1>
							<asc_sop></asc_sop>
							<asc_sat></asc_sat>
							<lut2></lut2>
						</colorinfo>
						<labels>
							<label2>Iris</label2>
						</labels>
					</clipitem>
					<clipitem id="clipitem-160">
						<masterclipid>masterclip-2</masterclipid>
						<name>VT1.0001.mpg</name>
						<enabled>TRUE</enabled>
						<duration>19497</duration>
						<rate>
							<timebase>30</timebase>
							<ntsc>TRUE</ntsc>
						</rate>
						<start>10033</start>
						<end>10042</end>
						<in>10033</in>
						<out>10042</out>
						<pproTicksIn>85036369017600</pproTicksIn>
						<pproTicksOut>85112650022400</pproTicksOut>
						<alphatype>none</alphatype>
						<file id="file-2"/>
						<logginginfo>
							<description></description>
							<scene></scene>
							<shottake></shottake>
							<lognote></lognote>
							<good></good>
							<originalvideofilename></originalvideofilename>
							<originalaudiofilename></originalaudiofilename>
						</logginginfo>
						<colorinfo>
							<lut></lut>
							<lut1></lut1>
							<asc_sop></asc_sop>
							<asc_sat></asc_sat>
							<lut2></lut2>
						</colorinfo>
						<labels>
							<label2>Iris</label2>
						</labels>
					</clipitem>
					<enabled>TRUE</enabled>
					<locked>FALSE</locked>
				</track>
				<track TL.SQTrackShy="0" TL.SQTrackExpandedHeight="25" TL.SQTrackExpanded="0" MZ.TrackTargeted="0">
					<clipitem id="clipitem-161">
						<masterclipid>masterclip-2</masterclipid>
						<name>VT1.0001.mpg</name>
						<enabled>TRUE</enabled>
						<duration>19497</duration>
						<rate>
							<timebase>30</timebase>
							<ntsc>TRUE</ntsc>
						</rate>
						<start>554</start>
						<end>677</end>
						<in>554</in>
						<out>677</out>
						<pproTicksIn>4695519628800</pproTicksIn>
						<pproTicksOut>5738026694400</pproTicksOut>
						<alphatype>none</alphatype>
						<file id="file-2"/>
						<logginginfo>
							<description></description>
							<scene></scene>
							<shottake></shottake>
							<lognote></lognote>
							<good></good>
							<originalvideofilename></originalvideofilename>
							<originalaudiofilename></originalaudiofilename>
						</logginginfo>
						<colorinfo>
							<lut></lut>
							<lut1></lut1>
							<asc_sop></asc_sop>
							<asc_sat></asc_sat>
							<lut2></lut2>
						</colorinfo>
						<labels>
							<label2>Iris</label2>
						</labels>
					</clipitem>
					<clipitem id="clipitem-162">
						<masterclipid>masterclip-2</masterclipid>
						<name>VT1.0001.mpg</name>
						<enabled>TRUE</enabled>
						<duration>19497</duration>
						<rate>
							<timebase>30</timebase>
							<ntsc>TRUE</ntsc>
						</rate>
						<start>2192</start>
						<end>2257</end>
						<in>2192</in>
						<out>2257</out>
						<pproTicksIn>18578662502400</pproTicksIn>
						<pproTicksOut>19129580870400</pproTicksOut>
						<alphatype>none</alphatype>
						<file id="file-2"/>
						<logginginfo>
							<description></description>
							<scene></scene>
							<shottake></shottake>
							<lognote></lognote>
							<good></good>
							<originalvideofilename></originalvideofilename>
							<originalaudiofilename></originalaudiofilename>
						</logginginfo>
						<colorinfo>
							<lut></lut>
							<lut1></lut1>
							<asc_sop></asc_sop>
							<asc_sat></asc_sat>
							<lut2></lut2>
						</colorinfo>
						<labels>
							<label2>Iris</label2>
						</labels>
					</clipitem>
					<clipitem id="clipitem-163">
						<masterclipid>masterclip-2</masterclipid>
						<name>VT1.0001.mpg</name>
						<enabled>TRUE</enabled>
						<duration>19497</duration>
						<rate>
							<timebase>30</timebase>
							<ntsc>TRUE</ntsc>
						</rate>
						<start>5169</start>
						<end>5237</end>
						<in>5169</in>
						<out>5237</out>
						<pproTicksIn>43810723756800</pproTicksIn>
						<pproTicksOut>44387069126400</pproTicksOut>
						<alphatype>none</alphatype>
						<file id="file-2"/>
						<logginginfo>
							<description></description>
							<scene></scene>
							<shottake></shottake>
							<lognote></lognote>
							<good></good>
							<originalvideofilename></originalvideofilename>
							<originalaudiofilename></originalaudiofilename>
						</logginginfo>
						<colorinfo>
							<lut></lut>
							<lut1></lut1>
							<asc_sop></asc_sop>
							<asc_sat></asc_sat>
							<lut2></lut2>
						</colorinfo>
						<labels>
							<label2>Iris</label2>
						</labels>
					</clipitem>
					<clipitem id="clipitem-164">
						<masterclipid>masterclip-2</masterclipid>
						<name>VT1.0001.mpg</name>
						<enabled>TRUE</enabled>
						<duration>19497</duration>
						<rate>
							<timebase>30</timebase>
							<ntsc>TRUE</ntsc>
						</rate>
						<start>7675</start>
						<end>7736</end>
						<in>7675</in>
						<out>7736</out>
						<pproTicksIn>65050745760000</pproTicksIn>
						<pproTicksOut>65567761459200</pproTicksOut>
						<alphatype>none</alphatype>
						<file id="file-2"/>
						<logginginfo>
							<description></description>
							<scene></scene>
							<shottake></shottake>
							<lognote></lognote>
							<good></good>
							<originalvideofilename></originalvideofilename>
							<originalaudiofilename></originalaudiofilename>
						</logginginfo>
						<colorinfo>
							<lut></lut>
							<lut1></lut1>
							<asc_sop></asc_sop>
							<asc_sat></asc_sat>
							<lut2></lut2>
						</colorinfo>
						<labels>
							<label2>Iris</label2>
						</labels>
					</clipitem>
					<clipitem id="clipitem-165">
						<masterclipid>masterclip-2</masterclipid>
						<name>VT1.0001.mpg</name>
						<enabled>TRUE</enabled>
						<duration>19497</duration>
						<rate>
							<timebase>30</timebase>
							<ntsc>TRUE</ntsc>
						</rate>
						<start>9306</start>
						<end>9379</end>
						<in>9306</in>
						<out>9379</out>
						<pproTicksIn>78874558963200</pproTicksIn>
						<pproTicksOut>79493282668800</pproTicksOut>
						<alphatype>none</alphatype>
						<file id="file-2"/>
						<logginginfo>
							<description></description>
							<scene></scene>
							<shottake></shottake>
							<lognote></lognote>
							<good></good>
							<originalvideofilename></originalvideofilename>
							<originalaudiofilename></originalaudiofilename>
						</logginginfo>
						<colorinfo>
							<lut></lut>
							<lut1></lut1>
							<asc_sop></asc_sop>
							<asc_sat></asc_sat>
							<lut2></lut2>
						</colorinfo>
						<labels>
							<label2>Iris</label2>
						</labels>
					</clipitem>
					<clipitem id="clipitem-166">
						<masterclipid>masterclip-2</masterclipid>
						<name>VT1.0001.mpg</name>
						<enabled>TRUE</enabled>
						<duration>19497</duration>
						<rate>
							<timebase>30</timebase>
							<ntsc>TRUE</ntsc>
						</rate>
						<start>9470</start>
						<end>9477</end>
						<in>9470</in>
						<out>9477</out>
						<pproTicksIn>80264568384000</pproTicksIn>
						<pproTicksOut>80323898054400</pproTicksOut>
						<alphatype>none</alphatype>
						<file id="file-2"/>
						<logginginfo>
							<description></description>
							<scene></scene>
							<shottake></shottake>
							<lognote></lognote>
							<good></good>
							<originalvideofilename></originalvideofilename>
							<originalaudiofilename></originalaudiofilename>
						</logginginfo>
						<colorinfo>
							<lut></lut>
							<lut1></lut1>
							<asc_sop></asc_sop>
							<asc_sat></asc_sat>
							<lut2></lut2>
						</colorinfo>
						<labels>
							<label2>Iris</label2>
						</labels>
					</clipitem>
					<clipitem id="clipitem-167">
						<masterclipid>masterclip-2</masterclipid>
						<name>VT1.0001.mpg</name>
						<enabled>TRUE</enabled>
						<duration>19497</duration>
						<rate>
							<timebase>30</timebase>
							<ntsc>TRUE</ntsc>
						</rate>
						<start>10007</start>
						<end>10033</end>
						<in>10007</in>
						<out>10033</out>
						<pproTicksIn>84816001670400</pproTicksIn>
						<pproTicksOut>85036369017600</pproTicksOut>
						<alphatype>none</alphatype>
						<file id="file-2"/>
						<logginginfo>
							<description></description>
							<scene></scene>
							<shottake></shottake>
							<lognote></lognote>
							<good></good>
							<originalvideofilename></originalvideofilename>
							<originalaudiofilename></originalaudiofilename>
						</logginginfo>
						<colorinfo>
							<lut></lut>
							<lut1></lut1>
							<asc_sop></asc_sop>
							<asc_sat></asc_sat>
							<lut2></lut2>
						</colorinfo>
						<labels>
							<label2>Iris</label2>
						</labels>
					</clipitem>
					<clipitem id="clipitem-168">
						<masterclipid>masterclip-2</masterclipid>
						<name>VT1.0001.mpg</name>
						<enabled>TRUE</enabled>
						<duration>19497</duration>
						<rate>
							<timebase>30</timebase>
							<ntsc>TRUE</ntsc>
						</rate>
						<start>10533</start>
						<end>10559</end>
						<in>10533</in>
						<out>10559</out>
						<pproTicksIn>89274202617600</pproTicksIn>
						<pproTicksOut>89494569964800</pproTicksOut>
						<alphatype>none</alphatype>
						<file id="file-2"/>
						<logginginfo>
							<description></description>
							<scene></scene>
							<shottake></shottake>
							<lognote></lognote>
							<good></good>
							<originalvideofilename></originalvideofilename>
							<originalaudiofilename></originalaudiofilename>
						</logginginfo>
						<colorinfo>
							<lut></lut>
							<lut1></lut1>
							<asc_sop></asc_sop>
							<asc_sat></asc_sat>
							<lut2></lut2>
						</colorinfo>
						<labels>
							<label2>Iris</label2>
						</labels>
					</clipitem>
					<clipitem id="clipitem-169">
						<masterclipid>masterclip-2</masterclipid>
						<name>VT1.0001.mpg</name>
						<enabled>TRUE</enabled>
						<duration>19497</duration>
						<rate>
							<timebase>30</timebase>
							<ntsc>TRUE</ntsc>
						</rate>
						<start>12350</start>
						<end>12383</end>
						<in>12350</in>
						<out>12383</out>
						<pproTicksIn>104674489920000</pproTicksIn>
						<pproTicksOut>104954186937600</pproTicksOut>
						<alphatype>none</alphatype>
						<file id="file-2"/>
						<logginginfo>
							<description></description>
							<scene></scene>
							<shottake></shottake>
							<lognote></lognote>
							<good></good>
							<originalvideofilename></originalvideofilename>
							<originalaudiofilename></originalaudiofilename>
						</logginginfo>
						<colorinfo>
							<lut></lut>
							<lut1></lut1>
							<asc_sop></asc_sop>
							<asc_sat></asc_sat>
							<lut2></lut2>
						</colorinfo>
						<labels>
							<label2>Iris</label2>
						</labels>
					</clipitem>
					<clipitem id="clipitem-170">
						<masterclipid>masterclip-2</masterclipid>
						<name>VT1.0001.mpg</name>
						<enabled>TRUE</enabled>
						<duration>19497</duration>
						<rate>
							<timebase>30</timebase>
							<ntsc>TRUE</ntsc>
						</rate>
						<start>14111</start>
						<end>14180</end>
						<in>14111</in>
						<out>14180</out>
						<pproTicksIn>119600139859200</pproTicksIn>
						<pproTicksOut>120184960896000</pproTicksOut>
						<alphatype>none</alphatype>
						<file id="file-2"/>
						<logginginfo>
							<description></description>
							<scene></scene>
							<shottake></shottake>
							<lognote></lognote>
							<good></good>
							<originalvideofilename></originalvideofilename>
							<originalaudiofilename></originalaudiofilename>
						</logginginfo>
						<colorinfo>
							<lut></lut>
							<lut1></lut1>
							<asc_sop></asc_sop>
							<asc_sat></asc_sat>
							<lut2></lut2>
						</colorinfo>
						<labels>
							<label2>Iris</label2>
						</labels>
					</clipitem>
					<enabled>TRUE</enabled>
					<locked>FALSE</locked>
				</track>
				<track TL.SQTrackShy="0" TL.SQTrackExpandedHeight="25" TL.SQTrackExpanded="0" MZ.TrackTargeted="0">
					<enabled>TRUE</enabled>
					<locked>FALSE</locked>
				</track>
				<track TL.SQTrackShy="0" TL.SQTrackExpandedHeight="25" TL.SQTrackExpanded="0" MZ.TrackTargeted="0">
					<clipitem id="clipitem-171">
						<masterclipid>masterclip-2</masterclipid>
						<name>VT1.0001.mpg</name>
						<enabled>TRUE</enabled>
						<duration>19497</duration>
						<rate>
							<timebase>30</timebase>
							<ntsc>TRUE</ntsc>
						</rate>
						<start>2181</start>
						<end>2192</end>
						<in>2181</in>
						<out>2192</out>
						<pproTicksIn>18485430163200</pproTicksIn>
						<pproTicksOut>18578662502400</pproTicksOut>
						<alphatype>none</alphatype>
						<file id="file-2"/>
						<logginginfo>
							<description></description>
							<scene></scene>
							<shottake></shottake>
							<lognote></lognote>
							<good></good>
							<originalvideofilename></originalvideofilename>
							<originalaudiofilename></originalaudiofilename>
						</logginginfo>
						<colorinfo>
							<lut></lut>
							<lut1></lut1>
							<asc_sop></asc_sop>
							<asc_sat></asc_sat>
							<lut2></lut2>
						</colorinfo>
						<labels>
							<label2>Iris</label2>
						</labels>
					</clipitem>
					<clipitem id="clipitem-172">
						<masterclipid>masterclip-2</masterclipid>
						<name>VT1.0001.mpg</name>
						<enabled>TRUE</enabled>
						<duration>19497</duration>
						<rate>
							<timebase>30</timebase>
							<ntsc>TRUE</ntsc>
						</rate>
						<start>14461</start>
						<end>14491</end>
						<in>14461</in>
						<out>14491</out>
						<pproTicksIn>122566623379200</pproTicksIn>
						<pproTicksOut>122820893395200</pproTicksOut>
						<alphatype>none</alphatype>
						<file id="file-2"/>
						<logginginfo>
							<description></description>
							<scene></scene>
							<shottake></shottake>
							<lognote></lognote>
							<good></good>
							<originalvideofilename></originalvideofilename>
							<originalaudiofilename></originalaudiofilename>
						</logginginfo>
						<colorinfo>
							<lut></lut>
							<lut1></lut1>
							<asc_sop></asc_sop>
							<asc_sat></asc_sat>
							<lut2></lut2>
						</colorinfo>
						<labels>
							<label2>Iris</label2>
						</labels>
					</clipitem>
					<enabled>TRUE</enabled>
					<locked>FALSE</locked>
				</track>
				<track TL.SQTrackShy="0" TL.SQTrackExpandedHeight="25" TL.SQTrackExpanded="0" MZ.TrackTargeted="0">
					<clipitem id="clipitem-173">
						<masterclipid>masterclip-2</masterclipid>
						<name>VT1.0001.mpg</name>
						<enabled>TRUE</enabled>
						<duration>19497</duration>
						<rate>
							<timebase>30</timebase>
							<ntsc>TRUE</ntsc>
						</rate>
						<start>677</start>
						<end>686</end>
						<in>677</in>
						<out>686</out>
						<pproTicksIn>5738026694400</pproTicksIn>
						<pproTicksOut>5814307699200</pproTicksOut>
						<alphatype>none</alphatype>
						<file id="file-2"/>
						<logginginfo>
							<description></description>
							<scene></scene>
							<shottake></shottake>
							<lognote></lognote>
							<good></good>
							<originalvideofilename></originalvideofilename>
							<originalaudiofilename></originalaudiofilename>
						</logginginfo>
						<colorinfo>
							<lut></lut>
							<lut1></lut1>
							<asc_sop></asc_sop>
							<asc_sat></asc_sat>
							<lut2></lut2>
						</colorinfo>
						<labels>
							<label2>Iris</label2>
						</labels>
					</clipitem>
					<clipitem id="clipitem-174">
						<masterclipid>masterclip-2</masterclipid>
						<name>VT1.0001.mpg</name>
						<enabled>TRUE</enabled>
						<duration>19497</duration>
						<rate>
							<timebase>30</timebase>
							<ntsc>TRUE</ntsc>
						</rate>
						<start>908</start>
						<end>912</end>
						<in>908</in>
						<out>912</out>
						<pproTicksIn>7695905817600</pproTicksIn>
						<pproTicksOut>7729808486400</pproTicksOut>
						<alphatype>none</alphatype>
						<file id="file-2"/>
						<logginginfo>
							<description></description>
							<scene></scene>
							<shottake></shottake>
							<lognote></lognote>
							<good></good>
							<originalvideofilename></originalvideofilename>
							<originalaudiofilename></originalaudiofilename>
						</logginginfo>
						<colorinfo>
							<lut></lut>
							<lut1></lut1>
							<asc_sop></asc_sop>
							<asc_sat></asc_sat>
							<lut2></lut2>
						</colorinfo>
						<labels>
							<label2>Iris</label2>
						</labels>
					</clipitem>
					<clipitem id="clipitem-175">
						<masterclipid>masterclip-2</masterclipid>
						<name>VT1.0001.mpg</name>
						<enabled>TRUE</enabled>
						<duration>19497</duration>
						<rate>
							<timebase>30</timebase>
							<ntsc>TRUE</ntsc>
						</rate>
						<start>1441</start>
						<end>1452</end>
						<in>1441</in>
						<out>1452</out>
						<pproTicksIn>12213436435200</pproTicksIn>
						<pproTicksOut>12306668774400</pproTicksOut>
						<alphatype>none</alphatype>
						<file id="file-2"/>
						<logginginfo>
							<description></description>
							<scene></scene>
							<shottake></shottake>
							<lognote></lognote>
							<good></good>
							<originalvideofilename></originalvideofilename>
							<originalaudiofilename></originalaudiofilename>
						</logginginfo>
						<colorinfo>
							<lut></lut>
							<lut1></lut1>
							<asc_sop></asc_sop>
							<asc_sat></asc_sat>
							<lut2></lut2>
						</colorinfo>
						<labels>
							<label2>Iris</label2>
						</labels>
					</clipitem>
					<clipitem id="clipitem-176">
						<masterclipid>masterclip-2</masterclipid>
						<name>VT1.0001.mpg</name>
						<enabled>TRUE</enabled>
						<duration>19497</duration>
						<rate>
							<timebase>30</timebase>
							<ntsc>TRUE</ntsc>
						</rate>
						<start>2266</start>
						<end>2310</end>
						<in>2266</in>
						<out>2310</out>
						<pproTicksIn>19205861875200</pproTicksIn>
						<pproTicksOut>19578791232000</pproTicksOut>
						<alphatype>none</alphatype>
						<file id="file-2"/>
						<logginginfo>
							<description></description>
							<scene></scene>
							<shottake></shottake>
							<lognote></lognote>
							<good></good>
							<originalvideofilename></originalvideofilename>
							<originalaudiofilename></originalaudiofilename>
						</logginginfo>
						<colorinfo>
							<lut></lut>
							<lut1></lut1>
							<asc_sop></asc_sop>
							<asc_sat></asc_sat>
							<lut2></lut2>
						</colorinfo>
						<labels>
							<label2>Iris</label2>
						</labels>
					</clipitem>
					<clipitem id="clipitem-177">
						<masterclipid>masterclip-2</masterclipid>
						<name>VT1.0001.mpg</name>
						<enabled>TRUE</enabled>
						<duration>19497</duration>
						<rate>
							<timebase>30</timebase>
							<ntsc>TRUE</ntsc>
						</rate>
						<start>2372</start>
						<end>2378</end>
						<in>2372</in>
						<out>2378</out>
						<pproTicksIn>20104282598400</pproTicksIn>
						<pproTicksOut>20155136601600</pproTicksOut>
						<alphatype>none</alphatype>
						<file id="file-2"/>
						<logginginfo>
							<description></description>
							<scene></scene>
							<shottake></shottake>
							<lognote></lognote>
							<good></good>
							<originalvideofilename></originalvideofilename>
							<originalaudiofilename></originalaudiofilename>
						</logginginfo>
						<colorinfo>
							<lut></lut>
							<lut1></lut1>
							<asc_sop></asc_sop>
							<asc_sat></asc_sat>
							<lut2></lut2>
						</colorinfo>
						<labels>
							<label2>Iris</label2>
						</labels>
					</clipitem>
					<clipitem id="clipitem-178">
						<masterclipid>masterclip-2</masterclipid>
						<name>VT1.0001.mpg</name>
						<enabled>TRUE</enabled>
						<duration>19497</duration>
						<rate>
							<timebase>30</timebase>
							<ntsc>TRUE</ntsc>
						</rate>
						<start>2492</start>
						<end>2515</end>
						<in>2492</in>
						<out>2515</out>
						<pproTicksIn>21121362662400</pproTicksIn>
						<pproTicksOut>21316303008000</pproTicksOut>
						<alphatype>none</alphatype>
						<file id="file-2"/>
						<logginginfo>
							<description></description>
							<scene></scene>
							<shottake></shottake>
							<lognote></lognote>
							<good></good>
							<originalvideofilename></originalvideofilename>
							<originalaudiofilename></originalaudiofilename>
						</logginginfo>
						<colorinfo>
							<lut></lut>
							<lut1></lut1>
							<asc_sop></asc_sop>
							<asc_sat></asc_sat>
							<lut2></lut2>
						</colorinfo>
						<labels>
							<label2>Iris</label2>
						</labels>
					</clipitem>
					<clipitem id="clipitem-179">
						<masterclipid>masterclip-2</masterclipid>
						<name>VT1.0001.mpg</name>
						<enabled>TRUE</enabled>
						<duration>19497</duration>
						<rate>
							<timebase>30</timebase>
							<ntsc>TRUE</ntsc>
						</rate>
						<start>2671</start>
						<end>2690</end>
						<in>2671</in>
						<out>2690</out>
						<pproTicksIn>22638507091200</pproTicksIn>
						<pproTicksOut>22799544768000</pproTicksOut>
						<alphatype>none</alphatype>
						<file id="file-2"/>
						<logginginfo>
							<description></description>
							<scene></scene>
							<shottake></shottake>
							<lognote></lognote>
							<good></good>
							<originalvideofilename></originalvideofilename>
							<originalaudiofilename></originalaudiofilename>
						</logginginfo>
						<colorinfo>
							<lut></lut>
							<lut1></lut1>
							<asc_sop></asc_sop>
							<asc_sat></asc_sat>
							<lut2></lut2>
						</colorinfo>
						<labels>
							<label2>Iris</label2>
						</labels>
					</clipitem>
					<clipitem id="clipitem-180">
						<masterclipid>masterclip-2</masterclipid>
						<name>VT1.0001.mpg</name>
						<enabled>TRUE</enabled>
						<duration>19497</duration>
						<rate>
							<timebase>30</timebase>
							<ntsc>TRUE</ntsc>
						</rate>
						<start>2690</start>
						<end>2824</end>
						<in>2690</in>
						<out>2824</out>
						<pproTicksIn>22799544768000</pproTicksIn>
						<pproTicksOut>23935284172800</pproTicksOut>
						<alphatype>none</alphatype>
						<file id="file-2"/>
						<logginginfo>
							<description></description>
							<scene></scene>
							<shottake></shottake>
							<lognote></lognote>
							<good></good>
							<originalvideofilename></originalvideofilename>
							<originalaudiofilename></originalaudiofilename>
						</logginginfo>
						<colorinfo>
							<lut></lut>
							<lut1></lut1>
							<asc_sop></asc_sop>
							<asc_sat></asc_sat>
							<lut2></lut2>
						</colorinfo>
						<labels>
							<label2>Iris</label2>
						</labels>
					</clipitem>
					<clipitem id="clipitem-181">
						<masterclipid>masterclip-2</masterclipid>
						<name>VT1.0001.mpg</name>
						<enabled>TRUE</enabled>
						<duration>19497</duration>
						<rate>
							<timebase>30</timebase>
							<ntsc>TRUE</ntsc>
						</rate>
						<start>2824</start>
						<end>2834</end>
						<in>2824</in>
						<out>2834</out>
						<pproTicksIn>23935284172800</pproTicksIn>
						<pproTicksOut>24020040844800</pproTicksOut>
						<alphatype>none</alphatype>
						<file id="file-2"/>
						<logginginfo>
							<description></description>
							<scene></scene>
							<shottake></shottake>
							<lognote></lognote>
							<good></good>
							<originalvideofilename></originalvideofilename>
							<originalaudiofilename></originalaudiofilename>
						</logginginfo>
						<colorinfo>
							<lut></lut>
							<lut1></lut1>
							<asc_sop></asc_sop>
							<asc_sat></asc_sat>
							<lut2></lut2>
						</colorinfo>
						<labels>
							<label2>Iris</label2>
						</labels>
					</clipitem>
					<clipitem id="clipitem-182">
						<masterclipid>masterclip-2</masterclipid>
						<name>VT1.0001.mpg</name>
						<enabled>TRUE</enabled>
						<duration>19497</duration>
						<rate>
							<timebase>30</timebase>
							<ntsc>TRUE</ntsc>
						</rate>
						<start>2936</start>
						<end>2940</end>
						<in>2936</in>
						<out>2940</out>
						<pproTicksIn>24884558899200</pproTicksIn>
						<pproTicksOut>24918461568000</pproTicksOut>
						<alphatype>none</alphatype>
						<file id="file-2"/>
						<logginginfo>
							<description></description>
							<scene></scene>
							<shottake></shottake>
							<lognote></lognote>
							<good></good>
							<originalvideofilename></originalvideofilename>
							<originalaudiofilename></originalaudiofilename>
						</logginginfo>
						<colorinfo>
							<lut></lut>
							<lut1></lut1>
							<asc_sop></asc_sop>
							<asc_sat></asc_sat>
							<lut2></lut2>
						</colorinfo>
						<labels>
							<label2>Iris</label2>
						</labels>
					</clipitem>
					<clipitem id="clipitem-183">
						<masterclipid>masterclip-2</masterclipid>
						<name>VT1.0001.mpg</name>
						<enabled>TRUE</enabled>
						<duration>19497</duration>
						<rate>
							<timebase>30</timebase>
							<ntsc>TRUE</ntsc>
						</rate>
						<start>4380</start>
						<end>4390</end>
						<in>4380</in>
						<out>4390</out>
						<pproTicksIn>37123422336000</pproTicksIn>
						<pproTicksOut>37208179008000</pproTicksOut>
						<alphatype>none</alphatype>
						<file id="file-2"/>
						<logginginfo>
							<description></description>
							<scene></scene>
							<shottake></shottake>
							<lognote></lognote>
							<good></good>
							<originalvideofilename></originalvideofilename>
							<originalaudiofilename></originalaudiofilename>
						</logginginfo>
						<colorinfo>
							<lut></lut>
							<lut1></lut1>
							<asc_sop></asc_sop>
							<asc_sat></asc_sat>
							<lut2></lut2>
						</colorinfo>
						<labels>
							<label2>Iris</label2>
						</labels>
					</clipitem>
					<clipitem id="clipitem-184">
						<masterclipid>masterclip-2</masterclipid>
						<name>VT1.0001.mpg</name>
						<enabled>TRUE</enabled>
						<duration>19497</duration>
						<rate>
							<timebase>30</timebase>
							<ntsc>TRUE</ntsc>
						</rate>
						<start>5237</start>
						<end>5247</end>
						<in>5237</in>
						<out>5247</out>
						<pproTicksIn>44387069126400</pproTicksIn>
						<pproTicksOut>44471825798400</pproTicksOut>
						<alphatype>none</alphatype>
						<file id="file-2"/>
						<logginginfo>
							<description></description>
							<scene></scene>
							<shottake></shottake>
							<lognote></lognote>
							<good></good>
							<originalvideofilename></originalvideofilename>
							<originalaudiofilename></originalaudiofilename>
						</logginginfo>
						<colorinfo>
							<lut></lut>
							<lut1></lut1>
							<asc_sop></asc_sop>
							<asc_sat></asc_sat>
							<lut2></lut2>
						</colorinfo>
						<labels>
							<label2>Iris</label2>
						</labels>
					</clipitem>
					<clipitem id="clipitem-185">
						<masterclipid>masterclip-2</masterclipid>
						<name>VT1.0001.mpg</name>
						<enabled>TRUE</enabled>
						<duration>19497</duration>
						<rate>
							<timebase>30</timebase>
							<ntsc>TRUE</ntsc>
						</rate>
						<start>6742</start>
						<end>6751</end>
						<in>6742</in>
						<out>6751</out>
						<pproTicksIn>57142948262400</pproTicksIn>
						<pproTicksOut>57219229267200</pproTicksOut>
						<alphatype>none</alphatype>
						<file id="file-2"/>
						<logginginfo>
							<description></description>
							<scene></scene>
							<shottake></shottake>
							<lognote></lognote>
							<good></good>
							<originalvideofilename></originalvideofilename>
							<originalaudiofilename></originalaudiofilename>
						</logginginfo>
						<colorinfo>
							<lut></lut>
							<lut1></lut1>
							<asc_sop></asc_sop>
							<asc_sat></asc_sat>
							<lut2></lut2>
						</colorinfo>
						<labels>
							<label2>Iris</label2>
						</labels>
					</clipitem>
					<clipitem id="clipitem-186">
						<masterclipid>masterclip-2</masterclipid>
						<name>VT1.0001.mpg</name>
						<enabled>TRUE</enabled>
						<duration>19497</duration>
						<rate>
							<timebase>30</timebase>
							<ntsc>TRUE</ntsc>
						</rate>
						<start>6963</start>
						<end>6970</end>
						<in>6963</in>
						<out>6970</out>
						<pproTicksIn>59016070713600</pproTicksIn>
						<pproTicksOut>59075400384000</pproTicksOut>
						<alphatype>none</alphatype>
						<file id="file-2"/>
						<logginginfo>
							<description></description>
							<scene></scene>
							<shottake></shottake>
							<lognote></lognote>
							<good></good>
							<originalvideofilename></originalvideofilename>
							<originalaudiofilename></originalaudiofilename>
						</logginginfo>
						<colorinfo>
							<lut></lut>
							<lut1></lut1>
							<asc_sop></asc_sop>
							<asc_sat></asc_sat>
							<lut2></lut2>
						</colorinfo>
						<labels>
							<label2>Iris</label2>
						</labels>
					</clipitem>
					<clipitem id="clipitem-187">
						<masterclipid>masterclip-2</masterclipid>
						<name>VT1.0001.mpg</name>
						<enabled>TRUE</enabled>
						<duration>19497</duration>
						<rate>
							<timebase>30</timebase>
							<ntsc>TRUE</ntsc>
						</rate>
						<start>7660</start>
						<end>7675</end>
						<in>7660</in>
						<out>7675</out>
						<pproTicksIn>64923610752000</pproTicksIn>
						<pproTicksOut>65050745760000</pproTicksOut>
						<alphatype>none</alphatype>
						<file id="file-2"/>
						<logginginfo>
							<description></description>
							<scene></scene>
							<shottake></shottake>
							<lognote></lognote>
							<good></good>
							<originalvideofilename></originalvideofilename>
							<originalaudiofilename></originalaudiofilename>
						</logginginfo>
						<colorinfo>
							<lut></lut>
							<lut1></lut1>
							<asc_sop></asc_sop>
							<asc_sat></asc_sat>
							<lut2></lut2>
						</colorinfo>
						<labels>
							<label2>Iris</label2>
						</labels>
					</clipitem>
					<clipitem id="clipitem-188">
						<masterclipid>masterclip-2</masterclipid>
						<name>VT1.0001.mpg</name>
						<enabled>TRUE</enabled>
						<duration>19497</duration>
						<rate>
							<timebase>30</timebase>
							<ntsc>TRUE</ntsc>
						</rate>
						<start>8088</start>
						<end>8097</end>
						<in>8088</in>
						<out>8097</out>
						<pproTicksIn>68551196313600</pproTicksIn>
						<pproTicksOut>68627477318400</pproTicksOut>
						<alphatype>none</alphatype>
						<file id="file-2"/>
						<logginginfo>
							<description></description>
							<scene></scene>
							<shottake></shottake>
							<lognote></lognote>
							<good></good>
							<originalvideofilename></originalvideofilename>
							<originalaudiofilename></originalaudiofilename>
						</logginginfo>
						<colorinfo>
							<lut></lut>
							<lut1></lut1>
							<asc_sop></asc_sop>
							<asc_sat></asc_sat>
							<lut2></lut2>
						</colorinfo>
						<labels>
							<label2>Iris</label2>
						</labels>
					</clipitem>
					<clipitem id="clipitem-189">
						<masterclipid>masterclip-2</masterclipid>
						<name>VT1.0001.mpg</name>
						<enabled>TRUE</enabled>
						<duration>19497</duration>
						<rate>
							<timebase>30</timebase>
							<ntsc>TRUE</ntsc>
						</rate>
						<start>9477</start>
						<end>9487</end>
						<in>9477</in>
						<out>9487</out>
						<pproTicksIn>80323898054400</pproTicksIn>
						<pproTicksOut>80408654726400</pproTicksOut>
						<alphatype>none</alphatype>
						<file id="file-2"/>
						<logginginfo>
							<description></description>
							<scene></scene>
							<shottake></shottake>
							<lognote></lognote>
							<good></good>
							<originalvideofilename></originalvideofilename>
							<originalaudiofilename></originalaudiofilename>
						</logginginfo>
						<colorinfo>
							<lut></lut>
							<lut1></lut1>
							<asc_sop></asc_sop>
							<asc_sat></asc_sat>
							<lut2></lut2>
						</colorinfo>
						<labels>
							<label2>Iris</label2>
						</labels>
					</clipitem>
					<clipitem id="clipitem-190">
						<masterclipid>masterclip-2</masterclipid>
						<name>VT1.0001.mpg</name>
						<enabled>TRUE</enabled>
						<duration>19497</duration>
						<rate>
							<timebase>30</timebase>
							<ntsc>TRUE</ntsc>
						</rate>
						<start>9759</start>
						<end>9770</end>
						<in>9759</in>
						<out>9770</out>
						<pproTicksIn>82714036204800</pproTicksIn>
						<pproTicksOut>82807268544000</pproTicksOut>
						<alphatype>none</alphatype>
						<file id="file-2"/>
						<logginginfo>
							<description></description>
							<scene></scene>
							<shottake></shottake>
							<lognote></lognote>
							<good></good>
							<originalvideofilename></originalvideofilename>
							<originalaudiofilename></originalaudiofilename>
						</logginginfo>
						<colorinfo>
							<lut></lut>
							<lut1></lut1>
							<asc_sop></asc_sop>
							<asc_sat></asc_sat>
							<lut2></lut2>
						</colorinfo>
						<labels>
							<label2>Iris</label2>
						</labels>
					</clipitem>
					<clipitem id="clipitem-191">
						<masterclipid>masterclip-2</masterclipid>
						<name>VT1.0001.mpg</name>
						<enabled>TRUE</enabled>
						<duration>19497</duration>
						<rate>
							<timebase>30</timebase>
							<ntsc>TRUE</ntsc>
						</rate>
						<start>11453</start>
						<end>11465</end>
						<in>11453</in>
						<out>11465</out>
						<pproTicksIn>97071816441600</pproTicksIn>
						<pproTicksOut>97173524448000</pproTicksOut>
						<alphatype>none</alphatype>
						<file id="file-2"/>
						<logginginfo>
							<description></description>
							<scene></scene>
							<shottake></shottake>
							<lognote></lognote>
							<good></good>
							<originalvideofilename></originalvideofilename>
							<originalaudiofilename></originalaudiofilename>
						</logginginfo>
						<colorinfo>
							<lut></lut>
							<lut1></lut1>
							<asc_sop></asc_sop>
							<asc_sat></asc_sat>
							<lut2></lut2>
						</colorinfo>
						<labels>
							<label2>Iris</label2>
						</labels>
					</clipitem>
					<clipitem id="clipitem-192">
						<masterclipid>masterclip-2</masterclipid>
						<name>VT1.0001.mpg</name>
						<enabled>TRUE</enabled>
						<duration>19497</duration>
						<rate>
							<timebase>30</timebase>
							<ntsc>TRUE</ntsc>
						</rate>
						<start>11757</start>
						<end>11773</end>
						<in>11757</in>
						<out>11773</out>
						<pproTicksIn>99648419270400</pproTicksIn>
						<pproTicksOut>99784029945600</pproTicksOut>
						<alphatype>none</alphatype>
						<file id="file-2"/>
						<logginginfo>
							<description></description>
							<scene></scene>
							<shottake></shottake>
							<lognote></lognote>
							<good></good>
							<originalvideofilename></originalvideofilename>
							<originalaudiofilename></originalaudiofilename>
						</logginginfo>
						<colorinfo>
							<lut></lut>
							<lut1></lut1>
							<asc_sop></asc_sop>
							<asc_sat></asc_sat>
							<lut2></lut2>
						</colorinfo>
						<labels>
							<label2>Iris</label2>
						</labels>
					</clipitem>
					<clipitem id="clipitem-193">
						<masterclipid>masterclip-2</masterclipid>
						<name>VT1.0001.mpg</name>
						<enabled>TRUE</enabled>
						<duration>19497</duration>
						<rate>
							<timebase>30</timebase>
							<ntsc>TRUE</ntsc>
						</rate>
						<start>12440</start>
						<end>12451</end>
						<in>12440</in>
						<out>12451</out>
						<pproTicksIn>105437299968000</pproTicksIn>
						<pproTicksOut>105530532307200</pproTicksOut>
						<alphatype>none</alphatype>
						<file id="file-2"/>
						<logginginfo>
							<description></description>
							<scene></scene>
							<shottake></shottake>
							<lognote></lognote>
							<good></good>
							<originalvideofilename></originalvideofilename>
							<originalaudiofilename></originalaudiofilename>
						</logginginfo>
						<colorinfo>
							<lut></lut>
							<lut1></lut1>
							<asc_sop></asc_sop>
							<asc_sat></asc_sat>
							<lut2></lut2>
						</colorinfo>
						<labels>
							<label2>Iris</label2>
						</labels>
					</clipitem>
					<clipitem id="clipitem-194">
						<masterclipid>masterclip-2</masterclipid>
						<name>VT1.0001.mpg</name>
						<enabled>TRUE</enabled>
						<duration>19497</duration>
						<rate>
							<timebase>30</timebase>
							<ntsc>TRUE</ntsc>
						</rate>
						<start>14340</start>
						<end>14356</end>
						<in>14340</in>
						<out>14356</out>
						<pproTicksIn>121541067648000</pproTicksIn>
						<pproTicksOut>121676678323200</pproTicksOut>
						<alphatype>none</alphatype>
						<file id="file-2"/>
						<logginginfo>
							<description></description>
							<scene></scene>
							<shottake></shottake>
							<lognote></lognote>
							<good></good>
							<originalvideofilename></originalvideofilename>
							<originalaudiofilename></originalaudiofilename>
						</logginginfo>
						<colorinfo>
							<lut></lut>
							<lut1></lut1>
							<asc_sop></asc_sop>
							<asc_sat></asc_sat>
							<lut2></lut2>
						</colorinfo>
						<labels>
							<label2>Iris</label2>
						</labels>
					</clipitem>
					<enabled>TRUE</enabled>
					<locked>FALSE</locked>
				</track>
			</video>
			<audio>
				<numOutputChannels>2</numOutputChannels>
				<format>
					<samplecharacteristics>
						<depth>16</depth>
						<samplerate>48000</samplerate>
					</samplecharacteristics>
				</format>
				<outputs>
					<group>
						<index>1</index>
						<numchannels>1</numchannels>
						<downmix>0</downmix>
						<channel>
							<index>1</index>
						</channel>
					</group>
					<group>
						<index>2</index>
						<numchannels>1</numchannels>
						<downmix>0</downmix>
						<channel>
							<index>2</index>
						</channel>
					</group>
				</outputs>
				<track TL.SQTrackAudioKeyframeStyle="0" TL.SQTrackShy="0" TL.SQTrackExpandedHeight="25" TL.SQTrackExpanded="0" MZ.TrackTargeted="1" PannerCurrentValue="0.5" PannerIsInverted="true" PannerStartKeyframe="-91445760000000000,0.5,0,0,0,0,0,0" PannerName="Balance" currentExplodedTrackIndex="0" totalExplodedTrackCount="2" premiereTrackType="Stereo">
					<enabled>TRUE</enabled>
					<locked>FALSE</locked>
					<outputchannelindex>1</outputchannelindex>
				</track>
				<track TL.SQTrackAudioKeyframeStyle="0" TL.SQTrackShy="0" TL.SQTrackExpandedHeight="25" TL.SQTrackExpanded="0" MZ.TrackTargeted="1" PannerCurrentValue="0.5" PannerIsInverted="true" PannerStartKeyframe="-91445760000000000,0.5,0,0,0,0,0,0" PannerName="Balance" currentExplodedTrackIndex="1" totalExplodedTrackCount="2" premiereTrackType="Stereo">
					<enabled>TRUE</enabled>
					<locked>FALSE</locked>
					<outputchannelindex>2</outputchannelindex>
				</track>
				<track TL.SQTrackAudioKeyframeStyle="0" TL.SQTrackShy="0" TL.SQTrackExpandedHeight="25" TL.SQTrackExpanded="0" MZ.TrackTargeted="1" PannerCurrentValue="0.5" PannerIsInverted="true" PannerStartKeyframe="-91445760000000000,0.5,0,0,0,0,0,0" PannerName="Balance" currentExplodedTrackIndex="0" totalExplodedTrackCount="2" premiereTrackType="Stereo">
					<enabled>TRUE</enabled>
					<locked>FALSE</locked>
					<outputchannelindex>1</outputchannelindex>
				</track>
				<track TL.SQTrackAudioKeyframeStyle="0" TL.SQTrackShy="0" TL.SQTrackExpandedHeight="25" TL.SQTrackExpanded="0" MZ.TrackTargeted="1" PannerCurrentValue="0.5" PannerIsInverted="true" PannerStartKeyframe="-91445760000000000,0.5,0,0,0,0,0,0" PannerName="Balance" currentExplodedTrackIndex="1" totalExplodedTrackCount="2" premiereTrackType="Stereo">
					<enabled>TRUE</enabled>
					<locked>FALSE</locked>
					<outputchannelindex>2</outputchannelindex>
				</track>
				<track TL.SQTrackAudioKeyframeStyle="0" TL.SQTrackShy="0" TL.SQTrackExpandedHeight="25" TL.SQTrackExpanded="0" MZ.TrackTargeted="1" PannerCurrentValue="0.5" PannerIsInverted="true" PannerStartKeyframe="-91445760000000000,0.5,0,0,0,0,0,0" PannerName="Balance" currentExplodedTrackIndex="0" totalExplodedTrackCount="2" premiereTrackType="Stereo">
					<enabled>TRUE</enabled>
					<locked>FALSE</locked>
					<outputchannelindex>1</outputchannelindex>
				</track>
				<track TL.SQTrackAudioKeyframeStyle="0" TL.SQTrackShy="0" TL.SQTrackExpandedHeight="25" TL.SQTrackExpanded="0" MZ.TrackTargeted="1" PannerCurrentValue="0.5" PannerIsInverted="true" PannerStartKeyframe="-91445760000000000,0.5,0,0,0,0,0,0" PannerName="Balance" currentExplodedTrackIndex="1" totalExplodedTrackCount="2" premiereTrackType="Stereo">
					<enabled>TRUE</enabled>
					<locked>FALSE</locked>
					<outputchannelindex>2</outputchannelindex>
				</track>
				<track TL.SQTrackExpandedHeight="25" TL.SQTrackExpanded="0" MZ.TrackTargeted="0" PannerCurrentValue="0.5" PannerIsInverted="true" PannerStartKeyframe="-91445760000000000,0.5,0,0,0,0,0,0" PannerName="Balance" currentExplodedTrackIndex="0" totalExplodedTrackCount="2" premiereTrackType="Stereo">
					<enabled>TRUE</enabled>
					<locked>FALSE</locked>
					<outputchannelindex>1</outputchannelindex>
				</track>
				<track TL.SQTrackExpandedHeight="25" TL.SQTrackExpanded="0" MZ.TrackTargeted="0" PannerCurrentValue="0.5" PannerIsInverted="true" PannerStartKeyframe="-91445760000000000,0.5,0,0,0,0,0,0" PannerName="Balance" currentExplodedTrackIndex="1" totalExplodedTrackCount="2" premiereTrackType="Stereo">
					<enabled>TRUE</enabled>
					<locked>FALSE</locked>
					<outputchannelindex>2</outputchannelindex>
				</track>
			</audio>
		</media>
		<timecode>
			<rate>
				<timebase>30</timebase>
				<ntsc>TRUE</ntsc>
			</rate>
			<string>00;00;00;00</string>
			<frame>0</frame>
			<displayformat>DF</displayformat>
		</timecode>
		<labels>
			<label2>Forest</label2>
		</labels>
		<logginginfo>
			<description></description>
			<scene></scene>
			<shottake></shottake>
			<lognote></lognote>
			<good></good>
			<originalvideofilename></originalvideofilename>
			<originalaudiofilename></originalaudiofilename>
		</logginginfo>
	</sequence>
</xmeml>
