<?xml version="1.0" encoding="UTF-8"?>
<!DOCTYPE xmeml>
<xmeml version="4">
	<sequence id="sequence-1" TL.SQAudioVisibleBase="0" TL.SQVideoVisibleBase="0" TL.SQVisibleBaseTime="225042830993766" TL.SQAVDividerPosition="1" TL.SQHideShyTracks="0" TL.SQHeaderWidth="236" TL.SQDataTrackViewControlState="0" Monitor.ProgramZoomOut="228614400000000" Monitor.ProgramZoomIn="0" TL.SQTimePerPixel="0.018574362581837683" MZ.EditLine="216734918400000" MZ.Sequence.PreviewFrameSizeHeight="1024" MZ.Sequence.PreviewFrameSizeWidth="1280" MZ.Sequence.AudioTimeDisplayFormat="200" MZ.Sequence.PreviewRenderingClassID="1061109567" MZ.Sequence.PreviewRenderingPresetCodec="1634755443" MZ.Sequence.PreviewRenderingPresetPath="EncoderPresets\SequencePreview\9678af98-a7b7-4bdb-b477-7ac9c8df4a4e\QuickTime.epr" MZ.Sequence.PreviewUseMaxRenderQuality="false" MZ.Sequence.PreviewUseMaxBitDepth="false" MZ.Sequence.EditingModeGUID="9678af98-a7b7-4bdb-b477-7ac9c8df4a4e" MZ.Sequence.VideoTimeDisplayFormat="109" MZ.WorkOutPoint="229935283200000" MZ.WorkInPoint="0" explodedTracks="true">
		<uuid>39f76d88-d9fc-45db-b957-63313f6556a4</uuid>
		<duration>27000</duration>
		<rate>
			<timebase>30</timebase>
			<ntsc>FALSE</ntsc>
		</rate>
		<name>VT1.0001</name>
		<media>
			<video>
				<format>
					<samplecharacteristics>
						<rate>
							<timebase>30</timebase>
							<ntsc>FALSE</ntsc>
						</rate>
						<codec>
							<name>Apple ProRes 422</name>
							<appspecificdata>
								<appname>Final Cut Pro</appname>
								<appmanufacturer>Apple Inc.</appmanufacturer>
								<appversion>7.0</appversion>
								<data>
									<qtcodec>
										<codecname>Apple ProRes 422</codecname>
										<codectypename>Apple ProRes 422</codectypename>
										<codectypecode>apcn</codectypecode>
										<codecvendorcode>appl</codecvendorcode>
										<spatialquality>1024</spatialquality>
										<temporalquality>0</temporalquality>
										<keyframerate>0</keyframerate>
										<datarate>0</datarate>
									</qtcodec>
								</data>
							</appspecificdata>
						</codec>
						<width>1280</width>
						<height>1024</height>
						<anamorphic>FALSE</anamorphic>
						<pixelaspectratio>square</pixelaspectratio>
						<fielddominance>none</fielddominance>
						<colordepth>24</colordepth>
					</samplecharacteristics>
				</format>
				<track TL.SQTrackShy="0" TL.SQTrackExpandedHeight="25" TL.SQTrackExpanded="0" MZ.TrackTargeted="1">
					<clipitem id="clipitem-1">
						<masterclipid>masterclip-1</masterclipid>
						<name>VT1.0001.mp4</name>
						<enabled>TRUE</enabled>
						<duration>27156</duration>
						<rate>
							<timebase>30</timebase>
							<ntsc>FALSE</ntsc>
						</rate>
						<start>0</start>
						<end>184</end>
						<in>0</in>
						<out>184</out>
						<pproTicksIn>0</pproTicksIn>
						<pproTicksOut>1557964800000</pproTicksOut>
						<alphatype>none</alphatype>
						<pixelaspectratio>square</pixelaspectratio>
						<anamorphic>FALSE</anamorphic>
						<file id="file-1">
							<name>VT1.0001.mp4</name>
							<pathurl>file://localhost/G%3a/Shank2/Optostim_chronic/2024-09-23_16-52-45_02WT_04WT/VT1.0001.mp4</pathurl>
							<rate>
								<timebase>30</timebase>
								<ntsc>FALSE</ntsc>
							</rate>
							<duration>27156</duration>
							<timecode>
								<rate>
									<timebase>30</timebase>
									<ntsc>FALSE</ntsc>
								</rate>
								<string>00:00:00:00</string>
								<frame>0</frame>
								<displayformat>NDF</displayformat>
							</timecode>
							<media>
								<video>
									<samplecharacteristics>
										<rate>
											<timebase>30</timebase>
											<ntsc>FALSE</ntsc>
										</rate>
										<width>1280</width>
										<height>1024</height>
										<anamorphic>FALSE</anamorphic>
										<pixelaspectratio>square</pixelaspectratio>
										<fielddominance>none</fielddominance>
									</samplecharacteristics>
								</video>
							</media>
						</file>
						<logginginfo>
							<description></description>
							<scene></scene>
							<shottake></shottake>
							<lognote></lognote>
							<good></good>
							<originalvideofilename></originalvideofilename>
							<originalaudiofilename></originalaudiofilename>
						</logginginfo>
						<colorinfo>
							<lut></lut>
							<lut1></lut1>
							<asc_sop></asc_sop>
							<asc_sat></asc_sat>
							<lut2></lut2>
						</colorinfo>
						<labels>
							<label2>Violet</label2>
						</labels>
					</clipitem>
					<clipitem id="clipitem-2">
						<masterclipid>masterclip-1</masterclipid>
						<name>VT1.0001.mp4</name>
						<enabled>TRUE</enabled>
						<duration>27156</duration>
						<rate>
							<timebase>30</timebase>
							<ntsc>FALSE</ntsc>
						</rate>
						<start>226</start>
						<end>523</end>
						<in>226</in>
						<out>523</out>
						<pproTicksIn>1913587200000</pproTicksIn>
						<pproTicksOut>4428345600000</pproTicksOut>
						<alphatype>none</alphatype>
						<file id="file-1"/>
						<logginginfo>
							<description></description>
							<scene></scene>
							<shottake></shottake>
							<lognote></lognote>
							<good></good>
							<originalvideofilename></originalvideofilename>
							<originalaudiofilename></originalaudiofilename>
						</logginginfo>
						<colorinfo>
							<lut></lut>
							<lut1></lut1>
							<asc_sop></asc_sop>
							<asc_sat></asc_sat>
							<lut2></lut2>
						</colorinfo>
						<labels>
							<label2>Violet</label2>
						</labels>
					</clipitem>
					<clipitem id="clipitem-3">
						<masterclipid>masterclip-1</masterclipid>
						<name>VT1.0001.mp4</name>
						<enabled>TRUE</enabled>
						<duration>27156</duration>
						<rate>
							<timebase>30</timebase>
							<ntsc>FALSE</ntsc>
						</rate>
						<start>562</start>
						<end>863</end>
						<in>562</in>
						<out>863</out>
						<pproTicksIn>4758566400000</pproTicksIn>
						<pproTicksOut>7307193600000</pproTicksOut>
						<alphatype>none</alphatype>
						<file id="file-1"/>
						<logginginfo>
							<description></description>
							<scene></scene>
							<shottake></shottake>
							<lognote></lognote>
							<good></good>
							<originalvideofilename></originalvideofilename>
							<originalaudiofilename></originalaudiofilename>
						</logginginfo>
						<colorinfo>
							<lut></lut>
							<lut1></lut1>
							<asc_sop></asc_sop>
							<asc_sat></asc_sat>
							<lut2></lut2>
						</colorinfo>
						<labels>
							<label2>Violet</label2>
						</labels>
					</clipitem>
					<clipitem id="clipitem-4">
						<masterclipid>masterclip-1</masterclipid>
						<name>VT1.0001.mp4</name>
						<enabled>TRUE</enabled>
						<duration>27156</duration>
						<rate>
							<timebase>30</timebase>
							<ntsc>FALSE</ntsc>
						</rate>
						<start>961</start>
						<end>1355</end>
						<in>961</in>
						<out>1355</out>
						<pproTicksIn>8136979200000</pproTicksIn>
						<pproTicksOut>11473056000000</pproTicksOut>
						<alphatype>none</alphatype>
						<file id="file-1"/>
						<logginginfo>
							<description></description>
							<scene></scene>
							<shottake></shottake>
							<lognote></lognote>
							<good></good>
							<originalvideofilename></originalvideofilename>
							<originalaudiofilename></originalaudiofilename>
						</logginginfo>
						<colorinfo>
							<lut></lut>
							<lut1></lut1>
							<asc_sop></asc_sop>
							<asc_sat></asc_sat>
							<lut2></lut2>
						</colorinfo>
						<labels>
							<label2>Violet</label2>
						</labels>
					</clipitem>
					<clipitem id="clipitem-5">
						<masterclipid>masterclip-1</masterclipid>
						<name>VT1.0001.mp4</name>
						<enabled>TRUE</enabled>
						<duration>27156</duration>
						<rate>
							<timebase>30</timebase>
							<ntsc>FALSE</ntsc>
						</rate>
						<start>1435</start>
						<end>1766</end>
						<in>1435</in>
						<out>1766</out>
						<pproTicksIn>12150432000000</pproTicksIn>
						<pproTicksOut>14953075200000</pproTicksOut>
						<alphatype>none</alphatype>
						<file id="file-1"/>
						<logginginfo>
							<description></description>
							<scene></scene>
							<shottake></shottake>
							<lognote></lognote>
							<good></good>
							<originalvideofilename></originalvideofilename>
							<originalaudiofilename></originalaudiofilename>
						</logginginfo>
						<colorinfo>
							<lut></lut>
							<lut1></lut1>
							<asc_sop></asc_sop>
							<asc_sat></asc_sat>
							<lut2></lut2>
						</colorinfo>
						<labels>
							<label2>Violet</label2>
						</labels>
					</clipitem>
					<clipitem id="clipitem-6">
						<masterclipid>masterclip-1</masterclipid>
						<name>VT1.0001.mp4</name>
						<enabled>TRUE</enabled>
						<duration>27156</duration>
						<rate>
							<timebase>30</timebase>
							<ntsc>FALSE</ntsc>
						</rate>
						<start>1808</start>
						<end>1933</end>
						<in>1808</in>
						<out>1933</out>
						<pproTicksIn>15308697600000</pproTicksIn>
						<pproTicksOut>16367097600000</pproTicksOut>
						<alphatype>none</alphatype>
						<file id="file-1"/>
						<logginginfo>
							<description></description>
							<scene></scene>
							<shottake></shottake>
							<lognote></lognote>
							<good></good>
							<originalvideofilename></originalvideofilename>
							<originalaudiofilename></originalaudiofilename>
						</logginginfo>
						<colorinfo>
							<lut></lut>
							<lut1></lut1>
							<asc_sop></asc_sop>
							<asc_sat></asc_sat>
							<lut2></lut2>
						</colorinfo>
						<labels>
							<label2>Violet</label2>
						</labels>
					</clipitem>
					<clipitem id="clipitem-7">
						<masterclipid>masterclip-1</masterclipid>
						<name>VT1.0001.mp4</name>
						<enabled>TRUE</enabled>
						<duration>27156</duration>
						<rate>
							<timebase>30</timebase>
							<ntsc>FALSE</ntsc>
						</rate>
						<start>1966</start>
						<end>2194</end>
						<in>1966</in>
						<out>2194</out>
						<pproTicksIn>16646515200000</pproTicksIn>
						<pproTicksOut>18577036800000</pproTicksOut>
						<alphatype>none</alphatype>
						<file id="file-1"/>
						<logginginfo>
							<description></description>
							<scene></scene>
							<shottake></shottake>
							<lognote></lognote>
							<good></good>
							<originalvideofilename></originalvideofilename>
							<originalaudiofilename></originalaudiofilename>
						</logginginfo>
						<colorinfo>
							<lut></lut>
							<lut1></lut1>
							<asc_sop></asc_sop>
							<asc_sat></asc_sat>
							<lut2></lut2>
						</colorinfo>
						<labels>
							<label2>Violet</label2>
						</labels>
					</clipitem>
					<clipitem id="clipitem-8">
						<masterclipid>masterclip-1</masterclipid>
						<name>VT1.0001.mp4</name>
						<enabled>TRUE</enabled>
						<duration>27156</duration>
						<rate>
							<timebase>30</timebase>
							<ntsc>FALSE</ntsc>
						</rate>
						<start>2261</start>
						<end>2382</end>
						<in>2261</in>
						<out>2382</out>
						<pproTicksIn>19144339200000</pproTicksIn>
						<pproTicksOut>20168870400000</pproTicksOut>
						<alphatype>none</alphatype>
						<file id="file-1"/>
						<logginginfo>
							<description></description>
							<scene></scene>
							<shottake></shottake>
							<lognote></lognote>
							<good></good>
							<originalvideofilename></originalvideofilename>
							<originalaudiofilename></originalaudiofilename>
						</logginginfo>
						<colorinfo>
							<lut></lut>
							<lut1></lut1>
							<asc_sop></asc_sop>
							<asc_sat></asc_sat>
							<lut2></lut2>
						</colorinfo>
						<labels>
							<label2>Violet</label2>
						</labels>
					</clipitem>
					<clipitem id="clipitem-9">
						<masterclipid>masterclip-1</masterclipid>
						<name>VT1.0001.mp4</name>
						<enabled>TRUE</enabled>
						<duration>27156</duration>
						<rate>
							<timebase>30</timebase>
							<ntsc>FALSE</ntsc>
						</rate>
						<start>2490</start>
						<end>2503</end>
						<in>2490</in>
						<out>2503</out>
						<pproTicksIn>21083328000000</pproTicksIn>
						<pproTicksOut>21193401600000</pproTicksOut>
						<alphatype>none</alphatype>
						<file id="file-1"/>
						<logginginfo>
							<description></description>
							<scene></scene>
							<shottake></shottake>
							<lognote></lognote>
							<good></good>
							<originalvideofilename></originalvideofilename>
							<originalaudiofilename></originalaudiofilename>
						</logginginfo>
						<colorinfo>
							<lut></lut>
							<lut1></lut1>
							<asc_sop></asc_sop>
							<asc_sat></asc_sat>
							<lut2></lut2>
						</colorinfo>
						<labels>
							<label2>Violet</label2>
						</labels>
					</clipitem>
					<clipitem id="clipitem-10">
						<masterclipid>masterclip-1</masterclipid>
						<name>VT1.0001.mp4</name>
						<enabled>TRUE</enabled>
						<duration>27156</duration>
						<rate>
							<timebase>30</timebase>
							<ntsc>FALSE</ntsc>
						</rate>
						<start>2503</start>
						<end>2696</end>
						<in>2503</in>
						<out>2696</out>
						<pproTicksIn>21193401600000</pproTicksIn>
						<pproTicksOut>22827571200000</pproTicksOut>
						<alphatype>none</alphatype>
						<file id="file-1"/>
						<logginginfo>
							<description></description>
							<scene></scene>
							<shottake></shottake>
							<lognote></lognote>
							<good></good>
							<originalvideofilename></originalvideofilename>
							<originalaudiofilename></originalaudiofilename>
						</logginginfo>
						<colorinfo>
							<lut></lut>
							<lut1></lut1>
							<asc_sop></asc_sop>
							<asc_sat></asc_sat>
							<lut2></lut2>
						</colorinfo>
						<labels>
							<label2>Violet</label2>
						</labels>
					</clipitem>
					<clipitem id="clipitem-11">
						<masterclipid>masterclip-1</masterclipid>
						<name>VT1.0001.mp4</name>
						<enabled>TRUE</enabled>
						<duration>27156</duration>
						<rate>
							<timebase>30</timebase>
							<ntsc>FALSE</ntsc>
						</rate>
						<start>2696</start>
						<end>2705</end>
						<in>2696</in>
						<out>2705</out>
						<pproTicksIn>22827571200000</pproTicksIn>
						<pproTicksOut>22903776000000</pproTicksOut>
						<alphatype>none</alphatype>
						<file id="file-1"/>
						<logginginfo>
							<description></description>
							<scene></scene>
							<shottake></shottake>
							<lognote></lognote>
							<good></good>
							<originalvideofilename></originalvideofilename>
							<originalaudiofilename></originalaudiofilename>
						</logginginfo>
						<colorinfo>
							<lut></lut>
							<lut1></lut1>
							<asc_sop></asc_sop>
							<asc_sat></asc_sat>
							<lut2></lut2>
						</colorinfo>
						<labels>
							<label2>Violet</label2>
						</labels>
					</clipitem>
					<clipitem id="clipitem-12">
						<masterclipid>masterclip-1</masterclipid>
						<name>VT1.0001.mp4</name>
						<enabled>TRUE</enabled>
						<duration>27156</duration>
						<rate>
							<timebase>30</timebase>
							<ntsc>FALSE</ntsc>
						</rate>
						<start>2705</start>
						<end>2790</end>
						<in>2705</in>
						<out>2790</out>
						<pproTicksIn>22903776000000</pproTicksIn>
						<pproTicksOut>23623488000000</pproTicksOut>
						<alphatype>none</alphatype>
						<file id="file-1"/>
						<logginginfo>
							<description></description>
							<scene></scene>
							<shottake></shottake>
							<lognote></lognote>
							<good></good>
							<originalvideofilename></originalvideofilename>
							<originalaudiofilename></originalaudiofilename>
						</logginginfo>
						<colorinfo>
							<lut></lut>
							<lut1></lut1>
							<asc_sop></asc_sop>
							<asc_sat></asc_sat>
							<lut2></lut2>
						</colorinfo>
						<labels>
							<label2>Violet</label2>
						</labels>
					</clipitem>
					<clipitem id="clipitem-13">
						<masterclipid>masterclip-1</masterclipid>
						<name>VT1.0001.mp4</name>
						<enabled>TRUE</enabled>
						<duration>27156</duration>
						<rate>
							<timebase>30</timebase>
							<ntsc>FALSE</ntsc>
						</rate>
						<start>2790</start>
						<end>2905</end>
						<in>2790</in>
						<out>2905</out>
						<pproTicksIn>23623488000000</pproTicksIn>
						<pproTicksOut>24597216000000</pproTicksOut>
						<alphatype>none</alphatype>
						<file id="file-1"/>
						<logginginfo>
							<description></description>
							<scene></scene>
							<shottake></shottake>
							<lognote></lognote>
							<good></good>
							<originalvideofilename></originalvideofilename>
							<originalaudiofilename></originalaudiofilename>
						</logginginfo>
						<colorinfo>
							<lut></lut>
							<lut1></lut1>
							<asc_sop></asc_sop>
							<asc_sat></asc_sat>
							<lut2></lut2>
						</colorinfo>
						<labels>
							<label2>Violet</label2>
						</labels>
					</clipitem>
					<clipitem id="clipitem-14">
						<masterclipid>masterclip-1</masterclipid>
						<name>VT1.0001.mp4</name>
						<enabled>TRUE</enabled>
						<duration>27156</duration>
						<rate>
							<timebase>30</timebase>
							<ntsc>FALSE</ntsc>
						</rate>
						<start>2905</start>
						<end>2915</end>
						<in>2905</in>
						<out>2915</out>
						<pproTicksIn>24597216000000</pproTicksIn>
						<pproTicksOut>24681888000000</pproTicksOut>
						<alphatype>none</alphatype>
						<file id="file-1"/>
						<logginginfo>
							<description></description>
							<scene></scene>
							<shottake></shottake>
							<lognote></lognote>
							<good></good>
							<originalvideofilename></originalvideofilename>
							<originalaudiofilename></originalaudiofilename>
						</logginginfo>
						<colorinfo>
							<lut></lut>
							<lut1></lut1>
							<asc_sop></asc_sop>
							<asc_sat></asc_sat>
							<lut2></lut2>
						</colorinfo>
						<labels>
							<label2>Violet</label2>
						</labels>
					</clipitem>
					<clipitem id="clipitem-15">
						<masterclipid>masterclip-1</masterclipid>
						<name>VT1.0001.mp4</name>
						<enabled>TRUE</enabled>
						<duration>27156</duration>
						<rate>
							<timebase>30</timebase>
							<ntsc>FALSE</ntsc>
						</rate>
						<start>2924</start>
						<end>3378</end>
						<in>2924</in>
						<out>3378</out>
						<pproTicksIn>24758092800000</pproTicksIn>
						<pproTicksOut>28602201600000</pproTicksOut>
						<alphatype>none</alphatype>
						<file id="file-1"/>
						<logginginfo>
							<description></description>
							<scene></scene>
							<shottake></shottake>
							<lognote></lognote>
							<good></good>
							<originalvideofilename></originalvideofilename>
							<originalaudiofilename></originalaudiofilename>
						</logginginfo>
						<colorinfo>
							<lut></lut>
							<lut1></lut1>
							<asc_sop></asc_sop>
							<asc_sat></asc_sat>
							<lut2></lut2>
						</colorinfo>
						<labels>
							<label2>Violet</label2>
						</labels>
					</clipitem>
					<clipitem id="clipitem-16">
						<masterclipid>masterclip-1</masterclipid>
						<name>VT1.0001.mp4</name>
						<enabled>TRUE</enabled>
						<duration>27156</duration>
						<rate>
							<timebase>30</timebase>
							<ntsc>FALSE</ntsc>
						</rate>
						<start>3411</start>
						<end>4070</end>
						<in>3411</in>
						<out>4070</out>
						<pproTicksIn>28881619200000</pproTicksIn>
						<pproTicksOut>34461504000000</pproTicksOut>
						<alphatype>none</alphatype>
						<file id="file-1"/>
						<logginginfo>
							<description></description>
							<scene></scene>
							<shottake></shottake>
							<lognote></lognote>
							<good></good>
							<originalvideofilename></originalvideofilename>
							<originalaudiofilename></originalaudiofilename>
						</logginginfo>
						<colorinfo>
							<lut></lut>
							<lut1></lut1>
							<asc_sop></asc_sop>
							<asc_sat></asc_sat>
							<lut2></lut2>
						</colorinfo>
						<labels>
							<label2>Violet</label2>
						</labels>
					</clipitem>
					<clipitem id="clipitem-17">
						<masterclipid>masterclip-1</masterclipid>
						<name>VT1.0001.mp4</name>
						<enabled>TRUE</enabled>
						<duration>27156</duration>
						<rate>
							<timebase>30</timebase>
							<ntsc>FALSE</ntsc>
						</rate>
						<start>4169</start>
						<end>4443</end>
						<in>4169</in>
						<out>4443</out>
						<pproTicksIn>35299756800000</pproTicksIn>
						<pproTicksOut>37619769600000</pproTicksOut>
						<alphatype>none</alphatype>
						<file id="file-1"/>
						<logginginfo>
							<description></description>
							<scene></scene>
							<shottake></shottake>
							<lognote></lognote>
							<good></good>
							<originalvideofilename></originalvideofilename>
							<originalaudiofilename></originalaudiofilename>
						</logginginfo>
						<colorinfo>
							<lut></lut>
							<lut1></lut1>
							<asc_sop></asc_sop>
							<asc_sat></asc_sat>
							<lut2></lut2>
						</colorinfo>
						<labels>
							<label2>Violet</label2>
						</labels>
					</clipitem>
					<clipitem id="clipitem-18">
						<masterclipid>masterclip-1</masterclipid>
						<name>VT1.0001.mp4</name>
						<enabled>TRUE</enabled>
						<duration>27156</duration>
						<rate>
							<timebase>30</timebase>
							<ntsc>FALSE</ntsc>
						</rate>
						<start>4607</start>
						<end>4862</end>
						<in>4607</in>
						<out>4862</out>
						<pproTicksIn>39008390400000</pproTicksIn>
						<pproTicksOut>41167526400000</pproTicksOut>
						<alphatype>none</alphatype>
						<file id="file-1"/>
						<logginginfo>
							<description></description>
							<scene></scene>
							<shottake></shottake>
							<lognote></lognote>
							<good></good>
							<originalvideofilename></originalvideofilename>
							<originalaudiofilename></originalaudiofilename>
						</logginginfo>
						<colorinfo>
							<lut></lut>
							<lut1></lut1>
							<asc_sop></asc_sop>
							<asc_sat></asc_sat>
							<lut2></lut2>
						</colorinfo>
						<labels>
							<label2>Violet</label2>
						</labels>
					</clipitem>
					<clipitem id="clipitem-19">
						<masterclipid>masterclip-1</masterclipid>
						<name>VT1.0001.mp4</name>
						<enabled>TRUE</enabled>
						<duration>27156</duration>
						<rate>
							<timebase>30</timebase>
							<ntsc>FALSE</ntsc>
						</rate>
						<start>4975</start>
						<end>5122</end>
						<in>4975</in>
						<out>5122</out>
						<pproTicksIn>42124320000000</pproTicksIn>
						<pproTicksOut>43368998400000</pproTicksOut>
						<alphatype>none</alphatype>
						<file id="file-1"/>
						<logginginfo>
							<description></description>
							<scene></scene>
							<shottake></shottake>
							<lognote></lognote>
							<good></good>
							<originalvideofilename></originalvideofilename>
							<originalaudiofilename></originalaudiofilename>
						</logginginfo>
						<colorinfo>
							<lut></lut>
							<lut1></lut1>
							<asc_sop></asc_sop>
							<asc_sat></asc_sat>
							<lut2></lut2>
						</colorinfo>
						<labels>
							<label2>Violet</label2>
						</labels>
					</clipitem>
					<clipitem id="clipitem-20">
						<masterclipid>masterclip-1</masterclipid>
						<name>VT1.0001.mp4</name>
						<enabled>TRUE</enabled>
						<duration>27156</duration>
						<rate>
							<timebase>30</timebase>
							<ntsc>FALSE</ntsc>
						</rate>
						<start>5172</start>
						<end>5191</end>
						<in>5172</in>
						<out>5191</out>
						<pproTicksIn>43792358400000</pproTicksIn>
						<pproTicksOut>43953235200000</pproTicksOut>
						<alphatype>none</alphatype>
						<file id="file-1"/>
						<logginginfo>
							<description></description>
							<scene></scene>
							<shottake></shottake>
							<lognote></lognote>
							<good></good>
							<originalvideofilename></originalvideofilename>
							<originalaudiofilename></originalaudiofilename>
						</logginginfo>
						<colorinfo>
							<lut></lut>
							<lut1></lut1>
							<asc_sop></asc_sop>
							<asc_sat></asc_sat>
							<lut2></lut2>
						</colorinfo>
						<labels>
							<label2>Violet</label2>
						</labels>
					</clipitem>
					<clipitem id="clipitem-21">
						<masterclipid>masterclip-1</masterclipid>
						<name>VT1.0001.mp4</name>
						<enabled>TRUE</enabled>
						<duration>27156</duration>
						<rate>
							<timebase>30</timebase>
							<ntsc>FALSE</ntsc>
						</rate>
						<start>5191</start>
						<end>6073</end>
						<in>5191</in>
						<out>6073</out>
						<pproTicksIn>43953235200000</pproTicksIn>
						<pproTicksOut>51421305600000</pproTicksOut>
						<alphatype>none</alphatype>
						<file id="file-1"/>
						<logginginfo>
							<description></description>
							<scene></scene>
							<shottake></shottake>
							<lognote></lognote>
							<good></good>
							<originalvideofilename></originalvideofilename>
							<originalaudiofilename></originalaudiofilename>
						</logginginfo>
						<colorinfo>
							<lut></lut>
							<lut1></lut1>
							<asc_sop></asc_sop>
							<asc_sat></asc_sat>
							<lut2></lut2>
						</colorinfo>
						<labels>
							<label2>Violet</label2>
						</labels>
					</clipitem>
					<clipitem id="clipitem-22">
						<masterclipid>masterclip-1</masterclipid>
						<name>VT1.0001.mp4</name>
						<enabled>TRUE</enabled>
						<duration>27156</duration>
						<rate>
							<timebase>30</timebase>
							<ntsc>FALSE</ntsc>
						</rate>
						<start>6073</start>
						<end>6083</end>
						<in>6073</in>
						<out>6083</out>
						<pproTicksIn>51421305600000</pproTicksIn>
						<pproTicksOut>51505977600000</pproTicksOut>
						<alphatype>none</alphatype>
						<file id="file-1"/>
						<logginginfo>
							<description></description>
							<scene></scene>
							<shottake></shottake>
							<lognote></lognote>
							<good></good>
							<originalvideofilename></originalvideofilename>
							<originalaudiofilename></originalaudiofilename>
						</logginginfo>
						<colorinfo>
							<lut></lut>
							<lut1></lut1>
							<asc_sop></asc_sop>
							<asc_sat></asc_sat>
							<lut2></lut2>
						</colorinfo>
						<labels>
							<label2>Violet</label2>
						</labels>
					</clipitem>
					<clipitem id="clipitem-23">
						<masterclipid>masterclip-1</masterclipid>
						<name>VT1.0001.mp4</name>
						<enabled>TRUE</enabled>
						<duration>27156</duration>
						<rate>
							<timebase>30</timebase>
							<ntsc>FALSE</ntsc>
						</rate>
						<start>6083</start>
						<end>6363</end>
						<in>6083</in>
						<out>6363</out>
						<pproTicksIn>51505977600000</pproTicksIn>
						<pproTicksOut>53876793600000</pproTicksOut>
						<alphatype>none</alphatype>
						<file id="file-1"/>
						<logginginfo>
							<description></description>
							<scene></scene>
							<shottake></shottake>
							<lognote></lognote>
							<good></good>
							<originalvideofilename></originalvideofilename>
							<originalaudiofilename></originalaudiofilename>
						</logginginfo>
						<colorinfo>
							<lut></lut>
							<lut1></lut1>
							<asc_sop></asc_sop>
							<asc_sat></asc_sat>
							<lut2></lut2>
						</colorinfo>
						<labels>
							<label2>Violet</label2>
						</labels>
					</clipitem>
					<clipitem id="clipitem-24">
						<masterclipid>masterclip-1</masterclipid>
						<name>VT1.0001.mp4</name>
						<enabled>TRUE</enabled>
						<duration>27156</duration>
						<rate>
							<timebase>30</timebase>
							<ntsc>FALSE</ntsc>
						</rate>
						<start>6407</start>
						<end>7494</end>
						<in>6407</in>
						<out>7494</out>
						<pproTicksIn>54249350400000</pproTicksIn>
						<pproTicksOut>63453196800000</pproTicksOut>
						<alphatype>none</alphatype>
						<file id="file-1"/>
						<logginginfo>
							<description></description>
							<scene></scene>
							<shottake></shottake>
							<lognote></lognote>
							<good></good>
							<originalvideofilename></originalvideofilename>
							<originalaudiofilename></originalaudiofilename>
						</logginginfo>
						<colorinfo>
							<lut></lut>
							<lut1></lut1>
							<asc_sop></asc_sop>
							<asc_sat></asc_sat>
							<lut2></lut2>
						</colorinfo>
						<labels>
							<label2>Violet</label2>
						</labels>
					</clipitem>
					<clipitem id="clipitem-25">
						<masterclipid>masterclip-1</masterclipid>
						<name>VT1.0001.mp4</name>
						<enabled>TRUE</enabled>
						<duration>27156</duration>
						<rate>
							<timebase>30</timebase>
							<ntsc>FALSE</ntsc>
						</rate>
						<start>7494</start>
						<end>7509</end>
						<in>7494</in>
						<out>7509</out>
						<pproTicksIn>63453196800000</pproTicksIn>
						<pproTicksOut>63580204800000</pproTicksOut>
						<alphatype>none</alphatype>
						<file id="file-1"/>
						<logginginfo>
							<description></description>
							<scene></scene>
							<shottake></shottake>
							<lognote></lognote>
							<good></good>
							<originalvideofilename></originalvideofilename>
							<originalaudiofilename></originalaudiofilename>
						</logginginfo>
						<colorinfo>
							<lut></lut>
							<lut1></lut1>
							<asc_sop></asc_sop>
							<asc_sat></asc_sat>
							<lut2></lut2>
						</colorinfo>
						<labels>
							<label2>Violet</label2>
						</labels>
					</clipitem>
					<clipitem id="clipitem-26">
						<masterclipid>masterclip-1</masterclipid>
						<name>VT1.0001.mp4</name>
						<enabled>TRUE</enabled>
						<duration>27156</duration>
						<rate>
							<timebase>30</timebase>
							<ntsc>FALSE</ntsc>
						</rate>
						<start>7509</start>
						<end>7526</end>
						<in>7509</in>
						<out>7526</out>
						<pproTicksIn>63580204800000</pproTicksIn>
						<pproTicksOut>63724147200000</pproTicksOut>
						<alphatype>none</alphatype>
						<file id="file-1"/>
						<logginginfo>
							<description></description>
							<scene></scene>
							<shottake></shottake>
							<lognote></lognote>
							<good></good>
							<originalvideofilename></originalvideofilename>
							<originalaudiofilename></originalaudiofilename>
						</logginginfo>
						<colorinfo>
							<lut></lut>
							<lut1></lut1>
							<asc_sop></asc_sop>
							<asc_sat></asc_sat>
							<lut2></lut2>
						</colorinfo>
						<labels>
							<label2>Violet</label2>
						</labels>
					</clipitem>
					<clipitem id="clipitem-27">
						<masterclipid>masterclip-1</masterclipid>
						<name>VT1.0001.mp4</name>
						<enabled>TRUE</enabled>
						<duration>27156</duration>
						<rate>
							<timebase>30</timebase>
							<ntsc>FALSE</ntsc>
						</rate>
						<start>7526</start>
						<end>7655</end>
						<in>7526</in>
						<out>7655</out>
						<pproTicksIn>63724147200000</pproTicksIn>
						<pproTicksOut>64816416000000</pproTicksOut>
						<alphatype>none</alphatype>
						<file id="file-1"/>
						<logginginfo>
							<description></description>
							<scene></scene>
							<shottake></shottake>
							<lognote></lognote>
							<good></good>
							<originalvideofilename></originalvideofilename>
							<originalaudiofilename></originalaudiofilename>
						</logginginfo>
						<colorinfo>
							<lut></lut>
							<lut1></lut1>
							<asc_sop></asc_sop>
							<asc_sat></asc_sat>
							<lut2></lut2>
						</colorinfo>
						<labels>
							<label2>Violet</label2>
						</labels>
					</clipitem>
					<clipitem id="clipitem-28">
						<masterclipid>masterclip-1</masterclipid>
						<name>VT1.0001.mp4</name>
						<enabled>TRUE</enabled>
						<duration>27156</duration>
						<rate>
							<timebase>30</timebase>
							<ntsc>FALSE</ntsc>
						</rate>
						<start>7749</start>
						<end>9269</end>
						<in>7749</in>
						<out>9269</out>
						<pproTicksIn>65612332800000</pproTicksIn>
						<pproTicksOut>78482476800000</pproTicksOut>
						<alphatype>none</alphatype>
						<file id="file-1"/>
						<logginginfo>
							<description></description>
							<scene></scene>
							<shottake></shottake>
							<lognote></lognote>
							<good></good>
							<originalvideofilename></originalvideofilename>
							<originalaudiofilename></originalaudiofilename>
						</logginginfo>
						<colorinfo>
							<lut></lut>
							<lut1></lut1>
							<asc_sop></asc_sop>
							<asc_sat></asc_sat>
							<lut2></lut2>
						</colorinfo>
						<labels>
							<label2>Violet</label2>
						</labels>
					</clipitem>
					<clipitem id="clipitem-29">
						<masterclipid>masterclip-1</masterclipid>
						<name>VT1.0001.mp4</name>
						<enabled>TRUE</enabled>
						<duration>27156</duration>
						<rate>
							<timebase>30</timebase>
							<ntsc>FALSE</ntsc>
						</rate>
						<start>9311</start>
						<end>9795</end>
						<in>9311</in>
						<out>9795</out>
						<pproTicksIn>78838099200000</pproTicksIn>
						<pproTicksOut>82936224000000</pproTicksOut>
						<alphatype>none</alphatype>
						<file id="file-1"/>
						<logginginfo>
							<description></description>
							<scene></scene>
							<shottake></shottake>
							<lognote></lognote>
							<good></good>
							<originalvideofilename></originalvideofilename>
							<originalaudiofilename></originalaudiofilename>
						</logginginfo>
						<colorinfo>
							<lut></lut>
							<lut1></lut1>
							<asc_sop></asc_sop>
							<asc_sat></asc_sat>
							<lut2></lut2>
						</colorinfo>
						<labels>
							<label2>Violet</label2>
						</labels>
					</clipitem>
					<clipitem id="clipitem-30">
						<masterclipid>masterclip-1</masterclipid>
						<name>VT1.0001.mp4</name>
						<enabled>TRUE</enabled>
						<duration>27156</duration>
						<rate>
							<timebase>30</timebase>
							<ntsc>FALSE</ntsc>
						</rate>
						<start>9843</start>
						<end>10007</end>
						<in>9843</in>
						<out>10007</out>
						<pproTicksIn>83342649600000</pproTicksIn>
						<pproTicksOut>84731270400000</pproTicksOut>
						<alphatype>none</alphatype>
						<file id="file-1"/>
						<logginginfo>
							<description></description>
							<scene></scene>
							<shottake></shottake>
							<lognote></lognote>
							<good></good>
							<originalvideofilename></originalvideofilename>
							<originalaudiofilename></originalaudiofilename>
						</logginginfo>
						<colorinfo>
							<lut></lut>
							<lut1></lut1>
							<asc_sop></asc_sop>
							<asc_sat></asc_sat>
							<lut2></lut2>
						</colorinfo>
						<labels>
							<label2>Violet</label2>
						</labels>
					</clipitem>
					<clipitem id="clipitem-31">
						<masterclipid>masterclip-1</masterclipid>
						<name>VT1.0001.mp4</name>
						<enabled>TRUE</enabled>
						<duration>27156</duration>
						<rate>
							<timebase>30</timebase>
							<ntsc>FALSE</ntsc>
						</rate>
						<start>10007</start>
						<end>10031</end>
						<in>10007</in>
						<out>10031</out>
						<pproTicksIn>84731270400000</pproTicksIn>
						<pproTicksOut>84934483200000</pproTicksOut>
						<alphatype>none</alphatype>
						<file id="file-1"/>
						<logginginfo>
							<description></description>
							<scene></scene>
							<shottake></shottake>
							<lognote></lognote>
							<good></good>
							<originalvideofilename></originalvideofilename>
							<originalaudiofilename></originalaudiofilename>
						</logginginfo>
						<colorinfo>
							<lut></lut>
							<lut1></lut1>
							<asc_sop></asc_sop>
							<asc_sat></asc_sat>
							<lut2></lut2>
						</colorinfo>
						<labels>
							<label2>Violet</label2>
						</labels>
					</clipitem>
					<clipitem id="clipitem-32">
						<masterclipid>masterclip-1</masterclipid>
						<name>VT1.0001.mp4</name>
						<enabled>TRUE</enabled>
						<duration>27156</duration>
						<rate>
							<timebase>30</timebase>
							<ntsc>FALSE</ntsc>
						</rate>
						<start>10031</start>
						<end>10201</end>
						<in>10031</in>
						<out>10201</out>
						<pproTicksIn>84934483200000</pproTicksIn>
						<pproTicksOut>86373907200000</pproTicksOut>
						<alphatype>none</alphatype>
						<file id="file-1"/>
						<logginginfo>
							<description></description>
							<scene></scene>
							<shottake></shottake>
							<lognote></lognote>
							<good></good>
							<originalvideofilename></originalvideofilename>
							<originalaudiofilename></originalaudiofilename>
						</logginginfo>
						<colorinfo>
							<lut></lut>
							<lut1></lut1>
							<asc_sop></asc_sop>
							<asc_sat></asc_sat>
							<lut2></lut2>
						</colorinfo>
						<labels>
							<label2>Violet</label2>
						</labels>
					</clipitem>
					<clipitem id="clipitem-33">
						<masterclipid>masterclip-1</masterclipid>
						<name>VT1.0001.mp4</name>
						<enabled>TRUE</enabled>
						<duration>27156</duration>
						<rate>
							<timebase>30</timebase>
							<ntsc>FALSE</ntsc>
						</rate>
						<start>10254</start>
						<end>10290</end>
						<in>10254</in>
						<out>10290</out>
						<pproTicksIn>86822668800000</pproTicksIn>
						<pproTicksOut>87127488000000</pproTicksOut>
						<alphatype>none</alphatype>
						<file id="file-1"/>
						<logginginfo>
							<description></description>
							<scene></scene>
							<shottake></shottake>
							<lognote></lognote>
							<good></good>
							<originalvideofilename></originalvideofilename>
							<originalaudiofilename></originalaudiofilename>
						</logginginfo>
						<colorinfo>
							<lut></lut>
							<lut1></lut1>
							<asc_sop></asc_sop>
							<asc_sat></asc_sat>
							<lut2></lut2>
						</colorinfo>
						<labels>
							<label2>Violet</label2>
						</labels>
					</clipitem>
					<clipitem id="clipitem-34">
						<masterclipid>masterclip-1</masterclipid>
						<name>VT1.0001.mp4</name>
						<enabled>TRUE</enabled>
						<duration>27156</duration>
						<rate>
							<timebase>30</timebase>
							<ntsc>FALSE</ntsc>
						</rate>
						<start>10290</start>
						<end>10416</end>
						<in>10290</in>
						<out>10416</out>
						<pproTicksIn>87127488000000</pproTicksIn>
						<pproTicksOut>88194355200000</pproTicksOut>
						<alphatype>none</alphatype>
						<file id="file-1"/>
						<logginginfo>
							<description></description>
							<scene></scene>
							<shottake></shottake>
							<lognote></lognote>
							<good></good>
							<originalvideofilename></originalvideofilename>
							<originalaudiofilename></originalaudiofilename>
						</logginginfo>
						<colorinfo>
							<lut></lut>
							<lut1></lut1>
							<asc_sop></asc_sop>
							<asc_sat></asc_sat>
							<lut2></lut2>
						</colorinfo>
						<labels>
							<label2>Violet</label2>
						</labels>
					</clipitem>
					<clipitem id="clipitem-35">
						<masterclipid>masterclip-1</masterclipid>
						<name>VT1.0001.mp4</name>
						<enabled>TRUE</enabled>
						<duration>27156</duration>
						<rate>
							<timebase>30</timebase>
							<ntsc>FALSE</ntsc>
						</rate>
						<start>10442</start>
						<end>12521</end>
						<in>10442</in>
						<out>12521</out>
						<pproTicksIn>88414502400000</pproTicksIn>
						<pproTicksOut>106017811200000</pproTicksOut>
						<alphatype>none</alphatype>
						<file id="file-1"/>
						<logginginfo>
							<description></description>
							<scene></scene>
							<shottake></shottake>
							<lognote></lognote>
							<good></good>
							<originalvideofilename></originalvideofilename>
							<originalaudiofilename></originalaudiofilename>
						</logginginfo>
						<colorinfo>
							<lut></lut>
							<lut1></lut1>
							<asc_sop></asc_sop>
							<asc_sat></asc_sat>
							<lut2></lut2>
						</colorinfo>
						<labels>
							<label2>Violet</label2>
						</labels>
					</clipitem>
					<clipitem id="clipitem-36">
						<masterclipid>masterclip-1</masterclipid>
						<name>VT1.0001.mp4</name>
						<enabled>TRUE</enabled>
						<duration>27156</duration>
						<rate>
							<timebase>30</timebase>
							<ntsc>FALSE</ntsc>
						</rate>
						<start>12541</start>
						<end>13029</end>
						<in>12541</in>
						<out>13029</out>
						<pproTicksIn>106187155200000</pproTicksIn>
						<pproTicksOut>110319148800000</pproTicksOut>
						<alphatype>none</alphatype>
						<file id="file-1"/>
						<logginginfo>
							<description></description>
							<scene></scene>
							<shottake></shottake>
							<lognote></lognote>
							<good></good>
							<originalvideofilename></originalvideofilename>
							<originalaudiofilename></originalaudiofilename>
						</logginginfo>
						<colorinfo>
							<lut></lut>
							<lut1></lut1>
							<asc_sop></asc_sop>
							<asc_sat></asc_sat>
							<lut2></lut2>
						</colorinfo>
						<labels>
							<label2>Violet</label2>
						</labels>
					</clipitem>
					<clipitem id="clipitem-37">
						<masterclipid>masterclip-1</masterclipid>
						<name>VT1.0001.mp4</name>
						<enabled>TRUE</enabled>
						<duration>27156</duration>
						<rate>
							<timebase>30</timebase>
							<ntsc>FALSE</ntsc>
						</rate>
						<start>13386</start>
						<end>13528</end>
						<in>13386</in>
						<out>13528</out>
						<pproTicksIn>113341939200000</pproTicksIn>
						<pproTicksOut>114544281600000</pproTicksOut>
						<alphatype>none</alphatype>
						<file id="file-1"/>
						<logginginfo>
							<description></description>
							<scene></scene>
							<shottake></shottake>
							<lognote></lognote>
							<good></good>
							<originalvideofilename></originalvideofilename>
							<originalaudiofilename></originalaudiofilename>
						</logginginfo>
						<colorinfo>
							<lut></lut>
							<lut1></lut1>
							<asc_sop></asc_sop>
							<asc_sat></asc_sat>
							<lut2></lut2>
						</colorinfo>
						<labels>
							<label2>Violet</label2>
						</labels>
					</clipitem>
					<clipitem id="clipitem-38">
						<masterclipid>masterclip-1</masterclipid>
						<name>VT1.0001.mp4</name>
						<enabled>TRUE</enabled>
						<duration>27156</duration>
						<rate>
							<timebase>30</timebase>
							<ntsc>FALSE</ntsc>
						</rate>
						<start>13629</start>
						<end>14070</end>
						<in>13629</in>
						<out>14070</out>
						<pproTicksIn>115399468800000</pproTicksIn>
						<pproTicksOut>119133504000000</pproTicksOut>
						<alphatype>none</alphatype>
						<file id="file-1"/>
						<logginginfo>
							<description></description>
							<scene></scene>
							<shottake></shottake>
							<lognote></lognote>
							<good></good>
							<originalvideofilename></originalvideofilename>
							<originalaudiofilename></originalaudiofilename>
						</logginginfo>
						<colorinfo>
							<lut></lut>
							<lut1></lut1>
							<asc_sop></asc_sop>
							<asc_sat></asc_sat>
							<lut2></lut2>
						</colorinfo>
						<labels>
							<label2>Violet</label2>
						</labels>
					</clipitem>
					<clipitem id="clipitem-39">
						<masterclipid>masterclip-1</masterclipid>
						<name>VT1.0001.mp4</name>
						<enabled>TRUE</enabled>
						<duration>27156</duration>
						<rate>
							<timebase>30</timebase>
							<ntsc>FALSE</ntsc>
						</rate>
						<start>14105</start>
						<end>14905</end>
						<in>14105</in>
						<out>14905</out>
						<pproTicksIn>119429856000000</pproTicksIn>
						<pproTicksOut>126203616000000</pproTicksOut>
						<alphatype>none</alphatype>
						<file id="file-1"/>
						<logginginfo>
							<description></description>
							<scene></scene>
							<shottake></shottake>
							<lognote></lognote>
							<good></good>
							<originalvideofilename></originalvideofilename>
							<originalaudiofilename></originalaudiofilename>
						</logginginfo>
						<colorinfo>
							<lut></lut>
							<lut1></lut1>
							<asc_sop></asc_sop>
							<asc_sat></asc_sat>
							<lut2></lut2>
						</colorinfo>
						<labels>
							<label2>Violet</label2>
						</labels>
					</clipitem>
					<clipitem id="clipitem-40">
						<masterclipid>masterclip-1</masterclipid>
						<name>VT1.0001.mp4</name>
						<enabled>TRUE</enabled>
						<duration>27156</duration>
						<rate>
							<timebase>30</timebase>
							<ntsc>FALSE</ntsc>
						</rate>
						<start>14963</start>
						<end>16263</end>
						<in>14963</in>
						<out>16263</out>
						<pproTicksIn>126694713600000</pproTicksIn>
						<pproTicksOut>137702073600000</pproTicksOut>
						<alphatype>none</alphatype>
						<file id="file-1"/>
						<logginginfo>
							<description></description>
							<scene></scene>
							<shottake></shottake>
							<lognote></lognote>
							<good></good>
							<originalvideofilename></originalvideofilename>
							<originalaudiofilename></originalaudiofilename>
						</logginginfo>
						<colorinfo>
							<lut></lut>
							<lut1></lut1>
							<asc_sop></asc_sop>
							<asc_sat></asc_sat>
							<lut2></lut2>
						</colorinfo>
						<labels>
							<label2>Violet</label2>
						</labels>
					</clipitem>
					<clipitem id="clipitem-41">
						<masterclipid>masterclip-1</masterclipid>
						<name>VT1.0001.mp4</name>
						<enabled>TRUE</enabled>
						<duration>27156</duration>
						<rate>
							<timebase>30</timebase>
							<ntsc>FALSE</ntsc>
						</rate>
						<start>16297</start>
						<end>16988</end>
						<in>16297</in>
						<out>16988</out>
						<pproTicksIn>137989958400000</pproTicksIn>
						<pproTicksOut>143840793600000</pproTicksOut>
						<alphatype>none</alphatype>
						<file id="file-1"/>
						<logginginfo>
							<description></description>
							<scene></scene>
							<shottake></shottake>
							<lognote></lognote>
							<good></good>
							<originalvideofilename></originalvideofilename>
							<originalaudiofilename></originalaudiofilename>
						</logginginfo>
						<colorinfo>
							<lut></lut>
							<lut1></lut1>
							<asc_sop></asc_sop>
							<asc_sat></asc_sat>
							<lut2></lut2>
						</colorinfo>
						<labels>
							<label2>Violet</label2>
						</labels>
					</clipitem>
					<clipitem id="clipitem-42">
						<masterclipid>masterclip-1</masterclipid>
						<name>VT1.0001.mp4</name>
						<enabled>TRUE</enabled>
						<duration>27156</duration>
						<rate>
							<timebase>30</timebase>
							<ntsc>FALSE</ntsc>
						</rate>
						<start>17053</start>
						<end>17396</end>
						<in>17053</in>
						<out>17396</out>
						<pproTicksIn>144391161600000</pproTicksIn>
						<pproTicksOut>147295411200000</pproTicksOut>
						<alphatype>none</alphatype>
						<file id="file-1"/>
						<logginginfo>
							<description></description>
							<scene></scene>
							<shottake></shottake>
							<lognote></lognote>
							<good></good>
							<originalvideofilename></originalvideofilename>
							<originalaudiofilename></originalaudiofilename>
						</logginginfo>
						<colorinfo>
							<lut></lut>
							<lut1></lut1>
							<asc_sop></asc_sop>
							<asc_sat></asc_sat>
							<lut2></lut2>
						</colorinfo>
						<labels>
							<label2>Violet</label2>
						</labels>
					</clipitem>
					<clipitem id="clipitem-43">
						<masterclipid>masterclip-1</masterclipid>
						<name>VT1.0001.mp4</name>
						<enabled>TRUE</enabled>
						<duration>27156</duration>
						<rate>
							<timebase>30</timebase>
							<ntsc>FALSE</ntsc>
						</rate>
						<start>17408</start>
						<end>17917</end>
						<in>17408</in>
						<out>17917</out>
						<pproTicksIn>147397017600000</pproTicksIn>
						<pproTicksOut>151706822400000</pproTicksOut>
						<alphatype>none</alphatype>
						<file id="file-1"/>
						<logginginfo>
							<description></description>
							<scene></scene>
							<shottake></shottake>
							<lognote></lognote>
							<good></good>
							<originalvideofilename></originalvideofilename>
							<originalaudiofilename></originalaudiofilename>
						</logginginfo>
						<colorinfo>
							<lut></lut>
							<lut1></lut1>
							<asc_sop></asc_sop>
							<asc_sat></asc_sat>
							<lut2></lut2>
						</colorinfo>
						<labels>
							<label2>Violet</label2>
						</labels>
					</clipitem>
					<clipitem id="clipitem-44">
						<masterclipid>masterclip-1</masterclipid>
						<name>VT1.0001.mp4</name>
						<enabled>TRUE</enabled>
						<duration>27156</duration>
						<rate>
							<timebase>30</timebase>
							<ntsc>FALSE</ntsc>
						</rate>
						<start>17962</start>
						<end>20356</end>
						<in>17962</in>
						<out>20356</out>
						<pproTicksIn>152087846400000</pproTicksIn>
						<pproTicksOut>172358323200000</pproTicksOut>
						<alphatype>none</alphatype>
						<file id="file-1"/>
						<logginginfo>
							<description></description>
							<scene></scene>
							<shottake></shottake>
							<lognote></lognote>
							<good></good>
							<originalvideofilename></originalvideofilename>
							<originalaudiofilename></originalaudiofilename>
						</logginginfo>
						<colorinfo>
							<lut></lut>
							<lut1></lut1>
							<asc_sop></asc_sop>
							<asc_sat></asc_sat>
							<lut2></lut2>
						</colorinfo>
						<labels>
							<label2>Violet</label2>
						</labels>
					</clipitem>
					<clipitem id="clipitem-45">
						<masterclipid>masterclip-1</masterclipid>
						<name>VT1.0001.mp4</name>
						<enabled>TRUE</enabled>
						<duration>27156</duration>
						<rate>
							<timebase>30</timebase>
							<ntsc>FALSE</ntsc>
						</rate>
						<start>20387</start>
						<end>20886</end>
						<in>20387</in>
						<out>20886</out>
						<pproTicksIn>172620806400000</pproTicksIn>
						<pproTicksOut>176845939200000</pproTicksOut>
						<alphatype>none</alphatype>
						<file id="file-1"/>
						<logginginfo>
							<description></description>
							<scene></scene>
							<shottake></shottake>
							<lognote></lognote>
							<good></good>
							<originalvideofilename></originalvideofilename>
							<originalaudiofilename></originalaudiofilename>
						</logginginfo>
						<colorinfo>
							<lut></lut>
							<lut1></lut1>
							<asc_sop></asc_sop>
							<asc_sat></asc_sat>
							<lut2></lut2>
						</colorinfo>
						<labels>
							<label2>Violet</label2>
						</labels>
					</clipitem>
					<clipitem id="clipitem-46">
						<masterclipid>masterclip-1</masterclipid>
						<name>VT1.0001.mp4</name>
						<enabled>TRUE</enabled>
						<duration>27156</duration>
						<rate>
							<timebase>30</timebase>
							<ntsc>FALSE</ntsc>
						</rate>
						<start>20919</start>
						<end>21988</end>
						<in>20919</in>
						<out>21988</out>
						<pproTicksIn>177125356800000</pproTicksIn>
						<pproTicksOut>186176793600000</pproTicksOut>
						<alphatype>none</alphatype>
						<file id="file-1"/>
						<logginginfo>
							<description></description>
							<scene></scene>
							<shottake></shottake>
							<lognote></lognote>
							<good></good>
							<originalvideofilename></originalvideofilename>
							<originalaudiofilename></originalaudiofilename>
						</logginginfo>
						<colorinfo>
							<lut></lut>
							<lut1></lut1>
							<asc_sop></asc_sop>
							<asc_sat></asc_sat>
							<lut2></lut2>
						</colorinfo>
						<labels>
							<label2>Violet</label2>
						</labels>
					</clipitem>
					<clipitem id="clipitem-47">
						<masterclipid>masterclip-1</masterclipid>
						<name>VT1.0001.mp4</name>
						<enabled>TRUE</enabled>
						<duration>27156</duration>
						<rate>
							<timebase>30</timebase>
							<ntsc>FALSE</ntsc>
						</rate>
						<start>22015</start>
						<end>23012</end>
						<in>22015</in>
						<out>23012</out>
						<pproTicksIn>186405408000000</pproTicksIn>
						<pproTicksOut>194847206400000</pproTicksOut>
						<alphatype>none</alphatype>
						<file id="file-1"/>
						<logginginfo>
							<description></description>
							<scene></scene>
							<shottake></shottake>
							<lognote></lognote>
							<good></good>
							<originalvideofilename></originalvideofilename>
							<originalaudiofilename></originalaudiofilename>
						</logginginfo>
						<colorinfo>
							<lut></lut>
							<lut1></lut1>
							<asc_sop></asc_sop>
							<asc_sat></asc_sat>
							<lut2></lut2>
						</colorinfo>
						<labels>
							<label2>Violet</label2>
						</labels>
					</clipitem>
					<clipitem id="clipitem-48">
						<masterclipid>masterclip-1</masterclipid>
						<name>VT1.0001.mp4</name>
						<enabled>TRUE</enabled>
						<duration>27156</duration>
						<rate>
							<timebase>30</timebase>
							<ntsc>FALSE</ntsc>
						</rate>
						<start>23093</start>
						<end>24076</end>
						<in>23093</in>
						<out>24076</out>
						<pproTicksIn>195533049600000</pproTicksIn>
						<pproTicksOut>203856307200000</pproTicksOut>
						<alphatype>none</alphatype>
						<file id="file-1"/>
						<logginginfo>
							<description></description>
							<scene></scene>
							<shottake></shottake>
							<lognote></lognote>
							<good></good>
							<originalvideofilename></originalvideofilename>
							<originalaudiofilename></originalaudiofilename>
						</logginginfo>
						<colorinfo>
							<lut></lut>
							<lut1></lut1>
							<asc_sop></asc_sop>
							<asc_sat></asc_sat>
							<lut2></lut2>
						</colorinfo>
						<labels>
							<label2>Violet</label2>
						</labels>
					</clipitem>
					<clipitem id="clipitem-49">
						<masterclipid>masterclip-1</masterclipid>
						<name>VT1.0001.mp4</name>
						<enabled>TRUE</enabled>
						<duration>27156</duration>
						<rate>
							<timebase>30</timebase>
							<ntsc>FALSE</ntsc>
						</rate>
						<start>24163</start>
						<end>24704</end>
						<in>24163</in>
						<out>24704</out>
						<pproTicksIn>204592953600000</pproTicksIn>
						<pproTicksOut>209173708800000</pproTicksOut>
						<alphatype>none</alphatype>
						<file id="file-1"/>
						<logginginfo>
							<description></description>
							<scene></scene>
							<shottake></shottake>
							<lognote></lognote>
							<good></good>
							<originalvideofilename></originalvideofilename>
							<originalaudiofilename></originalaudiofilename>
						</logginginfo>
						<colorinfo>
							<lut></lut>
							<lut1></lut1>
							<asc_sop></asc_sop>
							<asc_sat></asc_sat>
							<lut2></lut2>
						</colorinfo>
						<labels>
							<label2>Violet</label2>
						</labels>
					</clipitem>
					<clipitem id="clipitem-50">
						<masterclipid>masterclip-1</masterclipid>
						<name>VT1.0001.mp4</name>
						<enabled>TRUE</enabled>
						<duration>27156</duration>
						<rate>
							<timebase>30</timebase>
							<ntsc>FALSE</ntsc>
						</rate>
						<start>24737</start>
						<end>25139</end>
						<in>24737</in>
						<out>25139</out>
						<pproTicksIn>209453126400000</pproTicksIn>
						<pproTicksOut>212856940800000</pproTicksOut>
						<alphatype>none</alphatype>
						<file id="file-1"/>
						<logginginfo>
							<description></description>
							<scene></scene>
							<shottake></shottake>
							<lognote></lognote>
							<good></good>
							<originalvideofilename></originalvideofilename>
							<originalaudiofilename></originalaudiofilename>
						</logginginfo>
						<colorinfo>
							<lut></lut>
							<lut1></lut1>
							<asc_sop></asc_sop>
							<asc_sat></asc_sat>
							<lut2></lut2>
						</colorinfo>
						<labels>
							<label2>Violet</label2>
						</labels>
					</clipitem>
					<clipitem id="clipitem-51">
						<masterclipid>masterclip-1</masterclipid>
						<name>VT1.0001.mp4</name>
						<enabled>TRUE</enabled>
						<duration>27156</duration>
						<rate>
							<timebase>30</timebase>
							<ntsc>FALSE</ntsc>
						</rate>
						<start>25159</start>
						<end>25528</end>
						<in>25159</in>
						<out>25528</out>
						<pproTicksIn>213026284800000</pproTicksIn>
						<pproTicksOut>216150681600000</pproTicksOut>
						<alphatype>none</alphatype>
						<file id="file-1"/>
						<logginginfo>
							<description></description>
							<scene></scene>
							<shottake></shottake>
							<lognote></lognote>
							<good></good>
							<originalvideofilename></originalvideofilename>
							<originalaudiofilename></originalaudiofilename>
						</logginginfo>
						<colorinfo>
							<lut></lut>
							<lut1></lut1>
							<asc_sop></asc_sop>
							<asc_sat></asc_sat>
							<lut2></lut2>
						</colorinfo>
						<labels>
							<label2>Violet</label2>
						</labels>
					</clipitem>
					<clipitem id="clipitem-52">
						<masterclipid>masterclip-1</masterclipid>
						<name>VT1.0001.mp4</name>
						<enabled>TRUE</enabled>
						<duration>27156</duration>
						<rate>
							<timebase>30</timebase>
							<ntsc>FALSE</ntsc>
						</rate>
						<start>25664</start>
						<end>25978</end>
						<in>25664</in>
						<out>25978</out>
						<pproTicksIn>217302220800000</pproTicksIn>
						<pproTicksOut>219960921600000</pproTicksOut>
						<alphatype>none</alphatype>
						<file id="file-1"/>
						<logginginfo>
							<description></description>
							<scene></scene>
							<shottake></shottake>
							<lognote></lognote>
							<good></good>
							<originalvideofilename></originalvideofilename>
							<originalaudiofilename></originalaudiofilename>
						</logginginfo>
						<colorinfo>
							<lut></lut>
							<lut1></lut1>
							<asc_sop></asc_sop>
							<asc_sat></asc_sat>
							<lut2></lut2>
						</colorinfo>
						<labels>
							<label2>Violet</label2>
						</labels>
					</clipitem>
					<clipitem id="clipitem-53">
						<masterclipid>masterclip-1</masterclipid>
						<name>VT1.0001.mp4</name>
						<enabled>TRUE</enabled>
						<duration>27156</duration>
						<rate>
							<timebase>30</timebase>
							<ntsc>FALSE</ntsc>
						</rate>
						<start>25991</start>
						<end>27000</end>
						<in>25991</in>
						<out>27000</out>
						<pproTicksIn>220070995200000</pproTicksIn>
						<pproTicksOut>228614400000000</pproTicksOut>
						<alphatype>none</alphatype>
						<file id="file-1"/>
						<logginginfo>
							<description></description>
							<scene></scene>
							<shottake></shottake>
							<lognote></lognote>
							<good></good>
							<originalvideofilename></originalvideofilename>
							<originalaudiofilename></originalaudiofilename>
						</logginginfo>
						<colorinfo>
							<lut></lut>
							<lut1></lut1>
							<asc_sop></asc_sop>
							<asc_sat></asc_sat>
							<lut2></lut2>
						</colorinfo>
						<labels>
							<label2>Violet</label2>
						</labels>
					</clipitem>
					<enabled>TRUE</enabled>
					<locked>FALSE</locked>
				</track>
				<track TL.SQTrackShy="0" TL.SQTrackExpandedHeight="25" TL.SQTrackExpanded="0" MZ.TrackTargeted="0">
					<enabled>TRUE</enabled>
					<locked>FALSE</locked>
				</track>
				<track TL.SQTrackShy="0" TL.SQTrackExpandedHeight="25" TL.SQTrackExpanded="0" MZ.TrackTargeted="0">
					<clipitem id="clipitem-54">
						<masterclipid>masterclip-1</masterclipid>
						<name>VT1.0001.mp4</name>
						<enabled>TRUE</enabled>
						<duration>27156</duration>
						<rate>
							<timebase>30</timebase>
							<ntsc>FALSE</ntsc>
						</rate>
						<start>1772</start>
						<end>1808</end>
						<in>1772</in>
						<out>1808</out>
						<pproTicksIn>15003878400000</pproTicksIn>
						<pproTicksOut>15308697600000</pproTicksOut>
						<alphatype>none</alphatype>
						<file id="file-1"/>
						<logginginfo>
							<description></description>
							<scene></scene>
							<shottake></shottake>
							<lognote></lognote>
							<good></good>
							<originalvideofilename></originalvideofilename>
							<originalaudiofilename></originalaudiofilename>
						</logginginfo>
						<colorinfo>
							<lut></lut>
							<lut1></lut1>
							<asc_sop></asc_sop>
							<asc_sat></asc_sat>
							<lut2></lut2>
						</colorinfo>
						<labels>
							<label2>Violet</label2>
						</labels>
					</clipitem>
					<clipitem id="clipitem-55">
						<masterclipid>masterclip-1</masterclipid>
						<name>VT1.0001.mp4</name>
						<enabled>TRUE</enabled>
						<duration>27156</duration>
						<rate>
							<timebase>30</timebase>
							<ntsc>FALSE</ntsc>
						</rate>
						<start>1933</start>
						<end>1966</end>
						<in>1933</in>
						<out>1966</out>
						<pproTicksIn>16367097600000</pproTicksIn>
						<pproTicksOut>16646515200000</pproTicksOut>
						<alphatype>none</alphatype>
						<file id="file-1"/>
						<logginginfo>
							<description></description>
							<scene></scene>
							<shottake></shottake>
							<lognote></lognote>
							<good></good>
							<originalvideofilename></originalvideofilename>
							<originalaudiofilename></originalaudiofilename>
						</logginginfo>
						<colorinfo>
							<lut></lut>
							<lut1></lut1>
							<asc_sop></asc_sop>
							<asc_sat></asc_sat>
							<lut2></lut2>
						</colorinfo>
						<labels>
							<label2>Violet</label2>
						</labels>
					</clipitem>
					<clipitem id="clipitem-56">
						<masterclipid>masterclip-1</masterclipid>
						<name>VT1.0001.mp4</name>
						<enabled>TRUE</enabled>
						<duration>27156</duration>
						<rate>
							<timebase>30</timebase>
							<ntsc>FALSE</ntsc>
						</rate>
						<start>2201</start>
						<end>2261</end>
						<in>2201</in>
						<out>2261</out>
						<pproTicksIn>18636307200000</pproTicksIn>
						<pproTicksOut>19144339200000</pproTicksOut>
						<alphatype>none</alphatype>
						<file id="file-1"/>
						<logginginfo>
							<description></description>
							<scene></scene>
							<shottake></shottake>
							<lognote></lognote>
							<good></good>
							<originalvideofilename></originalvideofilename>
							<originalaudiofilename></originalaudiofilename>
						</logginginfo>
						<colorinfo>
							<lut></lut>
							<lut1></lut1>
							<asc_sop></asc_sop>
							<asc_sat></asc_sat>
							<lut2></lut2>
						</colorinfo>
						<labels>
							<label2>Violet</label2>
						</labels>
					</clipitem>
					<clipitem id="clipitem-57">
						<masterclipid>masterclip-1</masterclipid>
						<name>VT1.0001.mp4</name>
						<enabled>TRUE</enabled>
						<duration>27156</duration>
						<rate>
							<timebase>30</timebase>
							<ntsc>FALSE</ntsc>
						</rate>
						<start>4107</start>
						<end>4169</end>
						<in>4107</in>
						<out>4169</out>
						<pproTicksIn>34774790400000</pproTicksIn>
						<pproTicksOut>35299756800000</pproTicksOut>
						<alphatype>none</alphatype>
						<file id="file-1"/>
						<logginginfo>
							<description></description>
							<scene></scene>
							<shottake></shottake>
							<lognote></lognote>
							<good></good>
							<originalvideofilename></originalvideofilename>
							<originalaudiofilename></originalaudiofilename>
						</logginginfo>
						<colorinfo>
							<lut></lut>
							<lut1></lut1>
							<asc_sop></asc_sop>
							<asc_sat></asc_sat>
							<lut2></lut2>
						</colorinfo>
						<labels>
							<label2>Violet</label2>
						</labels>
					</clipitem>
					<clipitem id="clipitem-58">
						<masterclipid>masterclip-1</masterclipid>
						<name>VT1.0001.mp4</name>
						<enabled>TRUE</enabled>
						<duration>27156</duration>
						<rate>
							<timebase>30</timebase>
							<ntsc>FALSE</ntsc>
						</rate>
						<start>6368</start>
						<end>6407</end>
						<in>6368</in>
						<out>6407</out>
						<pproTicksIn>53919129600000</pproTicksIn>
						<pproTicksOut>54249350400000</pproTicksOut>
						<alphatype>none</alphatype>
						<file id="file-1"/>
						<logginginfo>
							<description></description>
							<scene></scene>
							<shottake></shottake>
							<lognote></lognote>
							<good></good>
							<originalvideofilename></originalvideofilename>
							<originalaudiofilename></originalaudiofilename>
						</logginginfo>
						<colorinfo>
							<lut></lut>
							<lut1></lut1>
							<asc_sop></asc_sop>
							<asc_sat></asc_sat>
							<lut2></lut2>
						</colorinfo>
						<labels>
							<label2>Violet</label2>
						</labels>
					</clipitem>
					<clipitem id="clipitem-59">
						<masterclipid>masterclip-1</masterclipid>
						<name>VT1.0001.mp4</name>
						<enabled>TRUE</enabled>
						<duration>27156</duration>
						<rate>
							<timebase>30</timebase>
							<ntsc>FALSE</ntsc>
						</rate>
						<start>7718</start>
						<end>7749</end>
						<in>7718</in>
						<out>7749</out>
						<pproTicksIn>65349849600000</pproTicksIn>
						<pproTicksOut>65612332800000</pproTicksOut>
						<alphatype>none</alphatype>
						<file id="file-1"/>
						<logginginfo>
							<description></description>
							<scene></scene>
							<shottake></shottake>
							<lognote></lognote>
							<good></good>
							<originalvideofilename></originalvideofilename>
							<originalaudiofilename></originalaudiofilename>
						</logginginfo>
						<colorinfo>
							<lut></lut>
							<lut1></lut1>
							<asc_sop></asc_sop>
							<asc_sat></asc_sat>
							<lut2></lut2>
						</colorinfo>
						<labels>
							<label2>Violet</label2>
						</labels>
					</clipitem>
					<clipitem id="clipitem-60">
						<masterclipid>masterclip-1</masterclipid>
						<name>VT1.0001.mp4</name>
						<enabled>TRUE</enabled>
						<duration>27156</duration>
						<rate>
							<timebase>30</timebase>
							<ntsc>FALSE</ntsc>
						</rate>
						<start>10206</start>
						<end>10254</end>
						<in>10206</in>
						<out>10254</out>
						<pproTicksIn>86416243200000</pproTicksIn>
						<pproTicksOut>86822668800000</pproTicksOut>
						<alphatype>none</alphatype>
						<file id="file-1"/>
						<logginginfo>
							<description></description>
							<scene></scene>
							<shottake></shottake>
							<lognote></lognote>
							<good></good>
							<originalvideofilename></originalvideofilename>
							<originalaudiofilename></originalaudiofilename>
						</logginginfo>
						<colorinfo>
							<lut></lut>
							<lut1></lut1>
							<asc_sop></asc_sop>
							<asc_sat></asc_sat>
							<lut2></lut2>
						</colorinfo>
						<labels>
							<label2>Violet</label2>
						</labels>
					</clipitem>
					<clipitem id="clipitem-61">
						<masterclipid>masterclip-1</masterclipid>
						<name>VT1.0001.mp4</name>
						<enabled>TRUE</enabled>
						<duration>27156</duration>
						<rate>
							<timebase>30</timebase>
							<ntsc>FALSE</ntsc>
						</rate>
						<start>10427</start>
						<end>10442</end>
						<in>10427</in>
						<out>10442</out>
						<pproTicksIn>88287494400000</pproTicksIn>
						<pproTicksOut>88414502400000</pproTicksOut>
						<alphatype>none</alphatype>
						<file id="file-1"/>
						<logginginfo>
							<description></description>
							<scene></scene>
							<shottake></shottake>
							<lognote></lognote>
							<good></good>
							<originalvideofilename></originalvideofilename>
							<originalaudiofilename></originalaudiofilename>
						</logginginfo>
						<colorinfo>
							<lut></lut>
							<lut1></lut1>
							<asc_sop></asc_sop>
							<asc_sat></asc_sat>
							<lut2></lut2>
						</colorinfo>
						<labels>
							<label2>Violet</label2>
						</labels>
					</clipitem>
					<clipitem id="clipitem-62">
						<masterclipid>masterclip-1</masterclipid>
						<name>VT1.0001.mp4</name>
						<enabled>TRUE</enabled>
						<duration>27156</duration>
						<rate>
							<timebase>30</timebase>
							<ntsc>FALSE</ntsc>
						</rate>
						<start>12530</start>
						<end>12541</end>
						<in>12530</in>
						<out>12541</out>
						<pproTicksIn>106094016000000</pproTicksIn>
						<pproTicksOut>106187155200000</pproTicksOut>
						<alphatype>none</alphatype>
						<file id="file-1"/>
						<logginginfo>
							<description></description>
							<scene></scene>
							<shottake></shottake>
							<lognote></lognote>
							<good></good>
							<originalvideofilename></originalvideofilename>
							<originalaudiofilename></originalaudiofilename>
						</logginginfo>
						<colorinfo>
							<lut></lut>
							<lut1></lut1>
							<asc_sop></asc_sop>
							<asc_sat></asc_sat>
							<lut2></lut2>
						</colorinfo>
						<labels>
							<label2>Violet</label2>
						</labels>
					</clipitem>
					<clipitem id="clipitem-63">
						<masterclipid>masterclip-1</masterclipid>
						<name>VT1.0001.mp4</name>
						<enabled>TRUE</enabled>
						<duration>27156</duration>
						<rate>
							<timebase>30</timebase>
							<ntsc>FALSE</ntsc>
						</rate>
						<start>13222</start>
						<end>13273</end>
						<in>13222</in>
						<out>13273</out>
						<pproTicksIn>111953318400000</pproTicksIn>
						<pproTicksOut>112385145600000</pproTicksOut>
						<alphatype>none</alphatype>
						<file id="file-1"/>
						<logginginfo>
							<description></description>
							<scene></scene>
							<shottake></shottake>
							<lognote></lognote>
							<good></good>
							<originalvideofilename></originalvideofilename>
							<originalaudiofilename></originalaudiofilename>
						</logginginfo>
						<colorinfo>
							<lut></lut>
							<lut1></lut1>
							<asc_sop></asc_sop>
							<asc_sat></asc_sat>
							<lut2></lut2>
						</colorinfo>
						<labels>
							<label2>Violet</label2>
						</labels>
					</clipitem>
					<clipitem id="clipitem-64">
						<masterclipid>masterclip-1</masterclipid>
						<name>VT1.0001.mp4</name>
						<enabled>TRUE</enabled>
						<duration>27156</duration>
						<rate>
							<timebase>30</timebase>
							<ntsc>FALSE</ntsc>
						</rate>
						<start>13340</start>
						<end>13386</end>
						<in>13340</in>
						<out>13386</out>
						<pproTicksIn>112952448000000</pproTicksIn>
						<pproTicksOut>113341939200000</pproTicksOut>
						<alphatype>none</alphatype>
						<file id="file-1"/>
						<logginginfo>
							<description></description>
							<scene></scene>
							<shottake></shottake>
							<lognote></lognote>
							<good></good>
							<originalvideofilename></originalvideofilename>
							<originalaudiofilename></originalaudiofilename>
						</logginginfo>
						<colorinfo>
							<lut></lut>
							<lut1></lut1>
							<asc_sop></asc_sop>
							<asc_sat></asc_sat>
							<lut2></lut2>
						</colorinfo>
						<labels>
							<label2>Violet</label2>
						</labels>
					</clipitem>
					<clipitem id="clipitem-65">
						<masterclipid>masterclip-1</masterclipid>
						<name>VT1.0001.mp4</name>
						<enabled>TRUE</enabled>
						<duration>27156</duration>
						<rate>
							<timebase>30</timebase>
							<ntsc>FALSE</ntsc>
						</rate>
						<start>14070</start>
						<end>14105</end>
						<in>14070</in>
						<out>14105</out>
						<pproTicksIn>119133504000000</pproTicksIn>
						<pproTicksOut>119429856000000</pproTicksOut>
						<alphatype>none</alphatype>
						<file id="file-1"/>
						<logginginfo>
							<description></description>
							<scene></scene>
							<shottake></shottake>
							<lognote></lognote>
							<good></good>
							<originalvideofilename></originalvideofilename>
							<originalaudiofilename></originalaudiofilename>
						</logginginfo>
						<colorinfo>
							<lut></lut>
							<lut1></lut1>
							<asc_sop></asc_sop>
							<asc_sat></asc_sat>
							<lut2></lut2>
						</colorinfo>
						<labels>
							<label2>Violet</label2>
						</labels>
					</clipitem>
					<clipitem id="clipitem-66">
						<masterclipid>masterclip-1</masterclipid>
						<name>VT1.0001.mp4</name>
						<enabled>TRUE</enabled>
						<duration>27156</duration>
						<rate>
							<timebase>30</timebase>
							<ntsc>FALSE</ntsc>
						</rate>
						<start>17396</start>
						<end>17408</end>
						<in>17396</in>
						<out>17408</out>
						<pproTicksIn>147295411200000</pproTicksIn>
						<pproTicksOut>147397017600000</pproTicksOut>
						<alphatype>none</alphatype>
						<file id="file-1"/>
						<logginginfo>
							<description></description>
							<scene></scene>
							<shottake></shottake>
							<lognote></lognote>
							<good></good>
							<originalvideofilename></originalvideofilename>
							<originalaudiofilename></originalaudiofilename>
						</logginginfo>
						<colorinfo>
							<lut></lut>
							<lut1></lut1>
							<asc_sop></asc_sop>
							<asc_sat></asc_sat>
							<lut2></lut2>
						</colorinfo>
						<labels>
							<label2>Violet</label2>
						</labels>
					</clipitem>
					<clipitem id="clipitem-67">
						<masterclipid>masterclip-1</masterclipid>
						<name>VT1.0001.mp4</name>
						<enabled>TRUE</enabled>
						<duration>27156</duration>
						<rate>
							<timebase>30</timebase>
							<ntsc>FALSE</ntsc>
						</rate>
						<start>21988</start>
						<end>22015</end>
						<in>21988</in>
						<out>22015</out>
						<pproTicksIn>186176793600000</pproTicksIn>
						<pproTicksOut>186405408000000</pproTicksOut>
						<alphatype>none</alphatype>
						<file id="file-1"/>
						<logginginfo>
							<description></description>
							<scene></scene>
							<shottake></shottake>
							<lognote></lognote>
							<good></good>
							<originalvideofilename></originalvideofilename>
							<originalaudiofilename></originalaudiofilename>
						</logginginfo>
						<colorinfo>
							<lut></lut>
							<lut1></lut1>
							<asc_sop></asc_sop>
							<asc_sat></asc_sat>
							<lut2></lut2>
						</colorinfo>
						<labels>
							<label2>Violet</label2>
						</labels>
					</clipitem>
					<clipitem id="clipitem-68">
						<masterclipid>masterclip-1</masterclipid>
						<name>VT1.0001.mp4</name>
						<enabled>TRUE</enabled>
						<duration>27156</duration>
						<rate>
							<timebase>30</timebase>
							<ntsc>FALSE</ntsc>
						</rate>
						<start>24076</start>
						<end>24163</end>
						<in>24076</in>
						<out>24163</out>
						<pproTicksIn>203856307200000</pproTicksIn>
						<pproTicksOut>204592953600000</pproTicksOut>
						<alphatype>none</alphatype>
						<file id="file-1"/>
						<logginginfo>
							<description></description>
							<scene></scene>
							<shottake></shottake>
							<lognote></lognote>
							<good></good>
							<originalvideofilename></originalvideofilename>
							<originalaudiofilename></originalaudiofilename>
						</logginginfo>
						<colorinfo>
							<lut></lut>
							<lut1></lut1>
							<asc_sop></asc_sop>
							<asc_sat></asc_sat>
							<lut2></lut2>
						</colorinfo>
						<labels>
							<label2>Violet</label2>
						</labels>
					</clipitem>
					<clipitem id="clipitem-69">
						<masterclipid>masterclip-1</masterclipid>
						<name>VT1.0001.mp4</name>
						<enabled>TRUE</enabled>
						<duration>27156</duration>
						<rate>
							<timebase>30</timebase>
							<ntsc>FALSE</ntsc>
						</rate>
						<start>24704</start>
						<end>24737</end>
						<in>24704</in>
						<out>24737</out>
						<pproTicksIn>209173708800000</pproTicksIn>
						<pproTicksOut>209453126400000</pproTicksOut>
						<alphatype>none</alphatype>
						<file id="file-1"/>
						<logginginfo>
							<description></description>
							<scene></scene>
							<shottake></shottake>
							<lognote></lognote>
							<good></good>
							<originalvideofilename></originalvideofilename>
							<originalaudiofilename></originalaudiofilename>
						</logginginfo>
						<colorinfo>
							<lut></lut>
							<lut1></lut1>
							<asc_sop></asc_sop>
							<asc_sat></asc_sat>
							<lut2></lut2>
						</colorinfo>
						<labels>
							<label2>Violet</label2>
						</labels>
					</clipitem>
					<clipitem id="clipitem-70">
						<masterclipid>masterclip-1</masterclipid>
						<name>VT1.0001.mp4</name>
						<enabled>TRUE</enabled>
						<duration>27156</duration>
						<rate>
							<timebase>30</timebase>
							<ntsc>FALSE</ntsc>
						</rate>
						<start>25528</start>
						<end>25664</end>
						<in>25528</in>
						<out>25664</out>
						<pproTicksIn>216150681600000</pproTicksIn>
						<pproTicksOut>217302220800000</pproTicksOut>
						<alphatype>none</alphatype>
						<file id="file-1"/>
						<logginginfo>
							<description></description>
							<scene></scene>
							<shottake></shottake>
							<lognote></lognote>
							<good></good>
							<originalvideofilename></originalvideofilename>
							<originalaudiofilename></originalaudiofilename>
						</logginginfo>
						<colorinfo>
							<lut></lut>
							<lut1></lut1>
							<asc_sop></asc_sop>
							<asc_sat></asc_sat>
							<lut2></lut2>
						</colorinfo>
						<labels>
							<label2>Violet</label2>
						</labels>
					</clipitem>
					<enabled>TRUE</enabled>
					<locked>FALSE</locked>
				</track>
				<track TL.SQTrackShy="0" TL.SQTrackExpandedHeight="25" TL.SQTrackExpanded="0" MZ.TrackTargeted="0">
					<clipitem id="clipitem-71">
						<masterclipid>masterclip-1</masterclipid>
						<name>VT1.0001.mp4</name>
						<enabled>TRUE</enabled>
						<duration>27156</duration>
						<rate>
							<timebase>30</timebase>
							<ntsc>FALSE</ntsc>
						</rate>
						<start>184</start>
						<end>226</end>
						<in>184</in>
						<out>226</out>
						<pproTicksIn>1557964800000</pproTicksIn>
						<pproTicksOut>1913587200000</pproTicksOut>
						<alphatype>none</alphatype>
						<file id="file-1"/>
						<logginginfo>
							<description></description>
							<scene></scene>
							<shottake></shottake>
							<lognote></lognote>
							<good></good>
							<originalvideofilename></originalvideofilename>
							<originalaudiofilename></originalaudiofilename>
						</logginginfo>
						<colorinfo>
							<lut></lut>
							<lut1></lut1>
							<asc_sop></asc_sop>
							<asc_sat></asc_sat>
							<lut2></lut2>
						</colorinfo>
						<labels>
							<label2>Violet</label2>
						</labels>
					</clipitem>
					<clipitem id="clipitem-72">
						<masterclipid>masterclip-1</masterclipid>
						<name>VT1.0001.mp4</name>
						<enabled>TRUE</enabled>
						<duration>27156</duration>
						<rate>
							<timebase>30</timebase>
							<ntsc>FALSE</ntsc>
						</rate>
						<start>523</start>
						<end>562</end>
						<in>523</in>
						<out>562</out>
						<pproTicksIn>4428345600000</pproTicksIn>
						<pproTicksOut>4758566400000</pproTicksOut>
						<alphatype>none</alphatype>
						<file id="file-1"/>
						<logginginfo>
							<description></description>
							<scene></scene>
							<shottake></shottake>
							<lognote></lognote>
							<good></good>
							<originalvideofilename></originalvideofilename>
							<originalaudiofilename></originalaudiofilename>
						</logginginfo>
						<colorinfo>
							<lut></lut>
							<lut1></lut1>
							<asc_sop></asc_sop>
							<asc_sat></asc_sat>
							<lut2></lut2>
						</colorinfo>
						<labels>
							<label2>Violet</label2>
						</labels>
					</clipitem>
					<clipitem id="clipitem-73">
						<masterclipid>masterclip-1</masterclipid>
						<name>VT1.0001.mp4</name>
						<enabled>TRUE</enabled>
						<duration>27156</duration>
						<rate>
							<timebase>30</timebase>
							<ntsc>FALSE</ntsc>
						</rate>
						<start>870</start>
						<end>961</end>
						<in>870</in>
						<out>961</out>
						<pproTicksIn>7366464000000</pproTicksIn>
						<pproTicksOut>8136979200000</pproTicksOut>
						<alphatype>none</alphatype>
						<file id="file-1"/>
						<logginginfo>
							<description></description>
							<scene></scene>
							<shottake></shottake>
							<lognote></lognote>
							<good></good>
							<originalvideofilename></originalvideofilename>
							<originalaudiofilename></originalaudiofilename>
						</logginginfo>
						<colorinfo>
							<lut></lut>
							<lut1></lut1>
							<asc_sop></asc_sop>
							<asc_sat></asc_sat>
							<lut2></lut2>
						</colorinfo>
						<labels>
							<label2>Violet</label2>
						</labels>
					</clipitem>
					<clipitem id="clipitem-74">
						<masterclipid>masterclip-1</masterclipid>
						<name>VT1.0001.mp4</name>
						<enabled>TRUE</enabled>
						<duration>27156</duration>
						<rate>
							<timebase>30</timebase>
							<ntsc>FALSE</ntsc>
						</rate>
						<start>1358</start>
						<end>1435</end>
						<in>1358</in>
						<out>1435</out>
						<pproTicksIn>11498457600000</pproTicksIn>
						<pproTicksOut>12150432000000</pproTicksOut>
						<alphatype>none</alphatype>
						<file id="file-1"/>
						<logginginfo>
							<description></description>
							<scene></scene>
							<shottake></shottake>
							<lognote></lognote>
							<good></good>
							<originalvideofilename></originalvideofilename>
							<originalaudiofilename></originalaudiofilename>
						</logginginfo>
						<colorinfo>
							<lut></lut>
							<lut1></lut1>
							<asc_sop></asc_sop>
							<asc_sat></asc_sat>
							<lut2></lut2>
						</colorinfo>
						<labels>
							<label2>Violet</label2>
						</labels>
					</clipitem>
					<clipitem id="clipitem-75">
						<masterclipid>masterclip-1</masterclipid>
						<name>VT1.0001.mp4</name>
						<enabled>TRUE</enabled>
						<duration>27156</duration>
						<rate>
							<timebase>30</timebase>
							<ntsc>FALSE</ntsc>
						</rate>
						<start>2391</start>
						<end>2490</end>
						<in>2391</in>
						<out>2490</out>
						<pproTicksIn>20245075200000</pproTicksIn>
						<pproTicksOut>21083328000000</pproTicksOut>
						<alphatype>none</alphatype>
						<file id="file-1"/>
						<logginginfo>
							<description></description>
							<scene></scene>
							<shottake></shottake>
							<lognote></lognote>
							<good></good>
							<originalvideofilename></originalvideofilename>
							<originalaudiofilename></originalaudiofilename>
						</logginginfo>
						<colorinfo>
							<lut></lut>
							<lut1></lut1>
							<asc_sop></asc_sop>
							<asc_sat></asc_sat>
							<lut2></lut2>
						</colorinfo>
						<labels>
							<label2>Violet</label2>
						</labels>
					</clipitem>
					<clipitem id="clipitem-76">
						<masterclipid>masterclip-1</masterclipid>
						<name>VT1.0001.mp4</name>
						<enabled>TRUE</enabled>
						<duration>27156</duration>
						<rate>
							<timebase>30</timebase>
							<ntsc>FALSE</ntsc>
						</rate>
						<start>2915</start>
						<end>2924</end>
						<in>2915</in>
						<out>2924</out>
						<pproTicksIn>24681888000000</pproTicksIn>
						<pproTicksOut>24758092800000</pproTicksOut>
						<alphatype>none</alphatype>
						<file id="file-1"/>
						<logginginfo>
							<description></description>
							<scene></scene>
							<shottake></shottake>
							<lognote></lognote>
							<good></good>
							<originalvideofilename></originalvideofilename>
							<originalaudiofilename></originalaudiofilename>
						</logginginfo>
						<colorinfo>
							<lut></lut>
							<lut1></lut1>
							<asc_sop></asc_sop>
							<asc_sat></asc_sat>
							<lut2></lut2>
						</colorinfo>
						<labels>
							<label2>Violet</label2>
						</labels>
					</clipitem>
					<clipitem id="clipitem-77">
						<masterclipid>masterclip-1</masterclipid>
						<name>VT1.0001.mp4</name>
						<enabled>TRUE</enabled>
						<duration>27156</duration>
						<rate>
							<timebase>30</timebase>
							<ntsc>FALSE</ntsc>
						</rate>
						<start>3387</start>
						<end>3411</end>
						<in>3387</in>
						<out>3411</out>
						<pproTicksIn>28678406400000</pproTicksIn>
						<pproTicksOut>28881619200000</pproTicksOut>
						<alphatype>none</alphatype>
						<file id="file-1"/>
						<logginginfo>
							<description></description>
							<scene></scene>
							<shottake></shottake>
							<lognote></lognote>
							<good></good>
							<originalvideofilename></originalvideofilename>
							<originalaudiofilename></originalaudiofilename>
						</logginginfo>
						<colorinfo>
							<lut></lut>
							<lut1></lut1>
							<asc_sop></asc_sop>
							<asc_sat></asc_sat>
							<lut2></lut2>
						</colorinfo>
						<labels>
							<label2>Violet</label2>
						</labels>
					</clipitem>
					<clipitem id="clipitem-78">
						<masterclipid>masterclip-1</masterclipid>
						<name>VT1.0001.mp4</name>
						<enabled>TRUE</enabled>
						<duration>27156</duration>
						<rate>
							<timebase>30</timebase>
							<ntsc>FALSE</ntsc>
						</rate>
						<start>4078</start>
						<end>4107</end>
						<in>4078</in>
						<out>4107</out>
						<pproTicksIn>34529241600000</pproTicksIn>
						<pproTicksOut>34774790400000</pproTicksOut>
						<alphatype>none</alphatype>
						<file id="file-1"/>
						<logginginfo>
							<description></description>
							<scene></scene>
							<shottake></shottake>
							<lognote></lognote>
							<good></good>
							<originalvideofilename></originalvideofilename>
							<originalaudiofilename></originalaudiofilename>
						</logginginfo>
						<colorinfo>
							<lut></lut>
							<lut1></lut1>
							<asc_sop></asc_sop>
							<asc_sat></asc_sat>
							<lut2></lut2>
						</colorinfo>
						<labels>
							<label2>Violet</label2>
						</labels>
					</clipitem>
					<clipitem id="clipitem-79">
						<masterclipid>masterclip-1</masterclipid>
						<name>VT1.0001.mp4</name>
						<enabled>TRUE</enabled>
						<duration>27156</duration>
						<rate>
							<timebase>30</timebase>
							<ntsc>FALSE</ntsc>
						</rate>
						<start>4449</start>
						<end>4531</end>
						<in>4449</in>
						<out>4531</out>
						<pproTicksIn>37670572800000</pproTicksIn>
						<pproTicksOut>38364883200000</pproTicksOut>
						<alphatype>none</alphatype>
						<file id="file-1"/>
						<logginginfo>
							<description></description>
							<scene></scene>
							<shottake></shottake>
							<lognote></lognote>
							<good></good>
							<originalvideofilename></originalvideofilename>
							<originalaudiofilename></originalaudiofilename>
						</logginginfo>
						<colorinfo>
							<lut></lut>
							<lut1></lut1>
							<asc_sop></asc_sop>
							<asc_sat></asc_sat>
							<lut2></lut2>
						</colorinfo>
						<labels>
							<label2>Violet</label2>
						</labels>
					</clipitem>
					<clipitem id="clipitem-80">
						<masterclipid>masterclip-1</masterclipid>
						<name>VT1.0001.mp4</name>
						<enabled>TRUE</enabled>
						<duration>27156</duration>
						<rate>
							<timebase>30</timebase>
							<ntsc>FALSE</ntsc>
						</rate>
						<start>4875</start>
						<end>4975</end>
						<in>4875</in>
						<out>4975</out>
						<pproTicksIn>41277600000000</pproTicksIn>
						<pproTicksOut>42124320000000</pproTicksOut>
						<alphatype>none</alphatype>
						<file id="file-1"/>
						<logginginfo>
							<description></description>
							<scene></scene>
							<shottake></shottake>
							<lognote></lognote>
							<good></good>
							<originalvideofilename></originalvideofilename>
							<originalaudiofilename></originalaudiofilename>
						</logginginfo>
						<colorinfo>
							<lut></lut>
							<lut1></lut1>
							<asc_sop></asc_sop>
							<asc_sat></asc_sat>
							<lut2></lut2>
						</colorinfo>
						<labels>
							<label2>Violet</label2>
						</labels>
					</clipitem>
					<clipitem id="clipitem-81">
						<masterclipid>masterclip-1</masterclipid>
						<name>VT1.0001.mp4</name>
						<enabled>TRUE</enabled>
						<duration>27156</duration>
						<rate>
							<timebase>30</timebase>
							<ntsc>FALSE</ntsc>
						</rate>
						<start>5122</start>
						<end>5172</end>
						<in>5122</in>
						<out>5172</out>
						<pproTicksIn>43368998400000</pproTicksIn>
						<pproTicksOut>43792358400000</pproTicksOut>
						<alphatype>none</alphatype>
						<file id="file-1"/>
						<logginginfo>
							<description></description>
							<scene></scene>
							<shottake></shottake>
							<lognote></lognote>
							<good></good>
							<originalvideofilename></originalvideofilename>
							<originalaudiofilename></originalaudiofilename>
						</logginginfo>
						<colorinfo>
							<lut></lut>
							<lut1></lut1>
							<asc_sop></asc_sop>
							<asc_sat></asc_sat>
							<lut2></lut2>
						</colorinfo>
						<labels>
							<label2>Violet</label2>
						</labels>
					</clipitem>
					<clipitem id="clipitem-82">
						<masterclipid>masterclip-1</masterclipid>
						<name>VT1.0001.mp4</name>
						<enabled>TRUE</enabled>
						<duration>27156</duration>
						<rate>
							<timebase>30</timebase>
							<ntsc>FALSE</ntsc>
						</rate>
						<start>7662</start>
						<end>7718</end>
						<in>7662</in>
						<out>7718</out>
						<pproTicksIn>64875686400000</pproTicksIn>
						<pproTicksOut>65349849600000</pproTicksOut>
						<alphatype>none</alphatype>
						<file id="file-1"/>
						<logginginfo>
							<description></description>
							<scene></scene>
							<shottake></shottake>
							<lognote></lognote>
							<good></good>
							<originalvideofilename></originalvideofilename>
							<originalaudiofilename></originalaudiofilename>
						</logginginfo>
						<colorinfo>
							<lut></lut>
							<lut1></lut1>
							<asc_sop></asc_sop>
							<asc_sat></asc_sat>
							<lut2></lut2>
						</colorinfo>
						<labels>
							<label2>Violet</label2>
						</labels>
					</clipitem>
					<clipitem id="clipitem-83">
						<masterclipid>masterclip-1</masterclipid>
						<name>VT1.0001.mp4</name>
						<enabled>TRUE</enabled>
						<duration>27156</duration>
						<rate>
							<timebase>30</timebase>
							<ntsc>FALSE</ntsc>
						</rate>
						<start>9277</start>
						<end>9311</end>
						<in>9277</in>
						<out>9311</out>
						<pproTicksIn>78550214400000</pproTicksIn>
						<pproTicksOut>78838099200000</pproTicksOut>
						<alphatype>none</alphatype>
						<file id="file-1"/>
						<logginginfo>
							<description></description>
							<scene></scene>
							<shottake></shottake>
							<lognote></lognote>
							<good></good>
							<originalvideofilename></originalvideofilename>
							<originalaudiofilename></originalaudiofilename>
						</logginginfo>
						<colorinfo>
							<lut></lut>
							<lut1></lut1>
							<asc_sop></asc_sop>
							<asc_sat></asc_sat>
							<lut2></lut2>
						</colorinfo>
						<labels>
							<label2>Violet</label2>
						</labels>
					</clipitem>
					<clipitem id="clipitem-84">
						<masterclipid>masterclip-1</masterclipid>
						<name>VT1.0001.mp4</name>
						<enabled>TRUE</enabled>
						<duration>27156</duration>
						<rate>
							<timebase>30</timebase>
							<ntsc>FALSE</ntsc>
						</rate>
						<start>9803</start>
						<end>9843</end>
						<in>9803</in>
						<out>9843</out>
						<pproTicksIn>83003961600000</pproTicksIn>
						<pproTicksOut>83342649600000</pproTicksOut>
						<alphatype>none</alphatype>
						<file id="file-1"/>
						<logginginfo>
							<description></description>
							<scene></scene>
							<shottake></shottake>
							<lognote></lognote>
							<good></good>
							<originalvideofilename></originalvideofilename>
							<originalaudiofilename></originalaudiofilename>
						</logginginfo>
						<colorinfo>
							<lut></lut>
							<lut1></lut1>
							<asc_sop></asc_sop>
							<asc_sat></asc_sat>
							<lut2></lut2>
						</colorinfo>
						<labels>
							<label2>Violet</label2>
						</labels>
					</clipitem>
					<clipitem id="clipitem-85">
						<masterclipid>masterclip-1</masterclipid>
						<name>VT1.0001.mp4</name>
						<enabled>TRUE</enabled>
						<duration>27156</duration>
						<rate>
							<timebase>30</timebase>
							<ntsc>FALSE</ntsc>
						</rate>
						<start>13035</start>
						<end>13135</end>
						<in>13035</in>
						<out>13135</out>
						<pproTicksIn>110369952000000</pproTicksIn>
						<pproTicksOut>111216672000000</pproTicksOut>
						<alphatype>none</alphatype>
						<file id="file-1"/>
						<logginginfo>
							<description></description>
							<scene></scene>
							<shottake></shottake>
							<lognote></lognote>
							<good></good>
							<originalvideofilename></originalvideofilename>
							<originalaudiofilename></originalaudiofilename>
						</logginginfo>
						<colorinfo>
							<lut></lut>
							<lut1></lut1>
							<asc_sop></asc_sop>
							<asc_sat></asc_sat>
							<lut2></lut2>
						</colorinfo>
						<labels>
							<label2>Violet</label2>
						</labels>
					</clipitem>
					<clipitem id="clipitem-86">
						<masterclipid>masterclip-1</masterclipid>
						<name>VT1.0001.mp4</name>
						<enabled>TRUE</enabled>
						<duration>27156</duration>
						<rate>
							<timebase>30</timebase>
							<ntsc>FALSE</ntsc>
						</rate>
						<start>13554</start>
						<end>13629</end>
						<in>13554</in>
						<out>13629</out>
						<pproTicksIn>114764428800000</pproTicksIn>
						<pproTicksOut>115399468800000</pproTicksOut>
						<alphatype>none</alphatype>
						<file id="file-1"/>
						<logginginfo>
							<description></description>
							<scene></scene>
							<shottake></shottake>
							<lognote></lognote>
							<good></good>
							<originalvideofilename></originalvideofilename>
							<originalaudiofilename></originalaudiofilename>
						</logginginfo>
						<colorinfo>
							<lut></lut>
							<lut1></lut1>
							<asc_sop></asc_sop>
							<asc_sat></asc_sat>
							<lut2></lut2>
						</colorinfo>
						<labels>
							<label2>Violet</label2>
						</labels>
					</clipitem>
					<clipitem id="clipitem-87">
						<masterclipid>masterclip-1</masterclipid>
						<name>VT1.0001.mp4</name>
						<enabled>TRUE</enabled>
						<duration>27156</duration>
						<rate>
							<timebase>30</timebase>
							<ntsc>FALSE</ntsc>
						</rate>
						<start>14915</start>
						<end>14963</end>
						<in>14915</in>
						<out>14963</out>
						<pproTicksIn>126288288000000</pproTicksIn>
						<pproTicksOut>126694713600000</pproTicksOut>
						<alphatype>none</alphatype>
						<file id="file-1"/>
						<logginginfo>
							<description></description>
							<scene></scene>
							<shottake></shottake>
							<lognote></lognote>
							<good></good>
							<originalvideofilename></originalvideofilename>
							<originalaudiofilename></originalaudiofilename>
						</logginginfo>
						<colorinfo>
							<lut></lut>
							<lut1></lut1>
							<asc_sop></asc_sop>
							<asc_sat></asc_sat>
							<lut2></lut2>
						</colorinfo>
						<labels>
							<label2>Violet</label2>
						</labels>
					</clipitem>
					<clipitem id="clipitem-88">
						<masterclipid>masterclip-1</masterclipid>
						<name>VT1.0001.mp4</name>
						<enabled>TRUE</enabled>
						<duration>27156</duration>
						<rate>
							<timebase>30</timebase>
							<ntsc>FALSE</ntsc>
						</rate>
						<start>16272</start>
						<end>16297</end>
						<in>16272</in>
						<out>16297</out>
						<pproTicksIn>137778278400000</pproTicksIn>
						<pproTicksOut>137989958400000</pproTicksOut>
						<alphatype>none</alphatype>
						<file id="file-1"/>
						<logginginfo>
							<description></description>
							<scene></scene>
							<shottake></shottake>
							<lognote></lognote>
							<good></good>
							<originalvideofilename></originalvideofilename>
							<originalaudiofilename></originalaudiofilename>
						</logginginfo>
						<colorinfo>
							<lut></lut>
							<lut1></lut1>
							<asc_sop></asc_sop>
							<asc_sat></asc_sat>
							<lut2></lut2>
						</colorinfo>
						<labels>
							<label2>Violet</label2>
						</labels>
					</clipitem>
					<clipitem id="clipitem-89">
						<masterclipid>masterclip-1</masterclipid>
						<name>VT1.0001.mp4</name>
						<enabled>TRUE</enabled>
						<duration>27156</duration>
						<rate>
							<timebase>30</timebase>
							<ntsc>FALSE</ntsc>
						</rate>
						<start>17002</start>
						<end>17053</end>
						<in>17002</in>
						<out>17053</out>
						<pproTicksIn>143959334400000</pproTicksIn>
						<pproTicksOut>144391161600000</pproTicksOut>
						<alphatype>none</alphatype>
						<file id="file-1"/>
						<logginginfo>
							<description></description>
							<scene></scene>
							<shottake></shottake>
							<lognote></lognote>
							<good></good>
							<originalvideofilename></originalvideofilename>
							<originalaudiofilename></originalaudiofilename>
						</logginginfo>
						<colorinfo>
							<lut></lut>
							<lut1></lut1>
							<asc_sop></asc_sop>
							<asc_sat></asc_sat>
							<lut2></lut2>
						</colorinfo>
						<labels>
							<label2>Violet</label2>
						</labels>
					</clipitem>
					<clipitem id="clipitem-90">
						<masterclipid>masterclip-1</masterclipid>
						<name>VT1.0001.mp4</name>
						<enabled>TRUE</enabled>
						<duration>27156</duration>
						<rate>
							<timebase>30</timebase>
							<ntsc>FALSE</ntsc>
						</rate>
						<start>17927</start>
						<end>17962</end>
						<in>17927</in>
						<out>17962</out>
						<pproTicksIn>151791494400000</pproTicksIn>
						<pproTicksOut>152087846400000</pproTicksOut>
						<alphatype>none</alphatype>
						<file id="file-1"/>
						<logginginfo>
							<description></description>
							<scene></scene>
							<shottake></shottake>
							<lognote></lognote>
							<good></good>
							<originalvideofilename></originalvideofilename>
							<originalaudiofilename></originalaudiofilename>
						</logginginfo>
						<colorinfo>
							<lut></lut>
							<lut1></lut1>
							<asc_sop></asc_sop>
							<asc_sat></asc_sat>
							<lut2></lut2>
						</colorinfo>
						<labels>
							<label2>Violet</label2>
						</labels>
					</clipitem>
					<clipitem id="clipitem-91">
						<masterclipid>masterclip-1</masterclipid>
						<name>VT1.0001.mp4</name>
						<enabled>TRUE</enabled>
						<duration>27156</duration>
						<rate>
							<timebase>30</timebase>
							<ntsc>FALSE</ntsc>
						</rate>
						<start>20356</start>
						<end>20387</end>
						<in>20356</in>
						<out>20387</out>
						<pproTicksIn>172358323200000</pproTicksIn>
						<pproTicksOut>172620806400000</pproTicksOut>
						<alphatype>none</alphatype>
						<file id="file-1"/>
						<logginginfo>
							<description></description>
							<scene></scene>
							<shottake></shottake>
							<lognote></lognote>
							<good></good>
							<originalvideofilename></originalvideofilename>
							<originalaudiofilename></originalaudiofilename>
						</logginginfo>
						<colorinfo>
							<lut></lut>
							<lut1></lut1>
							<asc_sop></asc_sop>
							<asc_sat></asc_sat>
							<lut2></lut2>
						</colorinfo>
						<labels>
							<label2>Violet</label2>
						</labels>
					</clipitem>
					<clipitem id="clipitem-92">
						<masterclipid>masterclip-1</masterclipid>
						<name>VT1.0001.mp4</name>
						<enabled>TRUE</enabled>
						<duration>27156</duration>
						<rate>
							<timebase>30</timebase>
							<ntsc>FALSE</ntsc>
						</rate>
						<start>20889</start>
						<end>20919</end>
						<in>20889</in>
						<out>20919</out>
						<pproTicksIn>176871340800000</pproTicksIn>
						<pproTicksOut>177125356800000</pproTicksOut>
						<alphatype>none</alphatype>
						<file id="file-1"/>
						<logginginfo>
							<description></description>
							<scene></scene>
							<shottake></shottake>
							<lognote></lognote>
							<good></good>
							<originalvideofilename></originalvideofilename>
							<originalaudiofilename></originalaudiofilename>
						</logginginfo>
						<colorinfo>
							<lut></lut>
							<lut1></lut1>
							<asc_sop></asc_sop>
							<asc_sat></asc_sat>
							<lut2></lut2>
						</colorinfo>
						<labels>
							<label2>Violet</label2>
						</labels>
					</clipitem>
					<clipitem id="clipitem-93">
						<masterclipid>masterclip-1</masterclipid>
						<name>VT1.0001.mp4</name>
						<enabled>TRUE</enabled>
						<duration>27156</duration>
						<rate>
							<timebase>30</timebase>
							<ntsc>FALSE</ntsc>
						</rate>
						<start>23012</start>
						<end>23093</end>
						<in>23012</in>
						<out>23093</out>
						<pproTicksIn>194847206400000</pproTicksIn>
						<pproTicksOut>195533049600000</pproTicksOut>
						<alphatype>none</alphatype>
						<file id="file-1"/>
						<logginginfo>
							<description></description>
							<scene></scene>
							<shottake></shottake>
							<lognote></lognote>
							<good></good>
							<originalvideofilename></originalvideofilename>
							<originalaudiofilename></originalaudiofilename>
						</logginginfo>
						<colorinfo>
							<lut></lut>
							<lut1></lut1>
							<asc_sop></asc_sop>
							<asc_sat></asc_sat>
							<lut2></lut2>
						</colorinfo>
						<labels>
							<label2>Violet</label2>
						</labels>
					</clipitem>
					<clipitem id="clipitem-94">
						<masterclipid>masterclip-1</masterclipid>
						<name>VT1.0001.mp4</name>
						<enabled>TRUE</enabled>
						<duration>27156</duration>
						<rate>
							<timebase>30</timebase>
							<ntsc>FALSE</ntsc>
						</rate>
						<start>25139</start>
						<end>25159</end>
						<in>25139</in>
						<out>25159</out>
						<pproTicksIn>212856940800000</pproTicksIn>
						<pproTicksOut>213026284800000</pproTicksOut>
						<alphatype>none</alphatype>
						<file id="file-1"/>
						<logginginfo>
							<description></description>
							<scene></scene>
							<shottake></shottake>
							<lognote></lognote>
							<good></good>
							<originalvideofilename></originalvideofilename>
							<originalaudiofilename></originalaudiofilename>
						</logginginfo>
						<colorinfo>
							<lut></lut>
							<lut1></lut1>
							<asc_sop></asc_sop>
							<asc_sat></asc_sat>
							<lut2></lut2>
						</colorinfo>
						<labels>
							<label2>Violet</label2>
						</labels>
					</clipitem>
					<clipitem id="clipitem-95">
						<masterclipid>masterclip-1</masterclipid>
						<name>VT1.0001.mp4</name>
						<enabled>TRUE</enabled>
						<duration>27156</duration>
						<rate>
							<timebase>30</timebase>
							<ntsc>FALSE</ntsc>
						</rate>
						<start>25978</start>
						<end>25991</end>
						<in>25978</in>
						<out>25991</out>
						<pproTicksIn>219960921600000</pproTicksIn>
						<pproTicksOut>220070995200000</pproTicksOut>
						<alphatype>none</alphatype>
						<file id="file-1"/>
						<logginginfo>
							<description></description>
							<scene></scene>
							<shottake></shottake>
							<lognote></lognote>
							<good></good>
							<originalvideofilename></originalvideofilename>
							<originalaudiofilename></originalaudiofilename>
						</logginginfo>
						<colorinfo>
							<lut></lut>
							<lut1></lut1>
							<asc_sop></asc_sop>
							<asc_sat></asc_sat>
							<lut2></lut2>
						</colorinfo>
						<labels>
							<label2>Violet</label2>
						</labels>
					</clipitem>
					<enabled>TRUE</enabled>
					<locked>FALSE</locked>
				</track>
				<track TL.SQTrackShy="0" TL.SQTrackExpandedHeight="25" TL.SQTrackExpanded="0" MZ.TrackTargeted="0">
					<clipitem id="clipitem-96">
						<masterclipid>masterclip-1</masterclipid>
						<name>VT1.0001.mp4</name>
						<enabled>TRUE</enabled>
						<duration>27156</duration>
						<rate>
							<timebase>30</timebase>
							<ntsc>FALSE</ntsc>
						</rate>
						<start>4531</start>
						<end>4607</end>
						<in>4531</in>
						<out>4607</out>
						<pproTicksIn>38364883200000</pproTicksIn>
						<pproTicksOut>39008390400000</pproTicksOut>
						<alphatype>none</alphatype>
						<file id="file-1"/>
						<logginginfo>
							<description></description>
							<scene></scene>
							<shottake></shottake>
							<lognote></lognote>
							<good></good>
							<originalvideofilename></originalvideofilename>
							<originalaudiofilename></originalaudiofilename>
						</logginginfo>
						<colorinfo>
							<lut></lut>
							<lut1></lut1>
							<asc_sop></asc_sop>
							<asc_sat></asc_sat>
							<lut2></lut2>
						</colorinfo>
						<labels>
							<label2>Violet</label2>
						</labels>
					</clipitem>
					<clipitem id="clipitem-97">
						<masterclipid>masterclip-1</masterclipid>
						<name>VT1.0001.mp4</name>
						<enabled>TRUE</enabled>
						<duration>27156</duration>
						<rate>
							<timebase>30</timebase>
							<ntsc>FALSE</ntsc>
						</rate>
						<start>13135</start>
						<end>13222</end>
						<in>13135</in>
						<out>13222</out>
						<pproTicksIn>111216672000000</pproTicksIn>
						<pproTicksOut>111953318400000</pproTicksOut>
						<alphatype>none</alphatype>
						<file id="file-1"/>
						<logginginfo>
							<description></description>
							<scene></scene>
							<shottake></shottake>
							<lognote></lognote>
							<good></good>
							<originalvideofilename></originalvideofilename>
							<originalaudiofilename></originalaudiofilename>
						</logginginfo>
						<colorinfo>
							<lut></lut>
							<lut1></lut1>
							<asc_sop></asc_sop>
							<asc_sat></asc_sat>
							<lut2></lut2>
						</colorinfo>
						<labels>
							<label2>Violet</label2>
						</labels>
					</clipitem>
					<clipitem id="clipitem-98">
						<masterclipid>masterclip-1</masterclipid>
						<name>VT1.0001.mp4</name>
						<enabled>TRUE</enabled>
						<duration>27156</duration>
						<rate>
							<timebase>30</timebase>
							<ntsc>FALSE</ntsc>
						</rate>
						<start>13273</start>
						<end>13340</end>
						<in>13273</in>
						<out>13340</out>
						<pproTicksIn>112385145600000</pproTicksIn>
						<pproTicksOut>112952448000000</pproTicksOut>
						<alphatype>none</alphatype>
						<file id="file-1"/>
						<logginginfo>
							<description></description>
							<scene></scene>
							<shottake></shottake>
							<lognote></lognote>
							<good></good>
							<originalvideofilename></originalvideofilename>
							<originalaudiofilename></originalaudiofilename>
						</logginginfo>
						<colorinfo>
							<lut></lut>
							<lut1></lut1>
							<asc_sop></asc_sop>
							<asc_sat></asc_sat>
							<lut2></lut2>
						</colorinfo>
						<labels>
							<label2>Violet</label2>
						</labels>
					</clipitem>
					<enabled>TRUE</enabled>
					<locked>FALSE</locked>
				</track>
				<track TL.SQTrackShy="0" TL.SQTrackExpandedHeight="25" TL.SQTrackExpanded="0" MZ.TrackTargeted="0">
					<clipitem id="clipitem-99">
						<masterclipid>masterclip-1</masterclipid>
						<name>VT1.0001.mp4</name>
						<enabled>TRUE</enabled>
						<duration>27156</duration>
						<rate>
							<timebase>30</timebase>
							<ntsc>FALSE</ntsc>
						</rate>
						<start>863</start>
						<end>870</end>
						<in>863</in>
						<out>870</out>
						<pproTicksIn>7307193600000</pproTicksIn>
						<pproTicksOut>7366464000000</pproTicksOut>
						<alphatype>none</alphatype>
						<file id="file-1"/>
						<logginginfo>
							<description></description>
							<scene></scene>
							<shottake></shottake>
							<lognote></lognote>
							<good></good>
							<originalvideofilename></originalvideofilename>
							<originalaudiofilename></originalaudiofilename>
						</logginginfo>
						<colorinfo>
							<lut></lut>
							<lut1></lut1>
							<asc_sop></asc_sop>
							<asc_sat></asc_sat>
							<lut2></lut2>
						</colorinfo>
						<labels>
							<label2>Violet</label2>
						</labels>
					</clipitem>
					<clipitem id="clipitem-100">
						<masterclipid>masterclip-1</masterclipid>
						<name>VT1.0001.mp4</name>
						<enabled>TRUE</enabled>
						<duration>27156</duration>
						<rate>
							<timebase>30</timebase>
							<ntsc>FALSE</ntsc>
						</rate>
						<start>1355</start>
						<end>1358</end>
						<in>1355</in>
						<out>1358</out>
						<pproTicksIn>11473056000000</pproTicksIn>
						<pproTicksOut>11498457600000</pproTicksOut>
						<alphatype>none</alphatype>
						<file id="file-1"/>
						<logginginfo>
							<description></description>
							<scene></scene>
							<shottake></shottake>
							<lognote></lognote>
							<good></good>
							<originalvideofilename></originalvideofilename>
							<originalaudiofilename></originalaudiofilename>
						</logginginfo>
						<colorinfo>
							<lut></lut>
							<lut1></lut1>
							<asc_sop></asc_sop>
							<asc_sat></asc_sat>
							<lut2></lut2>
						</colorinfo>
						<labels>
							<label2>Violet</label2>
						</labels>
					</clipitem>
					<clipitem id="clipitem-101">
						<masterclipid>masterclip-1</masterclipid>
						<name>VT1.0001.mp4</name>
						<enabled>TRUE</enabled>
						<duration>27156</duration>
						<rate>
							<timebase>30</timebase>
							<ntsc>FALSE</ntsc>
						</rate>
						<start>1766</start>
						<end>1772</end>
						<in>1766</in>
						<out>1772</out>
						<pproTicksIn>14953075200000</pproTicksIn>
						<pproTicksOut>15003878400000</pproTicksOut>
						<alphatype>none</alphatype>
						<file id="file-1"/>
						<logginginfo>
							<description></description>
							<scene></scene>
							<shottake></shottake>
							<lognote></lognote>
							<good></good>
							<originalvideofilename></originalvideofilename>
							<originalaudiofilename></originalaudiofilename>
						</logginginfo>
						<colorinfo>
							<lut></lut>
							<lut1></lut1>
							<asc_sop></asc_sop>
							<asc_sat></asc_sat>
							<lut2></lut2>
						</colorinfo>
						<labels>
							<label2>Violet</label2>
						</labels>
					</clipitem>
					<clipitem id="clipitem-102">
						<masterclipid>masterclip-1</masterclipid>
						<name>VT1.0001.mp4</name>
						<enabled>TRUE</enabled>
						<duration>27156</duration>
						<rate>
							<timebase>30</timebase>
							<ntsc>FALSE</ntsc>
						</rate>
						<start>2194</start>
						<end>2201</end>
						<in>2194</in>
						<out>2201</out>
						<pproTicksIn>18577036800000</pproTicksIn>
						<pproTicksOut>18636307200000</pproTicksOut>
						<alphatype>none</alphatype>
						<file id="file-1"/>
						<logginginfo>
							<description></description>
							<scene></scene>
							<shottake></shottake>
							<lognote></lognote>
							<good></good>
							<originalvideofilename></originalvideofilename>
							<originalaudiofilename></originalaudiofilename>
						</logginginfo>
						<colorinfo>
							<lut></lut>
							<lut1></lut1>
							<asc_sop></asc_sop>
							<asc_sat></asc_sat>
							<lut2></lut2>
						</colorinfo>
						<labels>
							<label2>Violet</label2>
						</labels>
					</clipitem>
					<clipitem id="clipitem-103">
						<masterclipid>masterclip-1</masterclipid>
						<name>VT1.0001.mp4</name>
						<enabled>TRUE</enabled>
						<duration>27156</duration>
						<rate>
							<timebase>30</timebase>
							<ntsc>FALSE</ntsc>
						</rate>
						<start>2382</start>
						<end>2391</end>
						<in>2382</in>
						<out>2391</out>
						<pproTicksIn>20168870400000</pproTicksIn>
						<pproTicksOut>20245075200000</pproTicksOut>
						<alphatype>none</alphatype>
						<file id="file-1"/>
						<logginginfo>
							<description></description>
							<scene></scene>
							<shottake></shottake>
							<lognote></lognote>
							<good></good>
							<originalvideofilename></originalvideofilename>
							<originalaudiofilename></originalaudiofilename>
						</logginginfo>
						<colorinfo>
							<lut></lut>
							<lut1></lut1>
							<asc_sop></asc_sop>
							<asc_sat></asc_sat>
							<lut2></lut2>
						</colorinfo>
						<labels>
							<label2>Violet</label2>
						</labels>
					</clipitem>
					<clipitem id="clipitem-104">
						<masterclipid>masterclip-1</masterclipid>
						<name>VT1.0001.mp4</name>
						<enabled>TRUE</enabled>
						<duration>27156</duration>
						<rate>
							<timebase>30</timebase>
							<ntsc>FALSE</ntsc>
						</rate>
						<start>3378</start>
						<end>3387</end>
						<in>3378</in>
						<out>3387</out>
						<pproTicksIn>28602201600000</pproTicksIn>
						<pproTicksOut>28678406400000</pproTicksOut>
						<alphatype>none</alphatype>
						<file id="file-1"/>
						<logginginfo>
							<description></description>
							<scene></scene>
							<shottake></shottake>
							<lognote></lognote>
							<good></good>
							<originalvideofilename></originalvideofilename>
							<originalaudiofilename></originalaudiofilename>
						</logginginfo>
						<colorinfo>
							<lut></lut>
							<lut1></lut1>
							<asc_sop></asc_sop>
							<asc_sat></asc_sat>
							<lut2></lut2>
						</colorinfo>
						<labels>
							<label2>Violet</label2>
						</labels>
					</clipitem>
					<clipitem id="clipitem-105">
						<masterclipid>masterclip-1</masterclipid>
						<name>VT1.0001.mp4</name>
						<enabled>TRUE</enabled>
						<duration>27156</duration>
						<rate>
							<timebase>30</timebase>
							<ntsc>FALSE</ntsc>
						</rate>
						<start>4070</start>
						<end>4078</end>
						<in>4070</in>
						<out>4078</out>
						<pproTicksIn>34461504000000</pproTicksIn>
						<pproTicksOut>34529241600000</pproTicksOut>
						<alphatype>none</alphatype>
						<file id="file-1"/>
						<logginginfo>
							<description></description>
							<scene></scene>
							<shottake></shottake>
							<lognote></lognote>
							<good></good>
							<originalvideofilename></originalvideofilename>
							<originalaudiofilename></originalaudiofilename>
						</logginginfo>
						<colorinfo>
							<lut></lut>
							<lut1></lut1>
							<asc_sop></asc_sop>
							<asc_sat></asc_sat>
							<lut2></lut2>
						</colorinfo>
						<labels>
							<label2>Violet</label2>
						</labels>
					</clipitem>
					<clipitem id="clipitem-106">
						<masterclipid>masterclip-1</masterclipid>
						<name>VT1.0001.mp4</name>
						<enabled>TRUE</enabled>
						<duration>27156</duration>
						<rate>
							<timebase>30</timebase>
							<ntsc>FALSE</ntsc>
						</rate>
						<start>4443</start>
						<end>4449</end>
						<in>4443</in>
						<out>4449</out>
						<pproTicksIn>37619769600000</pproTicksIn>
						<pproTicksOut>37670572800000</pproTicksOut>
						<alphatype>none</alphatype>
						<file id="file-1"/>
						<logginginfo>
							<description></description>
							<scene></scene>
							<shottake></shottake>
							<lognote></lognote>
							<good></good>
							<originalvideofilename></originalvideofilename>
							<originalaudiofilename></originalaudiofilename>
						</logginginfo>
						<colorinfo>
							<lut></lut>
							<lut1></lut1>
							<asc_sop></asc_sop>
							<asc_sat></asc_sat>
							<lut2></lut2>
						</colorinfo>
						<labels>
							<label2>Violet</label2>
						</labels>
					</clipitem>
					<clipitem id="clipitem-107">
						<masterclipid>masterclip-1</masterclipid>
						<name>VT1.0001.mp4</name>
						<enabled>TRUE</enabled>
						<duration>27156</duration>
						<rate>
							<timebase>30</timebase>
							<ntsc>FALSE</ntsc>
						</rate>
						<start>4862</start>
						<end>4875</end>
						<in>4862</in>
						<out>4875</out>
						<pproTicksIn>41167526400000</pproTicksIn>
						<pproTicksOut>41277600000000</pproTicksOut>
						<alphatype>none</alphatype>
						<file id="file-1"/>
						<logginginfo>
							<description></description>
							<scene></scene>
							<shottake></shottake>
							<lognote></lognote>
							<good></good>
							<originalvideofilename></originalvideofilename>
							<originalaudiofilename></originalaudiofilename>
						</logginginfo>
						<colorinfo>
							<lut></lut>
							<lut1></lut1>
							<asc_sop></asc_sop>
							<asc_sat></asc_sat>
							<lut2></lut2>
						</colorinfo>
						<labels>
							<label2>Violet</label2>
						</labels>
					</clipitem>
					<clipitem id="clipitem-108">
						<masterclipid>masterclip-1</masterclipid>
						<name>VT1.0001.mp4</name>
						<enabled>TRUE</enabled>
						<duration>27156</duration>
						<rate>
							<timebase>30</timebase>
							<ntsc>FALSE</ntsc>
						</rate>
						<start>6363</start>
						<end>6368</end>
						<in>6363</in>
						<out>6368</out>
						<pproTicksIn>53876793600000</pproTicksIn>
						<pproTicksOut>53919129600000</pproTicksOut>
						<alphatype>none</alphatype>
						<file id="file-1"/>
						<logginginfo>
							<description></description>
							<scene></scene>
							<shottake></shottake>
							<lognote></lognote>
							<good></good>
							<originalvideofilename></originalvideofilename>
							<originalaudiofilename></originalaudiofilename>
						</logginginfo>
						<colorinfo>
							<lut></lut>
							<lut1></lut1>
							<asc_sop></asc_sop>
							<asc_sat></asc_sat>
							<lut2></lut2>
						</colorinfo>
						<labels>
							<label2>Violet</label2>
						</labels>
					</clipitem>
					<clipitem id="clipitem-109">
						<masterclipid>masterclip-1</masterclipid>
						<name>VT1.0001.mp4</name>
						<enabled>TRUE</enabled>
						<duration>27156</duration>
						<rate>
							<timebase>30</timebase>
							<ntsc>FALSE</ntsc>
						</rate>
						<start>7655</start>
						<end>7662</end>
						<in>7655</in>
						<out>7662</out>
						<pproTicksIn>64816416000000</pproTicksIn>
						<pproTicksOut>64875686400000</pproTicksOut>
						<alphatype>none</alphatype>
						<file id="file-1"/>
						<logginginfo>
							<description></description>
							<scene></scene>
							<shottake></shottake>
							<lognote></lognote>
							<good></good>
							<originalvideofilename></originalvideofilename>
							<originalaudiofilename></originalaudiofilename>
						</logginginfo>
						<colorinfo>
							<lut></lut>
							<lut1></lut1>
							<asc_sop></asc_sop>
							<asc_sat></asc_sat>
							<lut2></lut2>
						</colorinfo>
						<labels>
							<label2>Violet</label2>
						</labels>
					</clipitem>
					<clipitem id="clipitem-110">
						<masterclipid>masterclip-1</masterclipid>
						<name>VT1.0001.mp4</name>
						<enabled>TRUE</enabled>
						<duration>27156</duration>
						<rate>
							<timebase>30</timebase>
							<ntsc>FALSE</ntsc>
						</rate>
						<start>9269</start>
						<end>9277</end>
						<in>9269</in>
						<out>9277</out>
						<pproTicksIn>78482476800000</pproTicksIn>
						<pproTicksOut>78550214400000</pproTicksOut>
						<alphatype>none</alphatype>
						<file id="file-1"/>
						<logginginfo>
							<description></description>
							<scene></scene>
							<shottake></shottake>
							<lognote></lognote>
							<good></good>
							<originalvideofilename></originalvideofilename>
							<originalaudiofilename></originalaudiofilename>
						</logginginfo>
						<colorinfo>
							<lut></lut>
							<lut1></lut1>
							<asc_sop></asc_sop>
							<asc_sat></asc_sat>
							<lut2></lut2>
						</colorinfo>
						<labels>
							<label2>Violet</label2>
						</labels>
					</clipitem>
					<clipitem id="clipitem-111">
						<masterclipid>masterclip-1</masterclipid>
						<name>VT1.0001.mp4</name>
						<enabled>TRUE</enabled>
						<duration>27156</duration>
						<rate>
							<timebase>30</timebase>
							<ntsc>FALSE</ntsc>
						</rate>
						<start>9795</start>
						<end>9803</end>
						<in>9795</in>
						<out>9803</out>
						<pproTicksIn>82936224000000</pproTicksIn>
						<pproTicksOut>83003961600000</pproTicksOut>
						<alphatype>none</alphatype>
						<file id="file-1"/>
						<logginginfo>
							<description></description>
							<scene></scene>
							<shottake></shottake>
							<lognote></lognote>
							<good></good>
							<originalvideofilename></originalvideofilename>
							<originalaudiofilename></originalaudiofilename>
						</logginginfo>
						<colorinfo>
							<lut></lut>
							<lut1></lut1>
							<asc_sop></asc_sop>
							<asc_sat></asc_sat>
							<lut2></lut2>
						</colorinfo>
						<labels>
							<label2>Violet</label2>
						</labels>
					</clipitem>
					<clipitem id="clipitem-112">
						<masterclipid>masterclip-1</masterclipid>
						<name>VT1.0001.mp4</name>
						<enabled>TRUE</enabled>
						<duration>27156</duration>
						<rate>
							<timebase>30</timebase>
							<ntsc>FALSE</ntsc>
						</rate>
						<start>10201</start>
						<end>10206</end>
						<in>10201</in>
						<out>10206</out>
						<pproTicksIn>86373907200000</pproTicksIn>
						<pproTicksOut>86416243200000</pproTicksOut>
						<alphatype>none</alphatype>
						<file id="file-1"/>
						<logginginfo>
							<description></description>
							<scene></scene>
							<shottake></shottake>
							<lognote></lognote>
							<good></good>
							<originalvideofilename></originalvideofilename>
							<originalaudiofilename></originalaudiofilename>
						</logginginfo>
						<colorinfo>
							<lut></lut>
							<lut1></lut1>
							<asc_sop></asc_sop>
							<asc_sat></asc_sat>
							<lut2></lut2>
						</colorinfo>
						<labels>
							<label2>Violet</label2>
						</labels>
					</clipitem>
					<clipitem id="clipitem-113">
						<masterclipid>masterclip-1</masterclipid>
						<name>VT1.0001.mp4</name>
						<enabled>TRUE</enabled>
						<duration>27156</duration>
						<rate>
							<timebase>30</timebase>
							<ntsc>FALSE</ntsc>
						</rate>
						<start>10416</start>
						<end>10427</end>
						<in>10416</in>
						<out>10427</out>
						<pproTicksIn>88194355200000</pproTicksIn>
						<pproTicksOut>88287494400000</pproTicksOut>
						<alphatype>none</alphatype>
						<file id="file-1"/>
						<logginginfo>
							<description></description>
							<scene></scene>
							<shottake></shottake>
							<lognote></lognote>
							<good></good>
							<originalvideofilename></originalvideofilename>
							<originalaudiofilename></originalaudiofilename>
						</logginginfo>
						<colorinfo>
							<lut></lut>
							<lut1></lut1>
							<asc_sop></asc_sop>
							<asc_sat></asc_sat>
							<lut2></lut2>
						</colorinfo>
						<labels>
							<label2>Violet</label2>
						</labels>
					</clipitem>
					<clipitem id="clipitem-114">
						<masterclipid>masterclip-1</masterclipid>
						<name>VT1.0001.mp4</name>
						<enabled>TRUE</enabled>
						<duration>27156</duration>
						<rate>
							<timebase>30</timebase>
							<ntsc>FALSE</ntsc>
						</rate>
						<start>12521</start>
						<end>12530</end>
						<in>12521</in>
						<out>12530</out>
						<pproTicksIn>106017811200000</pproTicksIn>
						<pproTicksOut>106094016000000</pproTicksOut>
						<alphatype>none</alphatype>
						<file id="file-1"/>
						<logginginfo>
							<description></description>
							<scene></scene>
							<shottake></shottake>
							<lognote></lognote>
							<good></good>
							<originalvideofilename></originalvideofilename>
							<originalaudiofilename></originalaudiofilename>
						</logginginfo>
						<colorinfo>
							<lut></lut>
							<lut1></lut1>
							<asc_sop></asc_sop>
							<asc_sat></asc_sat>
							<lut2></lut2>
						</colorinfo>
						<labels>
							<label2>Violet</label2>
						</labels>
					</clipitem>
					<clipitem id="clipitem-115">
						<masterclipid>masterclip-1</masterclipid>
						<name>VT1.0001.mp4</name>
						<enabled>TRUE</enabled>
						<duration>27156</duration>
						<rate>
							<timebase>30</timebase>
							<ntsc>FALSE</ntsc>
						</rate>
						<start>13029</start>
						<end>13035</end>
						<in>13029</in>
						<out>13035</out>
						<pproTicksIn>110319148800000</pproTicksIn>
						<pproTicksOut>110369952000000</pproTicksOut>
						<alphatype>none</alphatype>
						<file id="file-1"/>
						<logginginfo>
							<description></description>
							<scene></scene>
							<shottake></shottake>
							<lognote></lognote>
							<good></good>
							<originalvideofilename></originalvideofilename>
							<originalaudiofilename></originalaudiofilename>
						</logginginfo>
						<colorinfo>
							<lut></lut>
							<lut1></lut1>
							<asc_sop></asc_sop>
							<asc_sat></asc_sat>
							<lut2></lut2>
						</colorinfo>
						<labels>
							<label2>Violet</label2>
						</labels>
					</clipitem>
					<clipitem id="clipitem-116">
						<masterclipid>masterclip-1</masterclipid>
						<name>VT1.0001.mp4</name>
						<enabled>TRUE</enabled>
						<duration>27156</duration>
						<rate>
							<timebase>30</timebase>
							<ntsc>FALSE</ntsc>
						</rate>
						<start>13528</start>
						<end>13554</end>
						<in>13528</in>
						<out>13554</out>
						<pproTicksIn>114544281600000</pproTicksIn>
						<pproTicksOut>114764428800000</pproTicksOut>
						<alphatype>none</alphatype>
						<file id="file-1"/>
						<logginginfo>
							<description></description>
							<scene></scene>
							<shottake></shottake>
							<lognote></lognote>
							<good></good>
							<originalvideofilename></originalvideofilename>
							<originalaudiofilename></originalaudiofilename>
						</logginginfo>
						<colorinfo>
							<lut></lut>
							<lut1></lut1>
							<asc_sop></asc_sop>
							<asc_sat></asc_sat>
							<lut2></lut2>
						</colorinfo>
						<labels>
							<label2>Violet</label2>
						</labels>
					</clipitem>
					<clipitem id="clipitem-117">
						<masterclipid>masterclip-1</masterclipid>
						<name>VT1.0001.mp4</name>
						<enabled>TRUE</enabled>
						<duration>27156</duration>
						<rate>
							<timebase>30</timebase>
							<ntsc>FALSE</ntsc>
						</rate>
						<start>14905</start>
						<end>14915</end>
						<in>14905</in>
						<out>14915</out>
						<pproTicksIn>126203616000000</pproTicksIn>
						<pproTicksOut>126288288000000</pproTicksOut>
						<alphatype>none</alphatype>
						<file id="file-1"/>
						<logginginfo>
							<description></description>
							<scene></scene>
							<shottake></shottake>
							<lognote></lognote>
							<good></good>
							<originalvideofilename></originalvideofilename>
							<originalaudiofilename></originalaudiofilename>
						</logginginfo>
						<colorinfo>
							<lut></lut>
							<lut1></lut1>
							<asc_sop></asc_sop>
							<asc_sat></asc_sat>
							<lut2></lut2>
						</colorinfo>
						<labels>
							<label2>Violet</label2>
						</labels>
					</clipitem>
					<clipitem id="clipitem-118">
						<masterclipid>masterclip-1</masterclipid>
						<name>VT1.0001.mp4</name>
						<enabled>TRUE</enabled>
						<duration>27156</duration>
						<rate>
							<timebase>30</timebase>
							<ntsc>FALSE</ntsc>
						</rate>
						<start>16263</start>
						<end>16272</end>
						<in>16263</in>
						<out>16272</out>
						<pproTicksIn>137702073600000</pproTicksIn>
						<pproTicksOut>137778278400000</pproTicksOut>
						<alphatype>none</alphatype>
						<file id="file-1"/>
						<logginginfo>
							<description></description>
							<scene></scene>
							<shottake></shottake>
							<lognote></lognote>
							<good></good>
							<originalvideofilename></originalvideofilename>
							<originalaudiofilename></originalaudiofilename>
						</logginginfo>
						<colorinfo>
							<lut></lut>
							<lut1></lut1>
							<asc_sop></asc_sop>
							<asc_sat></asc_sat>
							<lut2></lut2>
						</colorinfo>
						<labels>
							<label2>Violet</label2>
						</labels>
					</clipitem>
					<clipitem id="clipitem-119">
						<masterclipid>masterclip-1</masterclipid>
						<name>VT1.0001.mp4</name>
						<enabled>TRUE</enabled>
						<duration>27156</duration>
						<rate>
							<timebase>30</timebase>
							<ntsc>FALSE</ntsc>
						</rate>
						<start>16988</start>
						<end>17002</end>
						<in>16988</in>
						<out>17002</out>
						<pproTicksIn>143840793600000</pproTicksIn>
						<pproTicksOut>143959334400000</pproTicksOut>
						<alphatype>none</alphatype>
						<file id="file-1"/>
						<logginginfo>
							<description></description>
							<scene></scene>
							<shottake></shottake>
							<lognote></lognote>
							<good></good>
							<originalvideofilename></originalvideofilename>
							<originalaudiofilename></originalaudiofilename>
						</logginginfo>
						<colorinfo>
							<lut></lut>
							<lut1></lut1>
							<asc_sop></asc_sop>
							<asc_sat></asc_sat>
							<lut2></lut2>
						</colorinfo>
						<labels>
							<label2>Violet</label2>
						</labels>
					</clipitem>
					<clipitem id="clipitem-120">
						<masterclipid>masterclip-1</masterclipid>
						<name>VT1.0001.mp4</name>
						<enabled>TRUE</enabled>
						<duration>27156</duration>
						<rate>
							<timebase>30</timebase>
							<ntsc>FALSE</ntsc>
						</rate>
						<start>17917</start>
						<end>17927</end>
						<in>17917</in>
						<out>17927</out>
						<pproTicksIn>151706822400000</pproTicksIn>
						<pproTicksOut>151791494400000</pproTicksOut>
						<alphatype>none</alphatype>
						<file id="file-1"/>
						<logginginfo>
							<description></description>
							<scene></scene>
							<shottake></shottake>
							<lognote></lognote>
							<good></good>
							<originalvideofilename></originalvideofilename>
							<originalaudiofilename></originalaudiofilename>
						</logginginfo>
						<colorinfo>
							<lut></lut>
							<lut1></lut1>
							<asc_sop></asc_sop>
							<asc_sat></asc_sat>
							<lut2></lut2>
						</colorinfo>
						<labels>
							<label2>Violet</label2>
						</labels>
					</clipitem>
					<clipitem id="clipitem-121">
						<masterclipid>masterclip-1</masterclipid>
						<name>VT1.0001.mp4</name>
						<enabled>TRUE</enabled>
						<duration>27156</duration>
						<rate>
							<timebase>30</timebase>
							<ntsc>FALSE</ntsc>
						</rate>
						<start>20886</start>
						<end>20889</end>
						<in>20886</in>
						<out>20889</out>
						<pproTicksIn>176845939200000</pproTicksIn>
						<pproTicksOut>176871340800000</pproTicksOut>
						<alphatype>none</alphatype>
						<file id="file-1"/>
						<logginginfo>
							<description></description>
							<scene></scene>
							<shottake></shottake>
							<lognote></lognote>
							<good></good>
							<originalvideofilename></originalvideofilename>
							<originalaudiofilename></originalaudiofilename>
						</logginginfo>
						<colorinfo>
							<lut></lut>
							<lut1></lut1>
							<asc_sop></asc_sop>
							<asc_sat></asc_sat>
							<lut2></lut2>
						</colorinfo>
						<labels>
							<label2>Violet</label2>
						</labels>
					</clipitem>
					<enabled>TRUE</enabled>
					<locked>FALSE</locked>
				</track>
				<track TL.SQTrackShy="0" TL.SQTrackExpandedHeight="25" TL.SQTrackExpanded="0" MZ.TrackTargeted="0">
					<enabled>TRUE</enabled>
					<locked>FALSE</locked>
				</track>
			</video>
			<audio>
				<numOutputChannels>2</numOutputChannels>
				<format>
					<samplecharacteristics>
						<depth>16</depth>
						<samplerate>48000</samplerate>
					</samplecharacteristics>
				</format>
				<outputs>
					<group>
						<index>1</index>
						<numchannels>1</numchannels>
						<downmix>0</downmix>
						<channel>
							<index>1</index>
						</channel>
					</group>
					<group>
						<index>2</index>
						<numchannels>1</numchannels>
						<downmix>0</downmix>
						<channel>
							<index>2</index>
						</channel>
					</group>
				</outputs>
				<track TL.SQTrackAudioKeyframeStyle="0" TL.SQTrackShy="0" TL.SQTrackExpandedHeight="25" TL.SQTrackExpanded="0" MZ.TrackTargeted="1" PannerCurrentValue="0.5" PannerIsInverted="true" PannerStartKeyframe="-91445760000000000,0.5,0,0,0,0,0,0" PannerName="균형" currentExplodedTrackIndex="0" totalExplodedTrackCount="2" premiereTrackType="Stereo">
					<enabled>TRUE</enabled>
					<locked>FALSE</locked>
					<outputchannelindex>1</outputchannelindex>
				</track>
				<track TL.SQTrackAudioKeyframeStyle="0" TL.SQTrackShy="0" TL.SQTrackExpandedHeight="25" TL.SQTrackExpanded="0" MZ.TrackTargeted="1" PannerCurrentValue="0.5" PannerIsInverted="true" PannerStartKeyframe="-91445760000000000,0.5,0,0,0,0,0,0" PannerName="균형" currentExplodedTrackIndex="1" totalExplodedTrackCount="2" premiereTrackType="Stereo">
					<enabled>TRUE</enabled>
					<locked>FALSE</locked>
					<outputchannelindex>2</outputchannelindex>
				</track>
				<track TL.SQTrackAudioKeyframeStyle="0" TL.SQTrackShy="0" TL.SQTrackExpandedHeight="25" TL.SQTrackExpanded="0" MZ.TrackTargeted="1" PannerCurrentValue="0.5" PannerIsInverted="true" PannerStartKeyframe="-91445760000000000,0.5,0,0,0,0,0,0" PannerName="균형" currentExplodedTrackIndex="0" totalExplodedTrackCount="2" premiereTrackType="Stereo">
					<enabled>TRUE</enabled>
					<locked>FALSE</locked>
					<outputchannelindex>1</outputchannelindex>
				</track>
				<track TL.SQTrackAudioKeyframeStyle="0" TL.SQTrackShy="0" TL.SQTrackExpandedHeight="25" TL.SQTrackExpanded="0" MZ.TrackTargeted="1" PannerCurrentValue="0.5" PannerIsInverted="true" PannerStartKeyframe="-91445760000000000,0.5,0,0,0,0,0,0" PannerName="균형" currentExplodedTrackIndex="1" totalExplodedTrackCount="2" premiereTrackType="Stereo">
					<enabled>TRUE</enabled>
					<locked>FALSE</locked>
					<outputchannelindex>2</outputchannelindex>
				</track>
				<track TL.SQTrackAudioKeyframeStyle="0" TL.SQTrackShy="0" TL.SQTrackExpandedHeight="25" TL.SQTrackExpanded="0" MZ.TrackTargeted="1" PannerCurrentValue="0.5" PannerIsInverted="true" PannerStartKeyframe="-91445760000000000,0.5,0,0,0,0,0,0" PannerName="균형" currentExplodedTrackIndex="0" totalExplodedTrackCount="2" premiereTrackType="Stereo">
					<enabled>TRUE</enabled>
					<locked>FALSE</locked>
					<outputchannelindex>1</outputchannelindex>
				</track>
				<track TL.SQTrackAudioKeyframeStyle="0" TL.SQTrackShy="0" TL.SQTrackExpandedHeight="25" TL.SQTrackExpanded="0" MZ.TrackTargeted="1" PannerCurrentValue="0.5" PannerIsInverted="true" PannerStartKeyframe="-91445760000000000,0.5,0,0,0,0,0,0" PannerName="균형" currentExplodedTrackIndex="1" totalExplodedTrackCount="2" premiereTrackType="Stereo">
					<enabled>TRUE</enabled>
					<locked>FALSE</locked>
					<outputchannelindex>2</outputchannelindex>
				</track>
				<track TL.SQTrackExpandedHeight="25" TL.SQTrackExpanded="0" MZ.TrackTargeted="0" PannerCurrentValue="0.5" PannerIsInverted="true" PannerStartKeyframe="-91445760000000000,0.5,0,0,0,0,0,0" PannerName="균형" currentExplodedTrackIndex="0" totalExplodedTrackCount="2" premiereTrackType="Stereo">
					<enabled>TRUE</enabled>
					<locked>FALSE</locked>
					<outputchannelindex>1</outputchannelindex>
				</track>
				<track TL.SQTrackExpandedHeight="25" TL.SQTrackExpanded="0" MZ.TrackTargeted="0" PannerCurrentValue="0.5" PannerIsInverted="true" PannerStartKeyframe="-91445760000000000,0.5,0,0,0,0,0,0" PannerName="균형" currentExplodedTrackIndex="1" totalExplodedTrackCount="2" premiereTrackType="Stereo">
					<enabled>TRUE</enabled>
					<locked>FALSE</locked>
					<outputchannelindex>2</outputchannelindex>
				</track>
			</audio>
		</media>
		<timecode>
			<rate>
				<timebase>30</timebase>
				<ntsc>FALSE</ntsc>
			</rate>
			<string>00:00:00:00</string>
			<frame>0</frame>
			<displayformat>NDF</displayformat>
		</timecode>
		<labels>
			<label2>Forest</label2>
		</labels>
		<logginginfo>
			<description></description>
			<scene></scene>
			<shottake></shottake>
			<lognote></lognote>
			<good></good>
			<originalvideofilename></originalvideofilename>
			<originalaudiofilename></originalaudiofilename>
		</logginginfo>
	</sequence>
</xmeml>
